<svg width="60" height="60" viewBox="0 0 60 60" fill="none" xmlns="http://www.w3.org/2000/svg">
<path d="M34.7137 8.22852C22.8852 8.22852 13.2852 17.8285 13.2852 29.6571C13.2852 41.4857 22.8852 51.0857 34.7137 51.0857C46.5423 51.0857 56.1423 41.4857 56.1423 29.6571C56.1423 17.8285 46.628 8.22852 34.7137 8.22852ZM34.7137 41.3999C28.1994 41.3999 22.9709 36.1714 22.9709 29.6571C22.9709 23.1428 28.1994 17.9142 34.7137 17.9142C41.228 17.9142 46.4566 23.1428 46.4566 29.6571C46.4566 36.1714 41.228 41.3999 34.7137 41.3999Z" fill="url(#paint0_linear)"/>
<path d="M34.7129 35.6572C38.0266 35.6572 40.7129 32.9709 40.7129 29.6572C40.7129 26.3435 38.0266 23.6572 34.7129 23.6572C31.3992 23.6572 28.7129 26.3435 28.7129 29.6572C28.7129 32.9709 31.3992 35.6572 34.7129 35.6572Z" fill="url(#paint1_linear)"/>
<path d="M13.6293 52.2856L4.0293 42.1713L5.31501 40.9713L13.715 49.8856L34.8864 28.457L36.1722 29.657L13.6293 52.2856Z" fill="#8B3ACA"/>
<defs>
<linearGradient id="paint0_linear" x1="20.1901" y1="44.2222" x2="49.7739" y2="14.6384" gradientUnits="userSpaceOnUse">
<stop stop-color="#E4C1FF" stop-opacity="0"/>
<stop offset="1" stop-color="#E4C1FF"/>
</linearGradient>
<linearGradient id="paint1_linear" x1="15.7722" y1="48.6395" x2="54.3279" y2="10.0838" gradientUnits="userSpaceOnUse">
<stop stop-color="#E4C1FF" stop-opacity="0"/>
<stop offset="1" stop-color="#E4C1FF"/>
</linearGradient>
</defs>
</svg>
