<svg width="1280" height="848" viewBox="0 0 1280 848" fill="none" xmlns="http://www.w3.org/2000/svg">
<rect width="1280" height="848" fill="url(#paint0_linear)"/>
<path d="M498.348 632.156C494.423 608.749 483.646 587.032 467.378 569.75C451.111 552.468 430.084 540.399 406.957 535.067C383.83 529.735 359.641 531.382 337.449 539.798C315.258 548.213 296.06 563.02 282.284 582.347C268.508 601.673 260.772 624.65 260.055 648.373C259.338 672.096 265.671 695.499 278.254 715.623C290.838 735.746 309.106 751.685 330.748 761.427C352.391 771.168 376.436 774.273 399.843 770.348C415.385 767.742 430.261 762.1 443.622 753.745C456.984 745.39 468.569 734.486 477.716 721.653C486.863 708.821 493.393 694.312 496.933 678.956C500.473 663.601 500.954 647.698 498.348 632.156ZM393.078 729.996C377.658 732.577 361.82 730.528 347.564 724.109C333.309 717.69 321.277 707.19 312.989 693.933C304.701 680.677 300.53 665.26 301.003 649.634C301.476 634.007 306.571 618.871 315.645 606.14C324.719 593.409 337.363 583.653 351.981 578.108C366.598 572.562 382.531 571.475 397.766 574.984C413.002 578.493 426.854 586.439 437.573 597.82C448.292 609.201 455.396 623.504 457.987 638.922C459.709 649.164 459.395 659.646 457.064 669.767C454.733 679.888 450.431 689.45 444.403 697.908C438.375 706.366 430.739 713.553 421.933 719.059C413.126 724.564 403.321 728.281 393.078 729.996Z" fill="url(#paint1_linear)"/>
<path d="M154 256C171.673 256 186 241.673 186 224C186 206.327 171.673 192 154 192C136.327 192 122 206.327 122 224C122 241.673 136.327 256 154 256Z" fill="url(#paint2_linear)"/>
<path d="M1215 343C1215 380.003 1185 410 1148 410C1111 410 1081 380.003 1081 343C1081 305.997 1111 276 1148 276C1185 276 1215 305.997 1215 343ZM1114.18 343C1114.18 361.677 1129.32 376.818 1148 376.818C1166.68 376.818 1181.82 361.677 1181.82 343C1181.82 324.323 1166.68 309.182 1148 309.182C1129.32 309.182 1114.18 324.323 1114.18 343Z" fill="url(#paint3_linear)"/>
<defs>
<linearGradient id="paint0_linear" x1="640" y1="0" x2="640" y2="848" gradientUnits="userSpaceOnUse">
<stop stop-color="#F7F7F7"/>
<stop offset="1" stop-color="#F7F7F7" stop-opacity="0"/>
</linearGradient>
<linearGradient id="paint1_linear" x1="498.85" y1="770.85" x2="340.528" y2="612.511" gradientUnits="userSpaceOnUse">
<stop stop-color="#B7E9E9" stop-opacity="0"/>
<stop offset="0.13" stop-color="#B7E9E9" stop-opacity="0.03"/>
<stop offset="0.32" stop-color="#B7E9E9" stop-opacity="0.11"/>
<stop offset="0.54" stop-color="#B7E9E9" stop-opacity="0.23"/>
<stop offset="0.78" stop-color="#B7E9E9" stop-opacity="0.41"/>
<stop offset="1" stop-color="#B7E9E9" stop-opacity="0.6"/>
</linearGradient>
<linearGradient id="paint2_linear" x1="139.922" y1="200.176" x2="171.278" y2="253.239" gradientUnits="userSpaceOnUse">
<stop stop-color="#EFB3C7" stop-opacity="0.6"/>
<stop offset="0.32" stop-color="#F6D6E0" stop-opacity="0.51"/>
<stop offset="0.71" stop-color="#FDF4F7" stop-opacity="0.43"/>
<stop offset="1" stop-color="white" stop-opacity="0.4"/>
</linearGradient>
<linearGradient id="paint3_linear" x1="1095.25" y1="374.971" x2="1203.43" y2="309.408" gradientUnits="userSpaceOnUse">
<stop stop-color="#81D4FA" stop-opacity="0.5"/>
<stop offset="0.25" stop-color="#81D4FA" stop-opacity="0.35"/>
<stop offset="0.59" stop-color="#81D4FA" stop-opacity="0.16"/>
<stop offset="0.85" stop-color="#81D4FA" stop-opacity="0.04"/>
<stop offset="1" stop-color="#81D4FA" stop-opacity="0"/>
</linearGradient>
</defs>
</svg>
