<svg width="1364" height="972" viewBox="0 0 1364 972" fill="none" xmlns="http://www.w3.org/2000/svg">
<path d="M1360.24 225.356C1335.62 78.3169 1196.38 -20.894 1049.33 3.75855C902.283 28.4111 803.065 167.584 827.769 314.643C852.472 461.702 991.624 560.893 1138.67 536.241C1285.72 511.588 1384.89 372.366 1360.24 225.356ZM1119.09 419.732C1089.47 424.699 1059.05 420.772 1031.66 408.448C1004.28 396.125 981.163 375.958 965.24 350.498C949.317 325.038 941.303 295.428 942.21 265.413C943.117 235.398 952.905 206.327 970.336 181.874C987.767 157.422 1012.06 138.687 1040.14 128.04C1068.22 117.392 1098.82 115.31 1128.09 122.056C1157.35 128.802 1183.95 144.074 1204.54 165.94C1225.12 187.806 1238.75 215.284 1243.72 244.9C1250.38 284.609 1240.99 325.337 1217.61 358.124C1194.24 390.911 1158.8 413.072 1119.09 419.732V419.732Z" fill="url(#paint0_linear)"/>
<path d="M1076.24 657.356C1051.62 510.317 912.384 411.106 765.335 435.759C618.286 460.411 519.069 599.584 543.772 746.643C568.476 893.702 707.628 992.893 854.677 968.241C1001.73 943.588 1100.89 804.366 1076.24 657.356ZM835.094 851.732C805.477 856.699 775.052 852.772 747.667 840.448C720.282 828.125 697.166 807.958 681.244 782.498C665.321 757.038 657.307 727.428 658.214 697.413C659.121 667.398 668.909 638.327 686.34 613.874C703.771 589.422 728.062 570.687 756.141 560.04C784.22 549.392 814.826 547.31 844.089 554.056C873.352 560.802 899.957 576.074 920.54 597.94C941.123 619.806 954.758 647.284 959.723 676.9C966.38 716.609 956.99 757.337 933.617 790.124C910.245 822.911 874.805 845.072 835.094 851.732V851.732Z" fill="url(#paint1_linear)" fill-opacity="0.2"/>
<path d="M536.232 389.356C511.572 242.314 372.422 143.101 225.353 167.76C78.285 192.42 -20.8981 331.573 3.7612 478.644C28.4205 625.714 167.571 724.898 314.639 700.239C461.708 675.579 560.92 536.397 536.232 389.356ZM301.242 620.214C198.403 637.463 101.053 568.067 83.8038 465.177C66.555 362.287 135.95 264.985 238.838 247.736C341.727 230.487 439.028 299.883 456.277 402.772C473.525 505.662 404.062 602.975 301.223 620.214H301.242Z" fill="url(#paint2_linear)"/>
<defs>
<linearGradient id="paint0_linear" x1="1262.61" y1="94.9259" x2="914.534" y2="456.339" gradientUnits="userSpaceOnUse">
<stop stop-color="#E4C1FF" stop-opacity="0.5"/>
<stop offset="1" stop-color="#E4C1FF" stop-opacity="0"/>
</linearGradient>
<linearGradient id="paint1_linear" x1="1009" y1="506" x2="621.538" y2="903.545" gradientUnits="userSpaceOnUse">
<stop stop-color="#2DC5C5" stop-opacity="0"/>
<stop offset="0.3" stop-color="#2DC5C5" stop-opacity="0.2"/>
<stop offset="0.47" stop-color="#2DC5C5" stop-opacity="0.4"/>
<stop offset="0.740331" stop-color="#2DC5C5" stop-opacity="0.6"/>
<stop offset="1" stop-color="#2DC5C5"/>
</linearGradient>
<linearGradient id="paint2_linear" x1="99.1805" y1="615.651" x2="439.901" y2="253.338" gradientUnits="userSpaceOnUse">
<stop stop-color="#81D4FA" stop-opacity="0.6"/>
<stop offset="0.24" stop-color="#A4E0FB" stop-opacity="0.43"/>
<stop offset="0.59" stop-color="#D5F1FD" stop-opacity="0.2"/>
<stop offset="0.86" stop-color="#F3FBFF" stop-opacity="0.05"/>
<stop offset="1" stop-color="white" stop-opacity="0"/>
</linearGradient>
</defs>
</svg>
