<svg width="1414" height="1168" viewBox="0 0 1414 1168" fill="none" xmlns="http://www.w3.org/2000/svg">
<g clip-path="url(#clip0)">
<path d="M1409.51 232.662C1386.69 96.5138 1257.8 4.65262 1121.66 27.4806C985.512 50.3085 893.653 179.194 916.481 315.342C939.308 451.491 1068.19 543.362 1204.34 520.514C1340.48 497.666 1432.36 368.801 1409.51 232.662ZM1186.24 412.639C1158.82 417.239 1130.65 413.603 1105.3 402.192C1079.94 390.781 1058.54 372.106 1043.8 348.531C1029.06 324.955 1021.64 297.538 1022.48 269.746C1023.32 241.953 1032.39 215.035 1048.53 192.395C1064.67 169.754 1087.16 152.41 1113.16 142.554C1139.16 132.698 1167.5 130.775 1194.59 137.026C1221.69 143.277 1246.32 157.423 1265.37 177.673C1284.42 197.924 1297.04 223.372 1301.63 250.795C1307.78 287.556 1299.08 325.255 1277.44 355.602C1255.81 385.95 1223 406.461 1186.24 412.628V412.639Z" fill="url(#paint0_linear)"/>
<path d="M606.532 541.123C577.295 366.86 412.348 249.27 238.078 278.498C63.8084 307.726 -53.771 472.685 -24.5531 646.958C4.66472 821.231 169.641 938.811 343.951 909.583C518.261 880.355 635.76 715.396 606.532 541.123ZM325.862 801.984C211.014 821.241 102.3 743.757 83.0443 628.908C63.7885 514.059 141.271 405.343 256.118 386.087C370.965 366.83 479.679 444.314 498.935 559.163C518.191 674.012 440.679 782.728 325.862 801.984V801.984Z" fill="url(#paint1_linear)"/>
<path d="M253 163H109C109.013 124.813 124.189 88.1932 151.191 61.1907C178.194 34.1881 214.813 19.0133 253 19V163Z" fill="url(#paint2_linear)"/>
<path d="M1180 1167C1268.37 1167 1340 1095.37 1340 1007C1340 918.634 1268.37 847 1180 847C1091.63 847 1020 918.634 1020 1007C1020 1095.37 1091.63 1167 1180 1167Z" fill="url(#paint3_linear)"/>
</g>
<defs>
<linearGradient id="paint0_linear" x1="1319.13" y1="111.889" x2="996.835" y2="446.499" gradientUnits="userSpaceOnUse">
<stop stop-color="#E4C1FF" stop-opacity="0.5"/>
<stop offset="0.08" stop-color="#E4C1FF" stop-opacity="0.43"/>
<stop offset="0.27" stop-color="#E4C1FF" stop-opacity="0.28"/>
<stop offset="0.47" stop-color="#E4C1FF" stop-opacity="0.16"/>
<stop offset="0.66" stop-color="#E4C1FF" stop-opacity="0.07"/>
<stop offset="0.84" stop-color="#E4C1FF" stop-opacity="0.02"/>
<stop offset="1" stop-color="#E4C1FF" stop-opacity="0"/>
</linearGradient>
<linearGradient id="paint1_linear" x1="39.048" y1="746.738" x2="555.74" y2="433.601" gradientUnits="userSpaceOnUse">
<stop stop-color="#81D4FA" stop-opacity="0.5"/>
<stop offset="0.25" stop-color="#81D4FA" stop-opacity="0.35"/>
<stop offset="0.59" stop-color="#81D4FA" stop-opacity="0.16"/>
<stop offset="0.85" stop-color="#81D4FA" stop-opacity="0.04"/>
<stop offset="1" stop-color="#81D4FA" stop-opacity="0"/>
</linearGradient>
<linearGradient id="paint2_linear" x1="252.31" y1="162.31" x2="157.317" y2="67.3068" gradientUnits="userSpaceOnUse">
<stop stop-color="#B7E9E9" stop-opacity="0"/>
<stop offset="0.13" stop-color="#B7E9E9" stop-opacity="0.03"/>
<stop offset="0.32" stop-color="#B7E9E9" stop-opacity="0.11"/>
<stop offset="0.54" stop-color="#B7E9E9" stop-opacity="0.23"/>
<stop offset="0.78" stop-color="#B7E9E9" stop-opacity="0.41"/>
<stop offset="1" stop-color="#B7E9E9" stop-opacity="0.6"/>
</linearGradient>
<linearGradient id="paint3_linear" x1="1109.59" y1="887.858" x2="1266.39" y2="1153.21" gradientUnits="userSpaceOnUse">
<stop stop-color="white" stop-opacity="0.4"/>
<stop offset="0.29" stop-color="#FDF4F7" stop-opacity="0.43"/>
<stop offset="0.68" stop-color="#F6D6E0" stop-opacity="0.51"/>
<stop offset="1" stop-color="#EFB3C7" stop-opacity="0.6"/>
</linearGradient>
<clipPath id="clip0">
<rect width="1414" height="1168" fill="white"/>
</clipPath>
</defs>
</svg>
