<svg width="413" height="221" viewBox="0 0 413 221" fill="none" xmlns="http://www.w3.org/2000/svg">
<path fill-rule="evenodd" clip-rule="evenodd" d="M6.09375 12.8913V8.89502H7.08472V12.8913H6.09375Z" fill="#8DD4E9"/>
<path fill-rule="evenodd" clip-rule="evenodd" d="M6.09375 3.99629V0H7.08472V3.99629H6.09375Z" fill="#8DD4E9"/>
<path fill-rule="evenodd" clip-rule="evenodd" d="M13.0308 6.94134H9.03711V5.94971H13.0308V6.94134Z" fill="#8DD4E9"/>
<path fill-rule="evenodd" clip-rule="evenodd" d="M4.14209 6.94134H0.148438V5.94971H4.14209V6.94134Z" fill="#8DD4E9"/>
<path fill-rule="evenodd" clip-rule="evenodd" d="M6.09375 35.9569V31.9507H7.08472V35.9569H6.09375Z" fill="#8DD4E9"/>
<path fill-rule="evenodd" clip-rule="evenodd" d="M6.09375 27.0617V23.0654H7.08472V27.0617H6.09375Z" fill="#8DD4E9"/>
<path fill-rule="evenodd" clip-rule="evenodd" d="M13.0308 30.0068H9.03711V29.0151H13.0308V30.0068Z" fill="#8DD4E9"/>
<path fill-rule="evenodd" clip-rule="evenodd" d="M4.14209 30.0068H0.148438V29.0151H4.14209V30.0068Z" fill="#8DD4E9"/>
<path fill-rule="evenodd" clip-rule="evenodd" d="M6.09375 59.0124V55.0161H7.08472V59.0124H6.09375Z" fill="#8DD4E9"/>
<path fill-rule="evenodd" clip-rule="evenodd" d="M6.09375 50.1273V46.1211H7.08472V50.1273H6.09375Z" fill="#8DD4E9"/>
<path fill-rule="evenodd" clip-rule="evenodd" d="M13.0308 53.0624H9.03711V52.0708H13.0308V53.0624Z" fill="#8DD4E9"/>
<path fill-rule="evenodd" clip-rule="evenodd" d="M4.14209 53.0624H0.148438V52.0708H4.14209V53.0624Z" fill="#8DD4E9"/>
<path fill-rule="evenodd" clip-rule="evenodd" d="M6.09375 82.0778V78.0815H7.08472V82.0778H6.09375Z" fill="#8DD4E9"/>
<path fill-rule="evenodd" clip-rule="evenodd" d="M6.09375 73.1828V69.1865H7.08472V73.1828H6.09375Z" fill="#8DD4E9"/>
<path fill-rule="evenodd" clip-rule="evenodd" d="M13.0308 76.1279H9.03711V75.1362H13.0308V76.1279Z" fill="#8DD4E9"/>
<path fill-rule="evenodd" clip-rule="evenodd" d="M4.14209 76.1279H0.148438V75.1362H4.14209V76.1279Z" fill="#8DD4E9"/>
<path fill-rule="evenodd" clip-rule="evenodd" d="M6.09375 105.133V101.137H7.08472V105.133H6.09375Z" fill="#8DD4E9"/>
<path fill-rule="evenodd" clip-rule="evenodd" d="M6.09375 96.2484V92.2422H7.08472V96.2484H6.09375Z" fill="#8DD4E9"/>
<path fill-rule="evenodd" clip-rule="evenodd" d="M13.0308 99.1835H9.03711V98.1919H13.0308V99.1835Z" fill="#8DD4E9"/>
<path fill-rule="evenodd" clip-rule="evenodd" d="M4.14209 99.1835H0.148438V98.1919H4.14209V99.1835Z" fill="#8DD4E9"/>
<path fill-rule="evenodd" clip-rule="evenodd" d="M6.09375 128.199V124.203H7.08472V128.199H6.09375Z" fill="#8DD4E9"/>
<path fill-rule="evenodd" clip-rule="evenodd" d="M6.09375 119.304V115.308H7.08472V119.304H6.09375Z" fill="#8DD4E9"/>
<path fill-rule="evenodd" clip-rule="evenodd" d="M13.0308 122.249H9.03711V121.257H13.0308V122.249Z" fill="#8DD4E9"/>
<path fill-rule="evenodd" clip-rule="evenodd" d="M4.14209 122.249H0.148438V121.257H4.14209V122.249Z" fill="#8DD4E9"/>
<path fill-rule="evenodd" clip-rule="evenodd" d="M6.09375 151.264V147.258H7.08472V151.264H6.09375Z" fill="#8DD4E9"/>
<path fill-rule="evenodd" clip-rule="evenodd" d="M6.09375 142.369V138.373H7.08472V142.369H6.09375Z" fill="#8DD4E9"/>
<path fill-rule="evenodd" clip-rule="evenodd" d="M13.0308 145.314H9.03711V144.323H13.0308V145.314Z" fill="#8DD4E9"/>
<path fill-rule="evenodd" clip-rule="evenodd" d="M4.14209 145.314H0.148438V144.323H4.14209V145.314Z" fill="#8DD4E9"/>
<path fill-rule="evenodd" clip-rule="evenodd" d="M6.09375 174.32V170.323H7.08472V174.32H6.09375Z" fill="#8DD4E9"/>
<path fill-rule="evenodd" clip-rule="evenodd" d="M6.09375 165.434V161.428H7.08472V165.434H6.09375Z" fill="#8DD4E9"/>
<path fill-rule="evenodd" clip-rule="evenodd" d="M13.0308 168.37H9.03711V167.378H13.0308V168.37Z" fill="#8DD4E9"/>
<path fill-rule="evenodd" clip-rule="evenodd" d="M4.14209 168.37H0.148438V167.378H4.14209V168.37Z" fill="#8DD4E9"/>
<path fill-rule="evenodd" clip-rule="evenodd" d="M6.09375 197.385V193.389H7.08472V197.385H6.09375Z" fill="#8DD4E9"/>
<path fill-rule="evenodd" clip-rule="evenodd" d="M6.09375 188.49V184.494H7.08472V188.49H6.09375Z" fill="#8DD4E9"/>
<path fill-rule="evenodd" clip-rule="evenodd" d="M13.0308 191.435H9.03711V190.444H13.0308V191.435Z" fill="#8DD4E9"/>
<path fill-rule="evenodd" clip-rule="evenodd" d="M4.14209 191.435H0.148438V190.444H4.14209V191.435Z" fill="#8DD4E9"/>
<path fill-rule="evenodd" clip-rule="evenodd" d="M6.09375 220.451V216.444H7.08472V220.451H6.09375Z" fill="#8DD4E9"/>
<path fill-rule="evenodd" clip-rule="evenodd" d="M6.09375 211.556V207.56H7.08472V211.556H6.09375Z" fill="#8DD4E9"/>
<path fill-rule="evenodd" clip-rule="evenodd" d="M13.0308 214.501H9.03711V213.509H13.0308V214.501Z" fill="#8DD4E9"/>
<path fill-rule="evenodd" clip-rule="evenodd" d="M4.14209 214.501H0.148438V213.509H4.14209V214.501Z" fill="#8DD4E9"/>
<path fill-rule="evenodd" clip-rule="evenodd" d="M28.2617 12.8913V8.89502H29.2527V12.8913H28.2617Z" fill="#8DD4E9"/>
<path fill-rule="evenodd" clip-rule="evenodd" d="M28.2617 3.99629V0H29.2527V3.99629H28.2617Z" fill="#8DD4E9"/>
<path fill-rule="evenodd" clip-rule="evenodd" d="M35.1989 6.94134H31.1953V5.94971H35.1989V6.94134Z" fill="#8DD4E9"/>
<path fill-rule="evenodd" clip-rule="evenodd" d="M26.3101 6.94134H22.3164V5.94971H26.3101V6.94134Z" fill="#8DD4E9"/>
<path fill-rule="evenodd" clip-rule="evenodd" d="M28.2617 35.9569V31.9507H29.2527V35.9569H28.2617Z" fill="#8DD4E9"/>
<path fill-rule="evenodd" clip-rule="evenodd" d="M28.2617 27.0617V23.0654H29.2527V27.0617H28.2617Z" fill="#8DD4E9"/>
<path fill-rule="evenodd" clip-rule="evenodd" d="M35.1989 30.0068H31.1953V29.0151H35.1989V30.0068Z" fill="#8DD4E9"/>
<path fill-rule="evenodd" clip-rule="evenodd" d="M26.3101 30.0068H22.3164V29.0151H26.3101V30.0068Z" fill="#8DD4E9"/>
<path fill-rule="evenodd" clip-rule="evenodd" d="M28.2617 59.0124V55.0161H29.2527V59.0124H28.2617Z" fill="#8DD4E9"/>
<path fill-rule="evenodd" clip-rule="evenodd" d="M28.2617 50.1273V46.1211H29.2527V50.1273H28.2617Z" fill="#8DD4E9"/>
<path fill-rule="evenodd" clip-rule="evenodd" d="M35.1989 53.0624H31.1953V52.0708H35.1989V53.0624Z" fill="#8DD4E9"/>
<path fill-rule="evenodd" clip-rule="evenodd" d="M26.3101 53.0624H22.3164V52.0708H26.3101V53.0624Z" fill="#8DD4E9"/>
<path fill-rule="evenodd" clip-rule="evenodd" d="M28.2617 82.0778V78.0815H29.2527V82.0778H28.2617Z" fill="#8DD4E9"/>
<path fill-rule="evenodd" clip-rule="evenodd" d="M28.2617 73.1828V69.1865H29.2527V73.1828H28.2617Z" fill="#8DD4E9"/>
<path fill-rule="evenodd" clip-rule="evenodd" d="M35.1989 76.1279H31.1953V75.1362H35.1989V76.1279Z" fill="#8DD4E9"/>
<path fill-rule="evenodd" clip-rule="evenodd" d="M26.3101 76.1279H22.3164V75.1362H26.3101V76.1279Z" fill="#8DD4E9"/>
<path fill-rule="evenodd" clip-rule="evenodd" d="M28.2617 105.133V101.137H29.2527V105.133H28.2617Z" fill="#8DD4E9"/>
<path fill-rule="evenodd" clip-rule="evenodd" d="M28.2617 96.2484V92.2422H29.2527V96.2484H28.2617Z" fill="#8DD4E9"/>
<path fill-rule="evenodd" clip-rule="evenodd" d="M35.1989 99.1835H31.1953V98.1919H35.1989V99.1835Z" fill="#8DD4E9"/>
<path fill-rule="evenodd" clip-rule="evenodd" d="M26.3101 99.1835H22.3164V98.1919H26.3101V99.1835Z" fill="#8DD4E9"/>
<path fill-rule="evenodd" clip-rule="evenodd" d="M28.2617 128.199V124.203H29.2527V128.199H28.2617Z" fill="#8DD4E9"/>
<path fill-rule="evenodd" clip-rule="evenodd" d="M28.2617 119.304V115.308H29.2527V119.304H28.2617Z" fill="#8DD4E9"/>
<path fill-rule="evenodd" clip-rule="evenodd" d="M35.1989 122.249H31.1953V121.257H35.1989V122.249Z" fill="#8DD4E9"/>
<path fill-rule="evenodd" clip-rule="evenodd" d="M26.3101 122.249H22.3164V121.257H26.3101V122.249Z" fill="#8DD4E9"/>
<path fill-rule="evenodd" clip-rule="evenodd" d="M28.2617 151.264V147.258H29.2527V151.264H28.2617Z" fill="#8DD4E9"/>
<path fill-rule="evenodd" clip-rule="evenodd" d="M28.2617 142.369V138.373H29.2527V142.369H28.2617Z" fill="#8DD4E9"/>
<path fill-rule="evenodd" clip-rule="evenodd" d="M35.1989 145.314H31.1953V144.323H35.1989V145.314Z" fill="#8DD4E9"/>
<path fill-rule="evenodd" clip-rule="evenodd" d="M26.3101 145.314H22.3164V144.323H26.3101V145.314Z" fill="#8DD4E9"/>
<path fill-rule="evenodd" clip-rule="evenodd" d="M28.2617 174.32V170.323H29.2527V174.32H28.2617Z" fill="#8DD4E9"/>
<path fill-rule="evenodd" clip-rule="evenodd" d="M28.2617 165.434V161.428H29.2527V165.434H28.2617Z" fill="#8DD4E9"/>
<path fill-rule="evenodd" clip-rule="evenodd" d="M35.1989 168.37H31.1953V167.378H35.1989V168.37Z" fill="#8DD4E9"/>
<path fill-rule="evenodd" clip-rule="evenodd" d="M26.3101 168.37H22.3164V167.378H26.3101V168.37Z" fill="#8DD4E9"/>
<path fill-rule="evenodd" clip-rule="evenodd" d="M28.2617 197.385V193.389H29.2527V197.385H28.2617Z" fill="#8DD4E9"/>
<path fill-rule="evenodd" clip-rule="evenodd" d="M28.2617 188.49V184.494H29.2527V188.49H28.2617Z" fill="#8DD4E9"/>
<path fill-rule="evenodd" clip-rule="evenodd" d="M35.1989 191.435H31.1953V190.444H35.1989V191.435Z" fill="#8DD4E9"/>
<path fill-rule="evenodd" clip-rule="evenodd" d="M26.3101 191.435H22.3164V190.444H26.3101V191.435Z" fill="#8DD4E9"/>
<path fill-rule="evenodd" clip-rule="evenodd" d="M28.2617 220.451V216.444H29.2527V220.451H28.2617Z" fill="#8DD4E9"/>
<path fill-rule="evenodd" clip-rule="evenodd" d="M28.2617 211.556V207.56H29.2527V211.556H28.2617Z" fill="#8DD4E9"/>
<path fill-rule="evenodd" clip-rule="evenodd" d="M35.1989 214.501H31.1953V213.509H35.1989V214.501Z" fill="#8DD4E9"/>
<path fill-rule="evenodd" clip-rule="evenodd" d="M26.3101 214.501H22.3164V213.509H26.3101V214.501Z" fill="#8DD4E9"/>
<path fill-rule="evenodd" clip-rule="evenodd" d="M50.4199 12.8913V8.89502H51.4109V12.8913H50.4199Z" fill="#8DD4E9"/>
<path fill-rule="evenodd" clip-rule="evenodd" d="M50.4199 3.99629V0H51.4109V3.99629H50.4199Z" fill="#8DD4E9"/>
<path fill-rule="evenodd" clip-rule="evenodd" d="M57.3569 6.94134H53.3633V5.94971H57.3569V6.94134Z" fill="#8DD4E9"/>
<path fill-rule="evenodd" clip-rule="evenodd" d="M48.4782 6.94134H44.4746V5.94971H48.4782V6.94134Z" fill="#8DD4E9"/>
<path fill-rule="evenodd" clip-rule="evenodd" d="M50.4199 35.9569V31.9507H51.4109V35.9569H50.4199Z" fill="#8DD4E9"/>
<path fill-rule="evenodd" clip-rule="evenodd" d="M50.4199 27.0617V23.0654H51.4109V27.0617H50.4199Z" fill="#8DD4E9"/>
<path fill-rule="evenodd" clip-rule="evenodd" d="M57.3569 30.0068H53.3633V29.0151H57.3569V30.0068Z" fill="#8DD4E9"/>
<path fill-rule="evenodd" clip-rule="evenodd" d="M48.4782 30.0068H44.4746V29.0151H48.4782V30.0068Z" fill="#8DD4E9"/>
<path fill-rule="evenodd" clip-rule="evenodd" d="M50.4199 59.0124V55.0161H51.4109V59.0124H50.4199Z" fill="#8DD4E9"/>
<path fill-rule="evenodd" clip-rule="evenodd" d="M50.4199 50.1273V46.1211H51.4109V50.1273H50.4199Z" fill="#8DD4E9"/>
<path fill-rule="evenodd" clip-rule="evenodd" d="M57.3569 53.0624H53.3633V52.0708H57.3569V53.0624Z" fill="#8DD4E9"/>
<path fill-rule="evenodd" clip-rule="evenodd" d="M48.4782 53.0624H44.4746V52.0708H48.4782V53.0624Z" fill="#8DD4E9"/>
<path fill-rule="evenodd" clip-rule="evenodd" d="M50.4199 82.0778V78.0815H51.4109V82.0778H50.4199Z" fill="#8DD4E9"/>
<path fill-rule="evenodd" clip-rule="evenodd" d="M50.4199 73.1828V69.1865H51.4109V73.1828H50.4199Z" fill="#8DD4E9"/>
<path fill-rule="evenodd" clip-rule="evenodd" d="M57.3569 76.1279H53.3633V75.1362H57.3569V76.1279Z" fill="#8DD4E9"/>
<path fill-rule="evenodd" clip-rule="evenodd" d="M48.4782 76.1279H44.4746V75.1362H48.4782V76.1279Z" fill="#8DD4E9"/>
<path fill-rule="evenodd" clip-rule="evenodd" d="M50.4199 105.133V101.137H51.4109V105.133H50.4199Z" fill="#8DD4E9"/>
<path fill-rule="evenodd" clip-rule="evenodd" d="M50.4199 96.2484V92.2422H51.4109V96.2484H50.4199Z" fill="#8DD4E9"/>
<path fill-rule="evenodd" clip-rule="evenodd" d="M57.3569 99.1835H53.3633V98.1919H57.3569V99.1835Z" fill="#8DD4E9"/>
<path fill-rule="evenodd" clip-rule="evenodd" d="M48.4782 99.1835H44.4746V98.1919H48.4782V99.1835Z" fill="#8DD4E9"/>
<path fill-rule="evenodd" clip-rule="evenodd" d="M50.4199 128.199V124.203H51.4109V128.199H50.4199Z" fill="#8DD4E9"/>
<path fill-rule="evenodd" clip-rule="evenodd" d="M50.4199 119.304V115.308H51.4109V119.304H50.4199Z" fill="#8DD4E9"/>
<path fill-rule="evenodd" clip-rule="evenodd" d="M57.3569 122.249H53.3633V121.257H57.3569V122.249Z" fill="#8DD4E9"/>
<path fill-rule="evenodd" clip-rule="evenodd" d="M48.4782 122.249H44.4746V121.257H48.4782V122.249Z" fill="#8DD4E9"/>
<path fill-rule="evenodd" clip-rule="evenodd" d="M50.4199 151.264V147.258H51.4109V151.264H50.4199Z" fill="#8DD4E9"/>
<path fill-rule="evenodd" clip-rule="evenodd" d="M50.4199 142.369V138.373H51.4109V142.369H50.4199Z" fill="#8DD4E9"/>
<path fill-rule="evenodd" clip-rule="evenodd" d="M57.3569 145.314H53.3633V144.323H57.3569V145.314Z" fill="#8DD4E9"/>
<path fill-rule="evenodd" clip-rule="evenodd" d="M48.4782 145.314H44.4746V144.323H48.4782V145.314Z" fill="#8DD4E9"/>
<path fill-rule="evenodd" clip-rule="evenodd" d="M50.4199 174.32V170.323H51.4109V174.32H50.4199Z" fill="#8DD4E9"/>
<path fill-rule="evenodd" clip-rule="evenodd" d="M50.4199 165.434V161.428H51.4109V165.434H50.4199Z" fill="#8DD4E9"/>
<path fill-rule="evenodd" clip-rule="evenodd" d="M57.3569 168.37H53.3633V167.378H57.3569V168.37Z" fill="#8DD4E9"/>
<path fill-rule="evenodd" clip-rule="evenodd" d="M48.4782 168.37H44.4746V167.378H48.4782V168.37Z" fill="#8DD4E9"/>
<path fill-rule="evenodd" clip-rule="evenodd" d="M50.4199 197.385V193.389H51.4109V197.385H50.4199Z" fill="#8DD4E9"/>
<path fill-rule="evenodd" clip-rule="evenodd" d="M50.4199 188.49V184.494H51.4109V188.49H50.4199Z" fill="#8DD4E9"/>
<path fill-rule="evenodd" clip-rule="evenodd" d="M57.3569 191.435H53.3633V190.444H57.3569V191.435Z" fill="#8DD4E9"/>
<path fill-rule="evenodd" clip-rule="evenodd" d="M48.4782 191.435H44.4746V190.444H48.4782V191.435Z" fill="#8DD4E9"/>
<path fill-rule="evenodd" clip-rule="evenodd" d="M50.4199 220.451V216.444H51.4109V220.451H50.4199Z" fill="#8DD4E9"/>
<path fill-rule="evenodd" clip-rule="evenodd" d="M50.4199 211.556V207.56H51.4109V211.556H50.4199Z" fill="#8DD4E9"/>
<path fill-rule="evenodd" clip-rule="evenodd" d="M57.3569 214.501H53.3633V213.509H57.3569V214.501Z" fill="#8DD4E9"/>
<path fill-rule="evenodd" clip-rule="evenodd" d="M48.4782 214.501H44.4746V213.509H48.4782V214.501Z" fill="#8DD4E9"/>
<path fill-rule="evenodd" clip-rule="evenodd" d="M72.5879 12.8913V8.89502H73.5789V12.8913H72.5879Z" fill="#8DD4E9"/>
<path fill-rule="evenodd" clip-rule="evenodd" d="M72.5879 3.99629V0H73.5789V3.99629H72.5879Z" fill="#8DD4E9"/>
<path fill-rule="evenodd" clip-rule="evenodd" d="M79.5249 6.94134H75.5312V5.94971H79.5249V6.94134Z" fill="#8DD4E9"/>
<path fill-rule="evenodd" clip-rule="evenodd" d="M70.6363 6.94134H66.6426V5.94971H70.6363V6.94134Z" fill="#8DD4E9"/>
<path fill-rule="evenodd" clip-rule="evenodd" d="M72.5879 35.9569V31.9507H73.5789V35.9569H72.5879Z" fill="#8DD4E9"/>
<path fill-rule="evenodd" clip-rule="evenodd" d="M72.5879 27.0617V23.0654H73.5789V27.0617H72.5879Z" fill="#8DD4E9"/>
<path fill-rule="evenodd" clip-rule="evenodd" d="M79.5249 30.0068H75.5312V29.0151H79.5249V30.0068Z" fill="#8DD4E9"/>
<path fill-rule="evenodd" clip-rule="evenodd" d="M70.6363 30.0068H66.6426V29.0151H70.6363V30.0068Z" fill="#8DD4E9"/>
<path fill-rule="evenodd" clip-rule="evenodd" d="M72.5879 59.0124V55.0161H73.5789V59.0124H72.5879Z" fill="#8DD4E9"/>
<path fill-rule="evenodd" clip-rule="evenodd" d="M72.5879 50.1273V46.1211H73.5789V50.1273H72.5879Z" fill="#8DD4E9"/>
<path fill-rule="evenodd" clip-rule="evenodd" d="M79.5249 53.0624H75.5312V52.0708H79.5249V53.0624Z" fill="#8DD4E9"/>
<path fill-rule="evenodd" clip-rule="evenodd" d="M70.6363 53.0624H66.6426V52.0708H70.6363V53.0624Z" fill="#8DD4E9"/>
<path fill-rule="evenodd" clip-rule="evenodd" d="M72.5879 82.0778V78.0815H73.5789V82.0778H72.5879Z" fill="#8DD4E9"/>
<path fill-rule="evenodd" clip-rule="evenodd" d="M72.5879 73.1828V69.1865H73.5789V73.1828H72.5879Z" fill="#8DD4E9"/>
<path fill-rule="evenodd" clip-rule="evenodd" d="M79.5249 76.1279H75.5312V75.1362H79.5249V76.1279Z" fill="#8DD4E9"/>
<path fill-rule="evenodd" clip-rule="evenodd" d="M70.6363 76.1279H66.6426V75.1362H70.6363V76.1279Z" fill="#8DD4E9"/>
<path fill-rule="evenodd" clip-rule="evenodd" d="M72.5879 105.133V101.137H73.5789V105.133H72.5879Z" fill="#8DD4E9"/>
<path fill-rule="evenodd" clip-rule="evenodd" d="M72.5879 96.2484V92.2422H73.5789V96.2484H72.5879Z" fill="#8DD4E9"/>
<path fill-rule="evenodd" clip-rule="evenodd" d="M79.5249 99.1835H75.5312V98.1919H79.5249V99.1835Z" fill="#8DD4E9"/>
<path fill-rule="evenodd" clip-rule="evenodd" d="M70.6363 99.1835H66.6426V98.1919H70.6363V99.1835Z" fill="#8DD4E9"/>
<path fill-rule="evenodd" clip-rule="evenodd" d="M72.5879 128.199V124.203H73.5789V128.199H72.5879Z" fill="#8DD4E9"/>
<path fill-rule="evenodd" clip-rule="evenodd" d="M72.5879 119.304V115.308H73.5789V119.304H72.5879Z" fill="#8DD4E9"/>
<path fill-rule="evenodd" clip-rule="evenodd" d="M79.5249 122.249H75.5312V121.257H79.5249V122.249Z" fill="#8DD4E9"/>
<path fill-rule="evenodd" clip-rule="evenodd" d="M70.6363 122.249H66.6426V121.257H70.6363V122.249Z" fill="#8DD4E9"/>
<path fill-rule="evenodd" clip-rule="evenodd" d="M72.5879 151.264V147.258H73.5789V151.264H72.5879Z" fill="#8DD4E9"/>
<path fill-rule="evenodd" clip-rule="evenodd" d="M72.5879 142.369V138.373H73.5789V142.369H72.5879Z" fill="#8DD4E9"/>
<path fill-rule="evenodd" clip-rule="evenodd" d="M79.5249 145.314H75.5312V144.323H79.5249V145.314Z" fill="#8DD4E9"/>
<path fill-rule="evenodd" clip-rule="evenodd" d="M70.6363 145.314H66.6426V144.323H70.6363V145.314Z" fill="#8DD4E9"/>
<path fill-rule="evenodd" clip-rule="evenodd" d="M72.5879 174.32V170.323H73.5789V174.32H72.5879Z" fill="#8DD4E9"/>
<path fill-rule="evenodd" clip-rule="evenodd" d="M72.5879 165.434V161.428H73.5789V165.434H72.5879Z" fill="#8DD4E9"/>
<path fill-rule="evenodd" clip-rule="evenodd" d="M79.5249 168.37H75.5312V167.378H79.5249V168.37Z" fill="#8DD4E9"/>
<path fill-rule="evenodd" clip-rule="evenodd" d="M70.6363 168.37H66.6426V167.378H70.6363V168.37Z" fill="#8DD4E9"/>
<path fill-rule="evenodd" clip-rule="evenodd" d="M72.5879 197.385V193.389H73.5789V197.385H72.5879Z" fill="#8DD4E9"/>
<path fill-rule="evenodd" clip-rule="evenodd" d="M72.5879 188.49V184.494H73.5789V188.49H72.5879Z" fill="#8DD4E9"/>
<path fill-rule="evenodd" clip-rule="evenodd" d="M79.5249 191.435H75.5312V190.444H79.5249V191.435Z" fill="#8DD4E9"/>
<path fill-rule="evenodd" clip-rule="evenodd" d="M70.6363 191.435H66.6426V190.444H70.6363V191.435Z" fill="#8DD4E9"/>
<path fill-rule="evenodd" clip-rule="evenodd" d="M72.5879 220.451V216.444H73.5789V220.451H72.5879Z" fill="#8DD4E9"/>
<path fill-rule="evenodd" clip-rule="evenodd" d="M72.5879 211.556V207.56H73.5789V211.556H72.5879Z" fill="#8DD4E9"/>
<path fill-rule="evenodd" clip-rule="evenodd" d="M79.5249 214.501H75.5312V213.509H79.5249V214.501Z" fill="#8DD4E9"/>
<path fill-rule="evenodd" clip-rule="evenodd" d="M70.6363 214.501H66.6426V213.509H70.6363V214.501Z" fill="#8DD4E9"/>
<path fill-rule="evenodd" clip-rule="evenodd" d="M94.7578 12.8913V8.89502H95.7488V12.8913H94.7578Z" fill="#8DD4E9"/>
<path fill-rule="evenodd" clip-rule="evenodd" d="M94.7578 3.99629V0H95.7488V3.99629H94.7578Z" fill="#8DD4E9"/>
<path fill-rule="evenodd" clip-rule="evenodd" d="M101.693 6.94134H97.6895V5.94971H101.693V6.94134Z" fill="#8DD4E9"/>
<path fill-rule="evenodd" clip-rule="evenodd" d="M92.8042 6.94134H88.8105V5.94971H92.8042V6.94134Z" fill="#8DD4E9"/>
<path fill-rule="evenodd" clip-rule="evenodd" d="M94.7578 35.9569V31.9507H95.7488V35.9569H94.7578Z" fill="#8DD4E9"/>
<path fill-rule="evenodd" clip-rule="evenodd" d="M94.7578 27.0617V23.0654H95.7488V27.0617H94.7578Z" fill="#8DD4E9"/>
<path fill-rule="evenodd" clip-rule="evenodd" d="M101.693 30.0068H97.6895V29.0151H101.693V30.0068Z" fill="#8DD4E9"/>
<path fill-rule="evenodd" clip-rule="evenodd" d="M92.8042 30.0068H88.8105V29.0151H92.8042V30.0068Z" fill="#8DD4E9"/>
<path fill-rule="evenodd" clip-rule="evenodd" d="M94.7578 59.0124V55.0161H95.7488V59.0124H94.7578Z" fill="#8DD4E9"/>
<path fill-rule="evenodd" clip-rule="evenodd" d="M94.7578 50.1273V46.1211H95.7488V50.1273H94.7578Z" fill="#8DD4E9"/>
<path fill-rule="evenodd" clip-rule="evenodd" d="M101.693 53.0624H97.6895V52.0708H101.693V53.0624Z" fill="#8DD4E9"/>
<path fill-rule="evenodd" clip-rule="evenodd" d="M92.8042 53.0624H88.8105V52.0708H92.8042V53.0624Z" fill="#8DD4E9"/>
<path fill-rule="evenodd" clip-rule="evenodd" d="M94.7578 82.0778V78.0815H95.7488V82.0778H94.7578Z" fill="#8DD4E9"/>
<path fill-rule="evenodd" clip-rule="evenodd" d="M94.7578 73.1828V69.1865H95.7488V73.1828H94.7578Z" fill="#8DD4E9"/>
<path fill-rule="evenodd" clip-rule="evenodd" d="M101.693 76.1279H97.6895V75.1362H101.693V76.1279Z" fill="#8DD4E9"/>
<path fill-rule="evenodd" clip-rule="evenodd" d="M92.8042 76.1279H88.8105V75.1362H92.8042V76.1279Z" fill="#8DD4E9"/>
<path fill-rule="evenodd" clip-rule="evenodd" d="M94.7578 105.133V101.137H95.7488V105.133H94.7578Z" fill="#8DD4E9"/>
<path fill-rule="evenodd" clip-rule="evenodd" d="M94.7578 96.2484V92.2422H95.7488V96.2484H94.7578Z" fill="#8DD4E9"/>
<path fill-rule="evenodd" clip-rule="evenodd" d="M101.693 99.1835H97.6895V98.1919H101.693V99.1835Z" fill="#8DD4E9"/>
<path fill-rule="evenodd" clip-rule="evenodd" d="M92.8042 99.1835H88.8105V98.1919H92.8042V99.1835Z" fill="#8DD4E9"/>
<path fill-rule="evenodd" clip-rule="evenodd" d="M94.7578 128.199V124.203H95.7488V128.199H94.7578Z" fill="#8DD4E9"/>
<path fill-rule="evenodd" clip-rule="evenodd" d="M94.7578 119.304V115.308H95.7488V119.304H94.7578Z" fill="#8DD4E9"/>
<path fill-rule="evenodd" clip-rule="evenodd" d="M101.693 122.249H97.6895V121.257H101.693V122.249Z" fill="#8DD4E9"/>
<path fill-rule="evenodd" clip-rule="evenodd" d="M92.8042 122.249H88.8105V121.257H92.8042V122.249Z" fill="#8DD4E9"/>
<path fill-rule="evenodd" clip-rule="evenodd" d="M94.7578 151.264V147.258H95.7488V151.264H94.7578Z" fill="#8DD4E9"/>
<path fill-rule="evenodd" clip-rule="evenodd" d="M94.7578 142.369V138.373H95.7488V142.369H94.7578Z" fill="#8DD4E9"/>
<path fill-rule="evenodd" clip-rule="evenodd" d="M101.693 145.314H97.6895V144.323H101.693V145.314Z" fill="#8DD4E9"/>
<path fill-rule="evenodd" clip-rule="evenodd" d="M92.8042 145.314H88.8105V144.323H92.8042V145.314Z" fill="#8DD4E9"/>
<path fill-rule="evenodd" clip-rule="evenodd" d="M94.7578 174.32V170.323H95.7488V174.32H94.7578Z" fill="#8DD4E9"/>
<path fill-rule="evenodd" clip-rule="evenodd" d="M94.7578 165.434V161.428H95.7488V165.434H94.7578Z" fill="#8DD4E9"/>
<path fill-rule="evenodd" clip-rule="evenodd" d="M101.693 168.37H97.6895V167.378H101.693V168.37Z" fill="#8DD4E9"/>
<path fill-rule="evenodd" clip-rule="evenodd" d="M92.8042 168.37H88.8105V167.378H92.8042V168.37Z" fill="#8DD4E9"/>
<path fill-rule="evenodd" clip-rule="evenodd" d="M94.7578 197.385V193.389H95.7488V197.385H94.7578Z" fill="#8DD4E9"/>
<path fill-rule="evenodd" clip-rule="evenodd" d="M94.7578 188.49V184.494H95.7488V188.49H94.7578Z" fill="#8DD4E9"/>
<path fill-rule="evenodd" clip-rule="evenodd" d="M101.693 191.435H97.6895V190.444H101.693V191.435Z" fill="#8DD4E9"/>
<path fill-rule="evenodd" clip-rule="evenodd" d="M92.8042 191.435H88.8105V190.444H92.8042V191.435Z" fill="#8DD4E9"/>
<path fill-rule="evenodd" clip-rule="evenodd" d="M94.7578 220.451V216.444H95.7488V220.451H94.7578Z" fill="#8DD4E9"/>
<path fill-rule="evenodd" clip-rule="evenodd" d="M94.7578 211.556V207.56H95.7488V211.556H94.7578Z" fill="#8DD4E9"/>
<path fill-rule="evenodd" clip-rule="evenodd" d="M101.693 214.501H97.6895V213.509H101.693V214.501Z" fill="#8DD4E9"/>
<path fill-rule="evenodd" clip-rule="evenodd" d="M92.8042 214.501H88.8105V213.509H92.8042V214.501Z" fill="#8DD4E9"/>
<path fill-rule="evenodd" clip-rule="evenodd" d="M116.916 12.8913V8.89502H117.907V12.8913H116.916Z" fill="#8DD4E9"/>
<path fill-rule="evenodd" clip-rule="evenodd" d="M116.916 3.99629V0H117.907V3.99629H116.916Z" fill="#8DD4E9"/>
<path fill-rule="evenodd" clip-rule="evenodd" d="M123.853 6.94134H119.859V5.94971H123.853V6.94134Z" fill="#8DD4E9"/>
<path fill-rule="evenodd" clip-rule="evenodd" d="M114.972 6.94134H110.969V5.94971H114.972V6.94134Z" fill="#8DD4E9"/>
<path fill-rule="evenodd" clip-rule="evenodd" d="M116.916 35.9569V31.9507H117.907V35.9569H116.916Z" fill="#8DD4E9"/>
<path fill-rule="evenodd" clip-rule="evenodd" d="M116.916 27.0617V23.0654H117.907V27.0617H116.916Z" fill="#8DD4E9"/>
<path fill-rule="evenodd" clip-rule="evenodd" d="M123.853 30.0068H119.859V29.0151H123.853V30.0068Z" fill="#8DD4E9"/>
<path fill-rule="evenodd" clip-rule="evenodd" d="M114.972 30.0068H110.969V29.0151H114.972V30.0068Z" fill="#8DD4E9"/>
<path fill-rule="evenodd" clip-rule="evenodd" d="M116.916 59.0124V55.0161H117.907V59.0124H116.916Z" fill="#8DD4E9"/>
<path fill-rule="evenodd" clip-rule="evenodd" d="M116.916 50.1273V46.1211H117.907V50.1273H116.916Z" fill="#8DD4E9"/>
<path fill-rule="evenodd" clip-rule="evenodd" d="M123.853 53.0624H119.859V52.0708H123.853V53.0624Z" fill="#8DD4E9"/>
<path fill-rule="evenodd" clip-rule="evenodd" d="M114.972 53.0624H110.969V52.0708H114.972V53.0624Z" fill="#8DD4E9"/>
<path fill-rule="evenodd" clip-rule="evenodd" d="M116.916 82.0778V78.0815H117.907V82.0778H116.916Z" fill="#8DD4E9"/>
<path fill-rule="evenodd" clip-rule="evenodd" d="M116.916 73.1828V69.1865H117.907V73.1828H116.916Z" fill="#8DD4E9"/>
<path fill-rule="evenodd" clip-rule="evenodd" d="M123.853 76.1279H119.859V75.1362H123.853V76.1279Z" fill="#8DD4E9"/>
<path fill-rule="evenodd" clip-rule="evenodd" d="M114.972 76.1279H110.969V75.1362H114.972V76.1279Z" fill="#8DD4E9"/>
<path fill-rule="evenodd" clip-rule="evenodd" d="M116.916 105.133V101.137H117.907V105.133H116.916Z" fill="#8DD4E9"/>
<path fill-rule="evenodd" clip-rule="evenodd" d="M116.916 96.2484V92.2422H117.907V96.2484H116.916Z" fill="#8DD4E9"/>
<path fill-rule="evenodd" clip-rule="evenodd" d="M123.853 99.1835H119.859V98.1919H123.853V99.1835Z" fill="#8DD4E9"/>
<path fill-rule="evenodd" clip-rule="evenodd" d="M114.972 99.1835H110.969V98.1919H114.972V99.1835Z" fill="#8DD4E9"/>
<path fill-rule="evenodd" clip-rule="evenodd" d="M116.916 128.199V124.203H117.907V128.199H116.916Z" fill="#8DD4E9"/>
<path fill-rule="evenodd" clip-rule="evenodd" d="M116.916 119.304V115.308H117.907V119.304H116.916Z" fill="#8DD4E9"/>
<path fill-rule="evenodd" clip-rule="evenodd" d="M123.853 122.249H119.859V121.257H123.853V122.249Z" fill="#8DD4E9"/>
<path fill-rule="evenodd" clip-rule="evenodd" d="M114.972 122.249H110.969V121.257H114.972V122.249Z" fill="#8DD4E9"/>
<path fill-rule="evenodd" clip-rule="evenodd" d="M116.916 151.264V147.258H117.907V151.264H116.916Z" fill="#8DD4E9"/>
<path fill-rule="evenodd" clip-rule="evenodd" d="M116.916 142.369V138.373H117.907V142.369H116.916Z" fill="#8DD4E9"/>
<path fill-rule="evenodd" clip-rule="evenodd" d="M123.853 145.314H119.859V144.323H123.853V145.314Z" fill="#8DD4E9"/>
<path fill-rule="evenodd" clip-rule="evenodd" d="M114.972 145.314H110.969V144.323H114.972V145.314Z" fill="#8DD4E9"/>
<path fill-rule="evenodd" clip-rule="evenodd" d="M116.916 174.32V170.323H117.907V174.32H116.916Z" fill="#8DD4E9"/>
<path fill-rule="evenodd" clip-rule="evenodd" d="M116.916 165.434V161.428H117.907V165.434H116.916Z" fill="#8DD4E9"/>
<path fill-rule="evenodd" clip-rule="evenodd" d="M123.853 168.37H119.859V167.378H123.853V168.37Z" fill="#8DD4E9"/>
<path fill-rule="evenodd" clip-rule="evenodd" d="M114.972 168.37H110.969V167.378H114.972V168.37Z" fill="#8DD4E9"/>
<path fill-rule="evenodd" clip-rule="evenodd" d="M116.916 197.385V193.389H117.907V197.385H116.916Z" fill="#8DD4E9"/>
<path fill-rule="evenodd" clip-rule="evenodd" d="M116.916 188.49V184.494H117.907V188.49H116.916Z" fill="#8DD4E9"/>
<path fill-rule="evenodd" clip-rule="evenodd" d="M123.853 191.435H119.859V190.444H123.853V191.435Z" fill="#8DD4E9"/>
<path fill-rule="evenodd" clip-rule="evenodd" d="M114.972 191.435H110.969V190.444H114.972V191.435Z" fill="#8DD4E9"/>
<path fill-rule="evenodd" clip-rule="evenodd" d="M116.916 220.451V216.444H117.907V220.451H116.916Z" fill="#8DD4E9"/>
<path fill-rule="evenodd" clip-rule="evenodd" d="M116.916 211.556V207.56H117.907V211.556H116.916Z" fill="#8DD4E9"/>
<path fill-rule="evenodd" clip-rule="evenodd" d="M123.853 214.501H119.859V213.509H123.853V214.501Z" fill="#8DD4E9"/>
<path fill-rule="evenodd" clip-rule="evenodd" d="M114.972 214.501H110.969V213.509H114.972V214.501Z" fill="#8DD4E9"/>
<path fill-rule="evenodd" clip-rule="evenodd" d="M139.084 12.8913V8.89502H140.075V12.8913H139.084Z" fill="#8DD4E9"/>
<path fill-rule="evenodd" clip-rule="evenodd" d="M139.084 3.99629V0H140.075V3.99629H139.084Z" fill="#8DD4E9"/>
<path fill-rule="evenodd" clip-rule="evenodd" d="M146.021 6.94134H142.027V5.94971H146.021V6.94134Z" fill="#8DD4E9"/>
<path fill-rule="evenodd" clip-rule="evenodd" d="M137.13 6.94134H133.137V5.94971H137.13V6.94134Z" fill="#8DD4E9"/>
<path fill-rule="evenodd" clip-rule="evenodd" d="M139.084 35.9569V31.9507H140.075V35.9569H139.084Z" fill="#8DD4E9"/>
<path fill-rule="evenodd" clip-rule="evenodd" d="M139.084 27.0617V23.0654H140.075V27.0617H139.084Z" fill="#8DD4E9"/>
<path fill-rule="evenodd" clip-rule="evenodd" d="M146.021 30.0068H142.027V29.0151H146.021V30.0068Z" fill="#8DD4E9"/>
<path fill-rule="evenodd" clip-rule="evenodd" d="M137.13 30.0068H133.137V29.0151H137.13V30.0068Z" fill="#8DD4E9"/>
<path fill-rule="evenodd" clip-rule="evenodd" d="M139.084 59.0124V55.0161H140.075V59.0124H139.084Z" fill="#8DD4E9"/>
<path fill-rule="evenodd" clip-rule="evenodd" d="M139.084 50.1273V46.1211H140.075V50.1273H139.084Z" fill="#8DD4E9"/>
<path fill-rule="evenodd" clip-rule="evenodd" d="M146.021 53.0624H142.027V52.0708H146.021V53.0624Z" fill="#8DD4E9"/>
<path fill-rule="evenodd" clip-rule="evenodd" d="M137.13 53.0624H133.137V52.0708H137.13V53.0624Z" fill="#8DD4E9"/>
<path fill-rule="evenodd" clip-rule="evenodd" d="M139.084 82.0778V78.0815H140.075V82.0778H139.084Z" fill="#8DD4E9"/>
<path fill-rule="evenodd" clip-rule="evenodd" d="M139.084 73.1828V69.1865H140.075V73.1828H139.084Z" fill="#8DD4E9"/>
<path fill-rule="evenodd" clip-rule="evenodd" d="M146.021 76.1279H142.027V75.1362H146.021V76.1279Z" fill="#8DD4E9"/>
<path fill-rule="evenodd" clip-rule="evenodd" d="M137.13 76.1279H133.137V75.1362H137.13V76.1279Z" fill="#8DD4E9"/>
<path fill-rule="evenodd" clip-rule="evenodd" d="M139.084 105.133V101.137H140.075V105.133H139.084Z" fill="#8DD4E9"/>
<path fill-rule="evenodd" clip-rule="evenodd" d="M139.084 96.2484V92.2422H140.075V96.2484H139.084Z" fill="#8DD4E9"/>
<path fill-rule="evenodd" clip-rule="evenodd" d="M146.021 99.1835H142.027V98.1919H146.021V99.1835Z" fill="#8DD4E9"/>
<path fill-rule="evenodd" clip-rule="evenodd" d="M137.13 99.1835H133.137V98.1919H137.13V99.1835Z" fill="#8DD4E9"/>
<path fill-rule="evenodd" clip-rule="evenodd" d="M139.084 128.199V124.203H140.075V128.199H139.084Z" fill="#8DD4E9"/>
<path fill-rule="evenodd" clip-rule="evenodd" d="M139.084 119.304V115.308H140.075V119.304H139.084Z" fill="#8DD4E9"/>
<path fill-rule="evenodd" clip-rule="evenodd" d="M146.021 122.249H142.027V121.257H146.021V122.249Z" fill="#8DD4E9"/>
<path fill-rule="evenodd" clip-rule="evenodd" d="M137.13 122.249H133.137V121.257H137.13V122.249Z" fill="#8DD4E9"/>
<path fill-rule="evenodd" clip-rule="evenodd" d="M139.084 151.264V147.258H140.075V151.264H139.084Z" fill="#8DD4E9"/>
<path fill-rule="evenodd" clip-rule="evenodd" d="M139.084 142.369V138.373H140.075V142.369H139.084Z" fill="#8DD4E9"/>
<path fill-rule="evenodd" clip-rule="evenodd" d="M146.021 145.314H142.027V144.323H146.021V145.314Z" fill="#8DD4E9"/>
<path fill-rule="evenodd" clip-rule="evenodd" d="M137.13 145.314H133.137V144.323H137.13V145.314Z" fill="#8DD4E9"/>
<path fill-rule="evenodd" clip-rule="evenodd" d="M139.084 174.32V170.323H140.075V174.32H139.084Z" fill="#8DD4E9"/>
<path fill-rule="evenodd" clip-rule="evenodd" d="M139.084 165.434V161.428H140.075V165.434H139.084Z" fill="#8DD4E9"/>
<path fill-rule="evenodd" clip-rule="evenodd" d="M146.021 168.37H142.027V167.378H146.021V168.37Z" fill="#8DD4E9"/>
<path fill-rule="evenodd" clip-rule="evenodd" d="M137.13 168.37H133.137V167.378H137.13V168.37Z" fill="#8DD4E9"/>
<path fill-rule="evenodd" clip-rule="evenodd" d="M139.084 197.385V193.389H140.075V197.385H139.084Z" fill="#8DD4E9"/>
<path fill-rule="evenodd" clip-rule="evenodd" d="M139.084 188.49V184.494H140.075V188.49H139.084Z" fill="#8DD4E9"/>
<path fill-rule="evenodd" clip-rule="evenodd" d="M146.021 191.435H142.027V190.444H146.021V191.435Z" fill="#8DD4E9"/>
<path fill-rule="evenodd" clip-rule="evenodd" d="M137.13 191.435H133.137V190.444H137.13V191.435Z" fill="#8DD4E9"/>
<path fill-rule="evenodd" clip-rule="evenodd" d="M139.084 220.451V216.444H140.075V220.451H139.084Z" fill="#8DD4E9"/>
<path fill-rule="evenodd" clip-rule="evenodd" d="M139.084 211.556V207.56H140.075V211.556H139.084Z" fill="#8DD4E9"/>
<path fill-rule="evenodd" clip-rule="evenodd" d="M146.021 214.501H142.027V213.509H146.021V214.501Z" fill="#8DD4E9"/>
<path fill-rule="evenodd" clip-rule="evenodd" d="M137.13 214.501H133.137V213.509H137.13V214.501Z" fill="#8DD4E9"/>
<path fill-rule="evenodd" clip-rule="evenodd" d="M161.252 12.8913V8.89502H162.243V12.8913H161.252Z" fill="#8DD4E9"/>
<path fill-rule="evenodd" clip-rule="evenodd" d="M161.252 3.99629V0H162.243V3.99629H161.252Z" fill="#8DD4E9"/>
<path fill-rule="evenodd" clip-rule="evenodd" d="M168.189 6.94134H164.186V5.94971H168.189V6.94134Z" fill="#8DD4E9"/>
<path fill-rule="evenodd" clip-rule="evenodd" d="M159.3 6.94134H155.307V5.94971H159.3V6.94134Z" fill="#8DD4E9"/>
<path fill-rule="evenodd" clip-rule="evenodd" d="M161.252 35.9569V31.9507H162.243V35.9569H161.252Z" fill="#8DD4E9"/>
<path fill-rule="evenodd" clip-rule="evenodd" d="M161.252 27.0617V23.0654H162.243V27.0617H161.252Z" fill="#8DD4E9"/>
<path fill-rule="evenodd" clip-rule="evenodd" d="M168.189 30.0068H164.186V29.0151H168.189V30.0068Z" fill="#8DD4E9"/>
<path fill-rule="evenodd" clip-rule="evenodd" d="M159.3 30.0068H155.307V29.0151H159.3V30.0068Z" fill="#8DD4E9"/>
<path fill-rule="evenodd" clip-rule="evenodd" d="M161.252 59.0124V55.0161H162.243V59.0124H161.252Z" fill="#8DD4E9"/>
<path fill-rule="evenodd" clip-rule="evenodd" d="M161.252 50.1273V46.1211H162.243V50.1273H161.252Z" fill="#8DD4E9"/>
<path fill-rule="evenodd" clip-rule="evenodd" d="M168.189 53.0624H164.186V52.0708H168.189V53.0624Z" fill="#8DD4E9"/>
<path fill-rule="evenodd" clip-rule="evenodd" d="M159.3 53.0624H155.307V52.0708H159.3V53.0624Z" fill="#8DD4E9"/>
<path fill-rule="evenodd" clip-rule="evenodd" d="M161.252 82.0778V78.0815H162.243V82.0778H161.252Z" fill="#8DD4E9"/>
<path fill-rule="evenodd" clip-rule="evenodd" d="M161.252 73.1828V69.1865H162.243V73.1828H161.252Z" fill="#8DD4E9"/>
<path fill-rule="evenodd" clip-rule="evenodd" d="M168.189 76.1279H164.186V75.1362H168.189V76.1279Z" fill="#8DD4E9"/>
<path fill-rule="evenodd" clip-rule="evenodd" d="M159.3 76.1279H155.307V75.1362H159.3V76.1279Z" fill="#8DD4E9"/>
<path fill-rule="evenodd" clip-rule="evenodd" d="M161.252 105.133V101.137H162.243V105.133H161.252Z" fill="#8DD4E9"/>
<path fill-rule="evenodd" clip-rule="evenodd" d="M161.252 96.2484V92.2422H162.243V96.2484H161.252Z" fill="#8DD4E9"/>
<path fill-rule="evenodd" clip-rule="evenodd" d="M168.189 99.1835H164.186V98.1919H168.189V99.1835Z" fill="#8DD4E9"/>
<path fill-rule="evenodd" clip-rule="evenodd" d="M159.3 99.1835H155.307V98.1919H159.3V99.1835Z" fill="#8DD4E9"/>
<path fill-rule="evenodd" clip-rule="evenodd" d="M161.252 128.199V124.203H162.243V128.199H161.252Z" fill="#8DD4E9"/>
<path fill-rule="evenodd" clip-rule="evenodd" d="M161.252 119.304V115.308H162.243V119.304H161.252Z" fill="#8DD4E9"/>
<path fill-rule="evenodd" clip-rule="evenodd" d="M168.189 122.249H164.186V121.257H168.189V122.249Z" fill="#8DD4E9"/>
<path fill-rule="evenodd" clip-rule="evenodd" d="M159.3 122.249H155.307V121.257H159.3V122.249Z" fill="#8DD4E9"/>
<path fill-rule="evenodd" clip-rule="evenodd" d="M161.252 151.264V147.258H162.243V151.264H161.252Z" fill="#8DD4E9"/>
<path fill-rule="evenodd" clip-rule="evenodd" d="M161.252 142.369V138.373H162.243V142.369H161.252Z" fill="#8DD4E9"/>
<path fill-rule="evenodd" clip-rule="evenodd" d="M168.189 145.314H164.186V144.323H168.189V145.314Z" fill="#8DD4E9"/>
<path fill-rule="evenodd" clip-rule="evenodd" d="M159.3 145.314H155.307V144.323H159.3V145.314Z" fill="#8DD4E9"/>
<path fill-rule="evenodd" clip-rule="evenodd" d="M161.252 174.32V170.323H162.243V174.32H161.252Z" fill="#8DD4E9"/>
<path fill-rule="evenodd" clip-rule="evenodd" d="M161.252 165.434V161.428H162.243V165.434H161.252Z" fill="#8DD4E9"/>
<path fill-rule="evenodd" clip-rule="evenodd" d="M168.189 168.37H164.186V167.378H168.189V168.37Z" fill="#8DD4E9"/>
<path fill-rule="evenodd" clip-rule="evenodd" d="M159.3 168.37H155.307V167.378H159.3V168.37Z" fill="#8DD4E9"/>
<path fill-rule="evenodd" clip-rule="evenodd" d="M161.252 197.385V193.389H162.243V197.385H161.252Z" fill="#8DD4E9"/>
<path fill-rule="evenodd" clip-rule="evenodd" d="M161.252 188.49V184.494H162.243V188.49H161.252Z" fill="#8DD4E9"/>
<path fill-rule="evenodd" clip-rule="evenodd" d="M168.189 191.435H164.186V190.444H168.189V191.435Z" fill="#8DD4E9"/>
<path fill-rule="evenodd" clip-rule="evenodd" d="M159.3 191.435H155.307V190.444H159.3V191.435Z" fill="#8DD4E9"/>
<path fill-rule="evenodd" clip-rule="evenodd" d="M161.252 220.451V216.444H162.243V220.451H161.252Z" fill="#8DD4E9"/>
<path fill-rule="evenodd" clip-rule="evenodd" d="M161.252 211.556V207.56H162.243V211.556H161.252Z" fill="#8DD4E9"/>
<path fill-rule="evenodd" clip-rule="evenodd" d="M168.189 214.501H164.186V213.509H168.189V214.501Z" fill="#8DD4E9"/>
<path fill-rule="evenodd" clip-rule="evenodd" d="M159.3 214.501H155.307V213.509H159.3V214.501Z" fill="#8DD4E9"/>
<path fill-rule="evenodd" clip-rule="evenodd" d="M183.41 12.8913V8.89502H184.401V12.8913H183.41Z" fill="#8DD4E9"/>
<path fill-rule="evenodd" clip-rule="evenodd" d="M183.41 3.99629V0H184.401V3.99629H183.41Z" fill="#8DD4E9"/>
<path fill-rule="evenodd" clip-rule="evenodd" d="M190.347 6.94134H186.354V5.94971H190.347V6.94134Z" fill="#8DD4E9"/>
<path fill-rule="evenodd" clip-rule="evenodd" d="M181.468 6.94134H177.465V5.94971H181.468V6.94134Z" fill="#8DD4E9"/>
<path fill-rule="evenodd" clip-rule="evenodd" d="M183.41 35.9569V31.9507H184.401V35.9569H183.41Z" fill="#8DD4E9"/>
<path fill-rule="evenodd" clip-rule="evenodd" d="M183.41 27.0617V23.0654H184.401V27.0617H183.41Z" fill="#8DD4E9"/>
<path fill-rule="evenodd" clip-rule="evenodd" d="M190.347 30.0068H186.354V29.0151H190.347V30.0068Z" fill="#8DD4E9"/>
<path fill-rule="evenodd" clip-rule="evenodd" d="M181.468 30.0068H177.465V29.0151H181.468V30.0068Z" fill="#8DD4E9"/>
<path fill-rule="evenodd" clip-rule="evenodd" d="M183.41 59.0124V55.0161H184.401V59.0124H183.41Z" fill="#8DD4E9"/>
<path fill-rule="evenodd" clip-rule="evenodd" d="M183.41 50.1273V46.1211H184.401V50.1273H183.41Z" fill="#8DD4E9"/>
<path fill-rule="evenodd" clip-rule="evenodd" d="M190.347 53.0624H186.354V52.0708H190.347V53.0624Z" fill="#8DD4E9"/>
<path fill-rule="evenodd" clip-rule="evenodd" d="M181.468 53.0624H177.465V52.0708H181.468V53.0624Z" fill="#8DD4E9"/>
<path fill-rule="evenodd" clip-rule="evenodd" d="M183.41 82.0778V78.0815H184.401V82.0778H183.41Z" fill="#8DD4E9"/>
<path fill-rule="evenodd" clip-rule="evenodd" d="M183.41 73.1828V69.1865H184.401V73.1828H183.41Z" fill="#8DD4E9"/>
<path fill-rule="evenodd" clip-rule="evenodd" d="M190.347 76.1279H186.354V75.1362H190.347V76.1279Z" fill="#8DD4E9"/>
<path fill-rule="evenodd" clip-rule="evenodd" d="M181.468 76.1279H177.465V75.1362H181.468V76.1279Z" fill="#8DD4E9"/>
<path fill-rule="evenodd" clip-rule="evenodd" d="M183.41 105.133V101.137H184.401V105.133H183.41Z" fill="#8DD4E9"/>
<path fill-rule="evenodd" clip-rule="evenodd" d="M183.41 96.2484V92.2422H184.401V96.2484H183.41Z" fill="#8DD4E9"/>
<path fill-rule="evenodd" clip-rule="evenodd" d="M190.347 99.1835H186.354V98.1919H190.347V99.1835Z" fill="#8DD4E9"/>
<path fill-rule="evenodd" clip-rule="evenodd" d="M181.468 99.1835H177.465V98.1919H181.468V99.1835Z" fill="#8DD4E9"/>
<path fill-rule="evenodd" clip-rule="evenodd" d="M183.41 128.199V124.203H184.401V128.199H183.41Z" fill="#8DD4E9"/>
<path fill-rule="evenodd" clip-rule="evenodd" d="M183.41 119.304V115.308H184.401V119.304H183.41Z" fill="#8DD4E9"/>
<path fill-rule="evenodd" clip-rule="evenodd" d="M190.347 122.249H186.354V121.257H190.347V122.249Z" fill="#8DD4E9"/>
<path fill-rule="evenodd" clip-rule="evenodd" d="M181.468 122.249H177.465V121.257H181.468V122.249Z" fill="#8DD4E9"/>
<path fill-rule="evenodd" clip-rule="evenodd" d="M183.41 151.264V147.258H184.401V151.264H183.41Z" fill="#8DD4E9"/>
<path fill-rule="evenodd" clip-rule="evenodd" d="M183.41 142.369V138.373H184.401V142.369H183.41Z" fill="#8DD4E9"/>
<path fill-rule="evenodd" clip-rule="evenodd" d="M190.347 145.314H186.354V144.323H190.347V145.314Z" fill="#8DD4E9"/>
<path fill-rule="evenodd" clip-rule="evenodd" d="M181.468 145.314H177.465V144.323H181.468V145.314Z" fill="#8DD4E9"/>
<path fill-rule="evenodd" clip-rule="evenodd" d="M183.41 174.32V170.323H184.401V174.32H183.41Z" fill="#8DD4E9"/>
<path fill-rule="evenodd" clip-rule="evenodd" d="M183.41 165.434V161.428H184.401V165.434H183.41Z" fill="#8DD4E9"/>
<path fill-rule="evenodd" clip-rule="evenodd" d="M190.347 168.37H186.354V167.378H190.347V168.37Z" fill="#8DD4E9"/>
<path fill-rule="evenodd" clip-rule="evenodd" d="M181.468 168.37H177.465V167.378H181.468V168.37Z" fill="#8DD4E9"/>
<path fill-rule="evenodd" clip-rule="evenodd" d="M183.41 197.385V193.389H184.401V197.385H183.41Z" fill="#8DD4E9"/>
<path fill-rule="evenodd" clip-rule="evenodd" d="M183.41 188.49V184.494H184.401V188.49H183.41Z" fill="#8DD4E9"/>
<path fill-rule="evenodd" clip-rule="evenodd" d="M190.347 191.435H186.354V190.444H190.347V191.435Z" fill="#8DD4E9"/>
<path fill-rule="evenodd" clip-rule="evenodd" d="M181.468 191.435H177.465V190.444H181.468V191.435Z" fill="#8DD4E9"/>
<path fill-rule="evenodd" clip-rule="evenodd" d="M183.41 220.451V216.444H184.401V220.451H183.41Z" fill="#8DD4E9"/>
<path fill-rule="evenodd" clip-rule="evenodd" d="M183.41 211.556V207.56H184.401V211.556H183.41Z" fill="#8DD4E9"/>
<path fill-rule="evenodd" clip-rule="evenodd" d="M190.347 214.501H186.354V213.509H190.347V214.501Z" fill="#8DD4E9"/>
<path fill-rule="evenodd" clip-rule="evenodd" d="M181.468 214.501H177.465V213.509H181.468V214.501Z" fill="#8DD4E9"/>
<path fill-rule="evenodd" clip-rule="evenodd" d="M205.578 12.8913V8.89502H206.569V12.8913H205.578Z" fill="#8DD4E9"/>
<path fill-rule="evenodd" clip-rule="evenodd" d="M205.578 3.99629V0H206.569V3.99629H205.578Z" fill="#8DD4E9"/>
<path fill-rule="evenodd" clip-rule="evenodd" d="M212.515 6.94134H208.521V5.94971H212.515V6.94134Z" fill="#8DD4E9"/>
<path fill-rule="evenodd" clip-rule="evenodd" d="M203.626 6.94134H199.633V5.94971H203.626V6.94134Z" fill="#8DD4E9"/>
<path fill-rule="evenodd" clip-rule="evenodd" d="M205.578 35.9569V31.9507H206.569V35.9569H205.578Z" fill="#8DD4E9"/>
<path fill-rule="evenodd" clip-rule="evenodd" d="M205.578 27.0617V23.0654H206.569V27.0617H205.578Z" fill="#8DD4E9"/>
<path fill-rule="evenodd" clip-rule="evenodd" d="M212.515 30.0068H208.521V29.0151H212.515V30.0068Z" fill="#8DD4E9"/>
<path fill-rule="evenodd" clip-rule="evenodd" d="M203.626 30.0068H199.633V29.0151H203.626V30.0068Z" fill="#8DD4E9"/>
<path fill-rule="evenodd" clip-rule="evenodd" d="M205.578 59.0124V55.0161H206.569V59.0124H205.578Z" fill="#8DD4E9"/>
<path fill-rule="evenodd" clip-rule="evenodd" d="M205.578 50.1273V46.1211H206.569V50.1273H205.578Z" fill="#8DD4E9"/>
<path fill-rule="evenodd" clip-rule="evenodd" d="M212.515 53.0624H208.521V52.0708H212.515V53.0624Z" fill="#8DD4E9"/>
<path fill-rule="evenodd" clip-rule="evenodd" d="M203.626 53.0624H199.633V52.0708H203.626V53.0624Z" fill="#8DD4E9"/>
<path fill-rule="evenodd" clip-rule="evenodd" d="M205.578 82.0778V78.0815H206.569V82.0778H205.578Z" fill="#8DD4E9"/>
<path fill-rule="evenodd" clip-rule="evenodd" d="M205.578 73.1828V69.1865H206.569V73.1828H205.578Z" fill="#8DD4E9"/>
<path fill-rule="evenodd" clip-rule="evenodd" d="M212.515 76.1279H208.521V75.1362H212.515V76.1279Z" fill="#8DD4E9"/>
<path fill-rule="evenodd" clip-rule="evenodd" d="M203.626 76.1279H199.633V75.1362H203.626V76.1279Z" fill="#8DD4E9"/>
<path fill-rule="evenodd" clip-rule="evenodd" d="M205.578 105.133V101.137H206.569V105.133H205.578Z" fill="#8DD4E9"/>
<path fill-rule="evenodd" clip-rule="evenodd" d="M205.578 96.2484V92.2422H206.569V96.2484H205.578Z" fill="#8DD4E9"/>
<path fill-rule="evenodd" clip-rule="evenodd" d="M212.515 99.1835H208.521V98.1919H212.515V99.1835Z" fill="#8DD4E9"/>
<path fill-rule="evenodd" clip-rule="evenodd" d="M203.626 99.1835H199.633V98.1919H203.626V99.1835Z" fill="#8DD4E9"/>
<path fill-rule="evenodd" clip-rule="evenodd" d="M205.578 128.199V124.203H206.569V128.199H205.578Z" fill="#8DD4E9"/>
<path fill-rule="evenodd" clip-rule="evenodd" d="M205.578 119.304V115.308H206.569V119.304H205.578Z" fill="#8DD4E9"/>
<path fill-rule="evenodd" clip-rule="evenodd" d="M212.515 122.249H208.521V121.257H212.515V122.249Z" fill="#8DD4E9"/>
<path fill-rule="evenodd" clip-rule="evenodd" d="M203.626 122.249H199.633V121.257H203.626V122.249Z" fill="#8DD4E9"/>
<path fill-rule="evenodd" clip-rule="evenodd" d="M205.578 151.264V147.258H206.569V151.264H205.578Z" fill="#8DD4E9"/>
<path fill-rule="evenodd" clip-rule="evenodd" d="M205.578 142.369V138.373H206.569V142.369H205.578Z" fill="#8DD4E9"/>
<path fill-rule="evenodd" clip-rule="evenodd" d="M212.515 145.314H208.521V144.323H212.515V145.314Z" fill="#8DD4E9"/>
<path fill-rule="evenodd" clip-rule="evenodd" d="M203.626 145.314H199.633V144.323H203.626V145.314Z" fill="#8DD4E9"/>
<path fill-rule="evenodd" clip-rule="evenodd" d="M205.578 174.32V170.323H206.569V174.32H205.578Z" fill="#8DD4E9"/>
<path fill-rule="evenodd" clip-rule="evenodd" d="M205.578 165.434V161.428H206.569V165.434H205.578Z" fill="#8DD4E9"/>
<path fill-rule="evenodd" clip-rule="evenodd" d="M212.515 168.37H208.521V167.378H212.515V168.37Z" fill="#8DD4E9"/>
<path fill-rule="evenodd" clip-rule="evenodd" d="M203.626 168.37H199.633V167.378H203.626V168.37Z" fill="#8DD4E9"/>
<path fill-rule="evenodd" clip-rule="evenodd" d="M205.578 197.385V193.389H206.569V197.385H205.578Z" fill="#8DD4E9"/>
<path fill-rule="evenodd" clip-rule="evenodd" d="M205.578 188.49V184.494H206.569V188.49H205.578Z" fill="#8DD4E9"/>
<path fill-rule="evenodd" clip-rule="evenodd" d="M212.515 191.435H208.521V190.444H212.515V191.435Z" fill="#8DD4E9"/>
<path fill-rule="evenodd" clip-rule="evenodd" d="M203.626 191.435H199.633V190.444H203.626V191.435Z" fill="#8DD4E9"/>
<path fill-rule="evenodd" clip-rule="evenodd" d="M205.578 220.451V216.444H206.569V220.451H205.578Z" fill="#8DD4E9"/>
<path fill-rule="evenodd" clip-rule="evenodd" d="M205.578 211.556V207.56H206.569V211.556H205.578Z" fill="#8DD4E9"/>
<path fill-rule="evenodd" clip-rule="evenodd" d="M212.515 214.501H208.521V213.509H212.515V214.501Z" fill="#8DD4E9"/>
<path fill-rule="evenodd" clip-rule="evenodd" d="M203.626 214.501H199.633V213.509H203.626V214.501Z" fill="#8DD4E9"/>
<path fill-rule="evenodd" clip-rule="evenodd" d="M227.746 12.8913V8.89502H228.737V12.8913H227.746Z" fill="#8DD4E9"/>
<path fill-rule="evenodd" clip-rule="evenodd" d="M227.746 3.99629V0H228.737V3.99629H227.746Z" fill="#8DD4E9"/>
<path fill-rule="evenodd" clip-rule="evenodd" d="M234.683 6.94134H230.68V5.94971H234.683V6.94134Z" fill="#8DD4E9"/>
<path fill-rule="evenodd" clip-rule="evenodd" d="M225.794 6.94134H221.801V5.94971H225.794V6.94134Z" fill="#8DD4E9"/>
<path fill-rule="evenodd" clip-rule="evenodd" d="M227.746 35.9569V31.9507H228.737V35.9569H227.746Z" fill="#8DD4E9"/>
<path fill-rule="evenodd" clip-rule="evenodd" d="M227.746 27.0617V23.0654H228.737V27.0617H227.746Z" fill="#8DD4E9"/>
<path fill-rule="evenodd" clip-rule="evenodd" d="M234.683 30.0068H230.68V29.0151H234.683V30.0068Z" fill="#8DD4E9"/>
<path fill-rule="evenodd" clip-rule="evenodd" d="M225.794 30.0068H221.801V29.0151H225.794V30.0068Z" fill="#8DD4E9"/>
<path fill-rule="evenodd" clip-rule="evenodd" d="M227.746 59.0124V55.0161H228.737V59.0124H227.746Z" fill="#8DD4E9"/>
<path fill-rule="evenodd" clip-rule="evenodd" d="M227.746 50.1273V46.1211H228.737V50.1273H227.746Z" fill="#8DD4E9"/>
<path fill-rule="evenodd" clip-rule="evenodd" d="M234.683 53.0624H230.68V52.0708H234.683V53.0624Z" fill="#8DD4E9"/>
<path fill-rule="evenodd" clip-rule="evenodd" d="M225.794 53.0624H221.801V52.0708H225.794V53.0624Z" fill="#8DD4E9"/>
<path fill-rule="evenodd" clip-rule="evenodd" d="M227.746 82.0778V78.0815H228.737V82.0778H227.746Z" fill="#8DD4E9"/>
<path fill-rule="evenodd" clip-rule="evenodd" d="M227.746 73.1828V69.1865H228.737V73.1828H227.746Z" fill="#8DD4E9"/>
<path fill-rule="evenodd" clip-rule="evenodd" d="M234.683 76.1279H230.68V75.1362H234.683V76.1279Z" fill="#8DD4E9"/>
<path fill-rule="evenodd" clip-rule="evenodd" d="M225.794 76.1279H221.801V75.1362H225.794V76.1279Z" fill="#8DD4E9"/>
<path fill-rule="evenodd" clip-rule="evenodd" d="M227.746 105.133V101.137H228.737V105.133H227.746Z" fill="#8DD4E9"/>
<path fill-rule="evenodd" clip-rule="evenodd" d="M227.746 96.2484V92.2422H228.737V96.2484H227.746Z" fill="#8DD4E9"/>
<path fill-rule="evenodd" clip-rule="evenodd" d="M234.683 99.1835H230.68V98.1919H234.683V99.1835Z" fill="#8DD4E9"/>
<path fill-rule="evenodd" clip-rule="evenodd" d="M225.794 99.1835H221.801V98.1919H225.794V99.1835Z" fill="#8DD4E9"/>
<path fill-rule="evenodd" clip-rule="evenodd" d="M227.746 128.199V124.203H228.737V128.199H227.746Z" fill="#8DD4E9"/>
<path fill-rule="evenodd" clip-rule="evenodd" d="M227.746 119.304V115.308H228.737V119.304H227.746Z" fill="#8DD4E9"/>
<path fill-rule="evenodd" clip-rule="evenodd" d="M234.683 122.249H230.68V121.257H234.683V122.249Z" fill="#8DD4E9"/>
<path fill-rule="evenodd" clip-rule="evenodd" d="M225.794 122.249H221.801V121.257H225.794V122.249Z" fill="#8DD4E9"/>
<path fill-rule="evenodd" clip-rule="evenodd" d="M227.746 151.264V147.258H228.737V151.264H227.746Z" fill="#8DD4E9"/>
<path fill-rule="evenodd" clip-rule="evenodd" d="M227.746 142.369V138.373H228.737V142.369H227.746Z" fill="#8DD4E9"/>
<path fill-rule="evenodd" clip-rule="evenodd" d="M234.683 145.314H230.68V144.323H234.683V145.314Z" fill="#8DD4E9"/>
<path fill-rule="evenodd" clip-rule="evenodd" d="M225.794 145.314H221.801V144.323H225.794V145.314Z" fill="#8DD4E9"/>
<path fill-rule="evenodd" clip-rule="evenodd" d="M227.746 174.32V170.323H228.737V174.32H227.746Z" fill="#8DD4E9"/>
<path fill-rule="evenodd" clip-rule="evenodd" d="M227.746 165.434V161.428H228.737V165.434H227.746Z" fill="#8DD4E9"/>
<path fill-rule="evenodd" clip-rule="evenodd" d="M234.683 168.37H230.68V167.378H234.683V168.37Z" fill="#8DD4E9"/>
<path fill-rule="evenodd" clip-rule="evenodd" d="M225.794 168.37H221.801V167.378H225.794V168.37Z" fill="#8DD4E9"/>
<path fill-rule="evenodd" clip-rule="evenodd" d="M227.746 197.385V193.389H228.737V197.385H227.746Z" fill="#8DD4E9"/>
<path fill-rule="evenodd" clip-rule="evenodd" d="M227.746 188.49V184.494H228.737V188.49H227.746Z" fill="#8DD4E9"/>
<path fill-rule="evenodd" clip-rule="evenodd" d="M234.683 191.435H230.68V190.444H234.683V191.435Z" fill="#8DD4E9"/>
<path fill-rule="evenodd" clip-rule="evenodd" d="M225.794 191.435H221.801V190.444H225.794V191.435Z" fill="#8DD4E9"/>
<path fill-rule="evenodd" clip-rule="evenodd" d="M227.746 220.451V216.444H228.737V220.451H227.746Z" fill="#8DD4E9"/>
<path fill-rule="evenodd" clip-rule="evenodd" d="M227.746 211.556V207.56H228.737V211.556H227.746Z" fill="#8DD4E9"/>
<path fill-rule="evenodd" clip-rule="evenodd" d="M234.683 214.501H230.68V213.509H234.683V214.501Z" fill="#8DD4E9"/>
<path fill-rule="evenodd" clip-rule="evenodd" d="M225.794 214.501H221.801V213.509H225.794V214.501Z" fill="#8DD4E9"/>
<path fill-rule="evenodd" clip-rule="evenodd" d="M249.904 12.8913V8.89502H250.895V12.8913H249.904Z" fill="#8DD4E9"/>
<path fill-rule="evenodd" clip-rule="evenodd" d="M249.904 3.99629V0H250.895V3.99629H249.904Z" fill="#8DD4E9"/>
<path fill-rule="evenodd" clip-rule="evenodd" d="M256.841 6.94134H252.848V5.94971H256.841V6.94134Z" fill="#8DD4E9"/>
<path fill-rule="evenodd" clip-rule="evenodd" d="M247.963 6.94134H243.959V5.94971H247.963V6.94134Z" fill="#8DD4E9"/>
<path fill-rule="evenodd" clip-rule="evenodd" d="M249.904 35.9569V31.9507H250.895V35.9569H249.904Z" fill="#8DD4E9"/>
<path fill-rule="evenodd" clip-rule="evenodd" d="M249.904 27.0617V23.0654H250.895V27.0617H249.904Z" fill="#8DD4E9"/>
<path fill-rule="evenodd" clip-rule="evenodd" d="M256.841 30.0068H252.848V29.0151H256.841V30.0068Z" fill="#8DD4E9"/>
<path fill-rule="evenodd" clip-rule="evenodd" d="M247.963 30.0068H243.959V29.0151H247.963V30.0068Z" fill="#8DD4E9"/>
<path fill-rule="evenodd" clip-rule="evenodd" d="M249.904 59.0124V55.0161H250.895V59.0124H249.904Z" fill="#8DD4E9"/>
<path fill-rule="evenodd" clip-rule="evenodd" d="M249.904 50.1273V46.1211H250.895V50.1273H249.904Z" fill="#8DD4E9"/>
<path fill-rule="evenodd" clip-rule="evenodd" d="M256.841 53.0624H252.848V52.0708H256.841V53.0624Z" fill="#8DD4E9"/>
<path fill-rule="evenodd" clip-rule="evenodd" d="M247.963 53.0624H243.959V52.0708H247.963V53.0624Z" fill="#8DD4E9"/>
<path fill-rule="evenodd" clip-rule="evenodd" d="M249.904 82.0778V78.0815H250.895V82.0778H249.904Z" fill="#8DD4E9"/>
<path fill-rule="evenodd" clip-rule="evenodd" d="M249.904 73.1828V69.1865H250.895V73.1828H249.904Z" fill="#8DD4E9"/>
<path fill-rule="evenodd" clip-rule="evenodd" d="M256.841 76.1279H252.848V75.1362H256.841V76.1279Z" fill="#8DD4E9"/>
<path fill-rule="evenodd" clip-rule="evenodd" d="M247.963 76.1279H243.959V75.1362H247.963V76.1279Z" fill="#8DD4E9"/>
<path fill-rule="evenodd" clip-rule="evenodd" d="M249.904 105.133V101.137H250.895V105.133H249.904Z" fill="#8DD4E9"/>
<path fill-rule="evenodd" clip-rule="evenodd" d="M249.904 96.2484V92.2422H250.895V96.2484H249.904Z" fill="#8DD4E9"/>
<path fill-rule="evenodd" clip-rule="evenodd" d="M256.841 99.1835H252.848V98.1919H256.841V99.1835Z" fill="#8DD4E9"/>
<path fill-rule="evenodd" clip-rule="evenodd" d="M247.963 99.1835H243.959V98.1919H247.963V99.1835Z" fill="#8DD4E9"/>
<path fill-rule="evenodd" clip-rule="evenodd" d="M249.904 128.199V124.203H250.895V128.199H249.904Z" fill="#8DD4E9"/>
<path fill-rule="evenodd" clip-rule="evenodd" d="M249.904 119.304V115.308H250.895V119.304H249.904Z" fill="#8DD4E9"/>
<path fill-rule="evenodd" clip-rule="evenodd" d="M256.841 122.249H252.848V121.257H256.841V122.249Z" fill="#8DD4E9"/>
<path fill-rule="evenodd" clip-rule="evenodd" d="M247.963 122.249H243.959V121.257H247.963V122.249Z" fill="#8DD4E9"/>
<path fill-rule="evenodd" clip-rule="evenodd" d="M249.904 151.264V147.258H250.895V151.264H249.904Z" fill="#8DD4E9"/>
<path fill-rule="evenodd" clip-rule="evenodd" d="M249.904 142.369V138.373H250.895V142.369H249.904Z" fill="#8DD4E9"/>
<path fill-rule="evenodd" clip-rule="evenodd" d="M256.841 145.314H252.848V144.323H256.841V145.314Z" fill="#8DD4E9"/>
<path fill-rule="evenodd" clip-rule="evenodd" d="M247.963 145.314H243.959V144.323H247.963V145.314Z" fill="#8DD4E9"/>
<path fill-rule="evenodd" clip-rule="evenodd" d="M249.904 174.32V170.323H250.895V174.32H249.904Z" fill="#8DD4E9"/>
<path fill-rule="evenodd" clip-rule="evenodd" d="M249.904 165.434V161.428H250.895V165.434H249.904Z" fill="#8DD4E9"/>
<path fill-rule="evenodd" clip-rule="evenodd" d="M256.841 168.37H252.848V167.378H256.841V168.37Z" fill="#8DD4E9"/>
<path fill-rule="evenodd" clip-rule="evenodd" d="M247.963 168.37H243.959V167.378H247.963V168.37Z" fill="#8DD4E9"/>
<path fill-rule="evenodd" clip-rule="evenodd" d="M249.904 197.385V193.389H250.895V197.385H249.904Z" fill="#8DD4E9"/>
<path fill-rule="evenodd" clip-rule="evenodd" d="M249.904 188.49V184.494H250.895V188.49H249.904Z" fill="#8DD4E9"/>
<path fill-rule="evenodd" clip-rule="evenodd" d="M256.841 191.435H252.848V190.444H256.841V191.435Z" fill="#8DD4E9"/>
<path fill-rule="evenodd" clip-rule="evenodd" d="M247.963 191.435H243.959V190.444H247.963V191.435Z" fill="#8DD4E9"/>
<path fill-rule="evenodd" clip-rule="evenodd" d="M249.904 220.451V216.444H250.895V220.451H249.904Z" fill="#8DD4E9"/>
<path fill-rule="evenodd" clip-rule="evenodd" d="M249.904 211.556V207.56H250.895V211.556H249.904Z" fill="#8DD4E9"/>
<path fill-rule="evenodd" clip-rule="evenodd" d="M256.841 214.501H252.848V213.509H256.841V214.501Z" fill="#8DD4E9"/>
<path fill-rule="evenodd" clip-rule="evenodd" d="M247.963 214.501H243.959V213.509H247.963V214.501Z" fill="#8DD4E9"/>
<path fill-rule="evenodd" clip-rule="evenodd" d="M272.074 12.8913V8.89502H273.065V12.8913H272.074Z" fill="#8DD4E9"/>
<path fill-rule="evenodd" clip-rule="evenodd" d="M272.074 3.99629V0H273.065V3.99629H272.074Z" fill="#8DD4E9"/>
<path fill-rule="evenodd" clip-rule="evenodd" d="M279.009 6.94134H275.016V5.94971H279.009V6.94134Z" fill="#8DD4E9"/>
<path fill-rule="evenodd" clip-rule="evenodd" d="M270.121 6.94134H266.127V5.94971H270.121V6.94134Z" fill="#8DD4E9"/>
<path fill-rule="evenodd" clip-rule="evenodd" d="M272.074 35.9569V31.9507H273.065V35.9569H272.074Z" fill="#8DD4E9"/>
<path fill-rule="evenodd" clip-rule="evenodd" d="M272.074 27.0617V23.0654H273.065V27.0617H272.074Z" fill="#8DD4E9"/>
<path fill-rule="evenodd" clip-rule="evenodd" d="M279.009 30.0068H275.016V29.0151H279.009V30.0068Z" fill="#8DD4E9"/>
<path fill-rule="evenodd" clip-rule="evenodd" d="M270.121 30.0068H266.127V29.0151H270.121V30.0068Z" fill="#8DD4E9"/>
<path fill-rule="evenodd" clip-rule="evenodd" d="M272.074 59.0124V55.0161H273.065V59.0124H272.074Z" fill="#8DD4E9"/>
<path fill-rule="evenodd" clip-rule="evenodd" d="M272.074 50.1273V46.1211H273.065V50.1273H272.074Z" fill="#8DD4E9"/>
<path fill-rule="evenodd" clip-rule="evenodd" d="M279.009 53.0624H275.016V52.0708H279.009V53.0624Z" fill="#8DD4E9"/>
<path fill-rule="evenodd" clip-rule="evenodd" d="M270.121 53.0624H266.127V52.0708H270.121V53.0624Z" fill="#8DD4E9"/>
<path fill-rule="evenodd" clip-rule="evenodd" d="M272.074 82.0778V78.0815H273.065V82.0778H272.074Z" fill="#8DD4E9"/>
<path fill-rule="evenodd" clip-rule="evenodd" d="M272.074 73.1828V69.1865H273.065V73.1828H272.074Z" fill="#8DD4E9"/>
<path fill-rule="evenodd" clip-rule="evenodd" d="M279.009 76.1279H275.016V75.1362H279.009V76.1279Z" fill="#8DD4E9"/>
<path fill-rule="evenodd" clip-rule="evenodd" d="M270.121 76.1279H266.127V75.1362H270.121V76.1279Z" fill="#8DD4E9"/>
<path fill-rule="evenodd" clip-rule="evenodd" d="M272.074 105.133V101.137H273.065V105.133H272.074Z" fill="#8DD4E9"/>
<path fill-rule="evenodd" clip-rule="evenodd" d="M272.074 96.2484V92.2422H273.065V96.2484H272.074Z" fill="#8DD4E9"/>
<path fill-rule="evenodd" clip-rule="evenodd" d="M279.009 99.1835H275.016V98.1919H279.009V99.1835Z" fill="#8DD4E9"/>
<path fill-rule="evenodd" clip-rule="evenodd" d="M270.121 99.1835H266.127V98.1919H270.121V99.1835Z" fill="#8DD4E9"/>
<path fill-rule="evenodd" clip-rule="evenodd" d="M272.074 128.199V124.203H273.065V128.199H272.074Z" fill="#8DD4E9"/>
<path fill-rule="evenodd" clip-rule="evenodd" d="M272.074 119.304V115.308H273.065V119.304H272.074Z" fill="#8DD4E9"/>
<path fill-rule="evenodd" clip-rule="evenodd" d="M279.009 122.249H275.016V121.257H279.009V122.249Z" fill="#8DD4E9"/>
<path fill-rule="evenodd" clip-rule="evenodd" d="M270.121 122.249H266.127V121.257H270.121V122.249Z" fill="#8DD4E9"/>
<path fill-rule="evenodd" clip-rule="evenodd" d="M272.074 151.264V147.258H273.065V151.264H272.074Z" fill="#8DD4E9"/>
<path fill-rule="evenodd" clip-rule="evenodd" d="M272.074 142.369V138.373H273.065V142.369H272.074Z" fill="#8DD4E9"/>
<path fill-rule="evenodd" clip-rule="evenodd" d="M279.009 145.314H275.016V144.323H279.009V145.314Z" fill="#8DD4E9"/>
<path fill-rule="evenodd" clip-rule="evenodd" d="M270.121 145.314H266.127V144.323H270.121V145.314Z" fill="#8DD4E9"/>
<path fill-rule="evenodd" clip-rule="evenodd" d="M272.074 174.32V170.323H273.065V174.32H272.074Z" fill="#8DD4E9"/>
<path fill-rule="evenodd" clip-rule="evenodd" d="M272.074 165.434V161.428H273.065V165.434H272.074Z" fill="#8DD4E9"/>
<path fill-rule="evenodd" clip-rule="evenodd" d="M279.009 168.37H275.016V167.378H279.009V168.37Z" fill="#8DD4E9"/>
<path fill-rule="evenodd" clip-rule="evenodd" d="M270.121 168.37H266.127V167.378H270.121V168.37Z" fill="#8DD4E9"/>
<path fill-rule="evenodd" clip-rule="evenodd" d="M272.074 197.385V193.389H273.065V197.385H272.074Z" fill="#8DD4E9"/>
<path fill-rule="evenodd" clip-rule="evenodd" d="M272.074 188.49V184.494H273.065V188.49H272.074Z" fill="#8DD4E9"/>
<path fill-rule="evenodd" clip-rule="evenodd" d="M279.009 191.435H275.016V190.444H279.009V191.435Z" fill="#8DD4E9"/>
<path fill-rule="evenodd" clip-rule="evenodd" d="M270.121 191.435H266.127V190.444H270.121V191.435Z" fill="#8DD4E9"/>
<path fill-rule="evenodd" clip-rule="evenodd" d="M272.074 220.451V216.444H273.065V220.451H272.074Z" fill="#8DD4E9"/>
<path fill-rule="evenodd" clip-rule="evenodd" d="M272.074 211.556V207.56H273.065V211.556H272.074Z" fill="#8DD4E9"/>
<path fill-rule="evenodd" clip-rule="evenodd" d="M279.009 214.501H275.016V213.509H279.009V214.501Z" fill="#8DD4E9"/>
<path fill-rule="evenodd" clip-rule="evenodd" d="M270.121 214.501H266.127V213.509H270.121V214.501Z" fill="#8DD4E9"/>
<path fill-rule="evenodd" clip-rule="evenodd" d="M294.242 12.8913V8.89502H295.233V12.8913H294.242Z" fill="#8DD4E9"/>
<path fill-rule="evenodd" clip-rule="evenodd" d="M294.242 3.99629V0H295.233V3.99629H294.242Z" fill="#8DD4E9"/>
<path fill-rule="evenodd" clip-rule="evenodd" d="M301.179 6.94134H297.186V5.94971H301.179V6.94134Z" fill="#8DD4E9"/>
<path fill-rule="evenodd" clip-rule="evenodd" d="M292.289 6.94134H288.295V5.94971H292.289V6.94134Z" fill="#8DD4E9"/>
<path fill-rule="evenodd" clip-rule="evenodd" d="M294.242 35.9569V31.9507H295.233V35.9569H294.242Z" fill="#8DD4E9"/>
<path fill-rule="evenodd" clip-rule="evenodd" d="M294.242 27.0617V23.0654H295.233V27.0617H294.242Z" fill="#8DD4E9"/>
<path fill-rule="evenodd" clip-rule="evenodd" d="M301.179 30.0068H297.186V29.0151H301.179V30.0068Z" fill="#8DD4E9"/>
<path fill-rule="evenodd" clip-rule="evenodd" d="M292.289 30.0068H288.295V29.0151H292.289V30.0068Z" fill="#8DD4E9"/>
<path fill-rule="evenodd" clip-rule="evenodd" d="M294.242 59.0124V55.0161H295.233V59.0124H294.242Z" fill="#8DD4E9"/>
<path fill-rule="evenodd" clip-rule="evenodd" d="M294.242 50.1273V46.1211H295.233V50.1273H294.242Z" fill="#8DD4E9"/>
<path fill-rule="evenodd" clip-rule="evenodd" d="M301.179 53.0624H297.186V52.0708H301.179V53.0624Z" fill="#8DD4E9"/>
<path fill-rule="evenodd" clip-rule="evenodd" d="M292.289 53.0624H288.295V52.0708H292.289V53.0624Z" fill="#8DD4E9"/>
<path fill-rule="evenodd" clip-rule="evenodd" d="M294.242 82.0778V78.0815H295.233V82.0778H294.242Z" fill="#8DD4E9"/>
<path fill-rule="evenodd" clip-rule="evenodd" d="M294.242 73.1828V69.1865H295.233V73.1828H294.242Z" fill="#8DD4E9"/>
<path fill-rule="evenodd" clip-rule="evenodd" d="M301.179 76.1279H297.186V75.1362H301.179V76.1279Z" fill="#8DD4E9"/>
<path fill-rule="evenodd" clip-rule="evenodd" d="M292.289 76.1279H288.295V75.1362H292.289V76.1279Z" fill="#8DD4E9"/>
<path fill-rule="evenodd" clip-rule="evenodd" d="M294.242 105.133V101.137H295.233V105.133H294.242Z" fill="#8DD4E9"/>
<path fill-rule="evenodd" clip-rule="evenodd" d="M294.242 96.2484V92.2422H295.233V96.2484H294.242Z" fill="#8DD4E9"/>
<path fill-rule="evenodd" clip-rule="evenodd" d="M301.179 99.1835H297.186V98.1919H301.179V99.1835Z" fill="#8DD4E9"/>
<path fill-rule="evenodd" clip-rule="evenodd" d="M292.289 99.1835H288.295V98.1919H292.289V99.1835Z" fill="#8DD4E9"/>
<path fill-rule="evenodd" clip-rule="evenodd" d="M294.242 128.199V124.203H295.233V128.199H294.242Z" fill="#8DD4E9"/>
<path fill-rule="evenodd" clip-rule="evenodd" d="M294.242 119.304V115.308H295.233V119.304H294.242Z" fill="#8DD4E9"/>
<path fill-rule="evenodd" clip-rule="evenodd" d="M301.179 122.249H297.186V121.257H301.179V122.249Z" fill="#8DD4E9"/>
<path fill-rule="evenodd" clip-rule="evenodd" d="M292.289 122.249H288.295V121.257H292.289V122.249Z" fill="#8DD4E9"/>
<path fill-rule="evenodd" clip-rule="evenodd" d="M294.242 151.264V147.258H295.233V151.264H294.242Z" fill="#8DD4E9"/>
<path fill-rule="evenodd" clip-rule="evenodd" d="M294.242 142.369V138.373H295.233V142.369H294.242Z" fill="#8DD4E9"/>
<path fill-rule="evenodd" clip-rule="evenodd" d="M301.179 145.314H297.186V144.323H301.179V145.314Z" fill="#8DD4E9"/>
<path fill-rule="evenodd" clip-rule="evenodd" d="M292.289 145.314H288.295V144.323H292.289V145.314Z" fill="#8DD4E9"/>
<path fill-rule="evenodd" clip-rule="evenodd" d="M294.242 174.32V170.323H295.233V174.32H294.242Z" fill="#8DD4E9"/>
<path fill-rule="evenodd" clip-rule="evenodd" d="M294.242 165.434V161.428H295.233V165.434H294.242Z" fill="#8DD4E9"/>
<path fill-rule="evenodd" clip-rule="evenodd" d="M301.179 168.37H297.186V167.378H301.179V168.37Z" fill="#8DD4E9"/>
<path fill-rule="evenodd" clip-rule="evenodd" d="M292.289 168.37H288.295V167.378H292.289V168.37Z" fill="#8DD4E9"/>
<path fill-rule="evenodd" clip-rule="evenodd" d="M294.242 197.385V193.389H295.233V197.385H294.242Z" fill="#8DD4E9"/>
<path fill-rule="evenodd" clip-rule="evenodd" d="M294.242 188.49V184.494H295.233V188.49H294.242Z" fill="#8DD4E9"/>
<path fill-rule="evenodd" clip-rule="evenodd" d="M301.179 191.435H297.186V190.444H301.179V191.435Z" fill="#8DD4E9"/>
<path fill-rule="evenodd" clip-rule="evenodd" d="M292.289 191.435H288.295V190.444H292.289V191.435Z" fill="#8DD4E9"/>
<path fill-rule="evenodd" clip-rule="evenodd" d="M294.242 220.451V216.444H295.233V220.451H294.242Z" fill="#8DD4E9"/>
<path fill-rule="evenodd" clip-rule="evenodd" d="M294.242 211.556V207.56H295.233V211.556H294.242Z" fill="#8DD4E9"/>
<path fill-rule="evenodd" clip-rule="evenodd" d="M301.179 214.501H297.186V213.509H301.179V214.501Z" fill="#8DD4E9"/>
<path fill-rule="evenodd" clip-rule="evenodd" d="M292.289 214.501H288.295V213.509H292.289V214.501Z" fill="#8DD4E9"/>
<path fill-rule="evenodd" clip-rule="evenodd" d="M316.41 12.8913V8.89502H317.401V12.8913H316.41Z" fill="#8DD4E9"/>
<path fill-rule="evenodd" clip-rule="evenodd" d="M316.41 3.99629V0H317.401V3.99629H316.41Z" fill="#8DD4E9"/>
<path fill-rule="evenodd" clip-rule="evenodd" d="M323.347 6.94134H319.344V5.94971H323.347V6.94134Z" fill="#8DD4E9"/>
<path fill-rule="evenodd" clip-rule="evenodd" d="M314.459 6.94134H310.465V5.94971H314.459V6.94134Z" fill="#8DD4E9"/>
<path fill-rule="evenodd" clip-rule="evenodd" d="M316.41 35.9569V31.9507H317.401V35.9569H316.41Z" fill="#8DD4E9"/>
<path fill-rule="evenodd" clip-rule="evenodd" d="M316.41 27.0617V23.0654H317.401V27.0617H316.41Z" fill="#8DD4E9"/>
<path fill-rule="evenodd" clip-rule="evenodd" d="M323.347 30.0068H319.344V29.0151H323.347V30.0068Z" fill="#8DD4E9"/>
<path fill-rule="evenodd" clip-rule="evenodd" d="M314.459 30.0068H310.465V29.0151H314.459V30.0068Z" fill="#8DD4E9"/>
<path fill-rule="evenodd" clip-rule="evenodd" d="M316.41 59.0124V55.0161H317.401V59.0124H316.41Z" fill="#8DD4E9"/>
<path fill-rule="evenodd" clip-rule="evenodd" d="M316.41 50.1273V46.1211H317.401V50.1273H316.41Z" fill="#8DD4E9"/>
<path fill-rule="evenodd" clip-rule="evenodd" d="M323.347 53.0624H319.344V52.0708H323.347V53.0624Z" fill="#8DD4E9"/>
<path fill-rule="evenodd" clip-rule="evenodd" d="M314.459 53.0624H310.465V52.0708H314.459V53.0624Z" fill="#8DD4E9"/>
<path fill-rule="evenodd" clip-rule="evenodd" d="M316.41 82.0778V78.0815H317.401V82.0778H316.41Z" fill="#8DD4E9"/>
<path fill-rule="evenodd" clip-rule="evenodd" d="M316.41 73.1828V69.1865H317.401V73.1828H316.41Z" fill="#8DD4E9"/>
<path fill-rule="evenodd" clip-rule="evenodd" d="M323.347 76.1279H319.344V75.1362H323.347V76.1279Z" fill="#8DD4E9"/>
<path fill-rule="evenodd" clip-rule="evenodd" d="M314.459 76.1279H310.465V75.1362H314.459V76.1279Z" fill="#8DD4E9"/>
<path fill-rule="evenodd" clip-rule="evenodd" d="M316.41 105.133V101.137H317.401V105.133H316.41Z" fill="#8DD4E9"/>
<path fill-rule="evenodd" clip-rule="evenodd" d="M316.41 96.2484V92.2422H317.401V96.2484H316.41Z" fill="#8DD4E9"/>
<path fill-rule="evenodd" clip-rule="evenodd" d="M323.347 99.1835H319.344V98.1919H323.347V99.1835Z" fill="#8DD4E9"/>
<path fill-rule="evenodd" clip-rule="evenodd" d="M314.459 99.1835H310.465V98.1919H314.459V99.1835Z" fill="#8DD4E9"/>
<path fill-rule="evenodd" clip-rule="evenodd" d="M316.41 128.199V124.203H317.401V128.199H316.41Z" fill="#8DD4E9"/>
<path fill-rule="evenodd" clip-rule="evenodd" d="M316.41 119.304V115.308H317.401V119.304H316.41Z" fill="#8DD4E9"/>
<path fill-rule="evenodd" clip-rule="evenodd" d="M323.347 122.249H319.344V121.257H323.347V122.249Z" fill="#8DD4E9"/>
<path fill-rule="evenodd" clip-rule="evenodd" d="M314.459 122.249H310.465V121.257H314.459V122.249Z" fill="#8DD4E9"/>
<path fill-rule="evenodd" clip-rule="evenodd" d="M316.41 151.264V147.258H317.401V151.264H316.41Z" fill="#8DD4E9"/>
<path fill-rule="evenodd" clip-rule="evenodd" d="M316.41 142.369V138.373H317.401V142.369H316.41Z" fill="#8DD4E9"/>
<path fill-rule="evenodd" clip-rule="evenodd" d="M323.347 145.314H319.344V144.323H323.347V145.314Z" fill="#8DD4E9"/>
<path fill-rule="evenodd" clip-rule="evenodd" d="M314.459 145.314H310.465V144.323H314.459V145.314Z" fill="#8DD4E9"/>
<path fill-rule="evenodd" clip-rule="evenodd" d="M316.41 174.32V170.323H317.401V174.32H316.41Z" fill="#8DD4E9"/>
<path fill-rule="evenodd" clip-rule="evenodd" d="M316.41 165.434V161.428H317.401V165.434H316.41Z" fill="#8DD4E9"/>
<path fill-rule="evenodd" clip-rule="evenodd" d="M323.347 168.37H319.344V167.378H323.347V168.37Z" fill="#8DD4E9"/>
<path fill-rule="evenodd" clip-rule="evenodd" d="M314.459 168.37H310.465V167.378H314.459V168.37Z" fill="#8DD4E9"/>
<path fill-rule="evenodd" clip-rule="evenodd" d="M316.41 197.385V193.389H317.401V197.385H316.41Z" fill="#8DD4E9"/>
<path fill-rule="evenodd" clip-rule="evenodd" d="M316.41 188.49V184.494H317.401V188.49H316.41Z" fill="#8DD4E9"/>
<path fill-rule="evenodd" clip-rule="evenodd" d="M323.347 191.435H319.344V190.444H323.347V191.435Z" fill="#8DD4E9"/>
<path fill-rule="evenodd" clip-rule="evenodd" d="M314.459 191.435H310.465V190.444H314.459V191.435Z" fill="#8DD4E9"/>
<path fill-rule="evenodd" clip-rule="evenodd" d="M316.41 220.451V216.444H317.401V220.451H316.41Z" fill="#8DD4E9"/>
<path fill-rule="evenodd" clip-rule="evenodd" d="M316.41 211.556V207.56H317.401V211.556H316.41Z" fill="#8DD4E9"/>
<path fill-rule="evenodd" clip-rule="evenodd" d="M323.347 214.501H319.344V213.509H323.347V214.501Z" fill="#8DD4E9"/>
<path fill-rule="evenodd" clip-rule="evenodd" d="M314.459 214.501H310.465V213.509H314.459V214.501Z" fill="#8DD4E9"/>
<path fill-rule="evenodd" clip-rule="evenodd" d="M338.568 12.8913V8.89502H339.559V12.8913H338.568Z" fill="#8DD4E9"/>
<path fill-rule="evenodd" clip-rule="evenodd" d="M338.568 3.99629V0H339.559V3.99629H338.568Z" fill="#8DD4E9"/>
<path fill-rule="evenodd" clip-rule="evenodd" d="M345.505 6.94134H341.512V5.94971H345.505V6.94134Z" fill="#8DD4E9"/>
<path fill-rule="evenodd" clip-rule="evenodd" d="M336.617 6.94134H332.623V5.94971H336.617V6.94134Z" fill="#8DD4E9"/>
<path fill-rule="evenodd" clip-rule="evenodd" d="M338.568 35.9569V31.9507H339.559V35.9569H338.568Z" fill="#8DD4E9"/>
<path fill-rule="evenodd" clip-rule="evenodd" d="M338.568 27.0617V23.0654H339.559V27.0617H338.568Z" fill="#8DD4E9"/>
<path fill-rule="evenodd" clip-rule="evenodd" d="M345.505 30.0068H341.512V29.0151H345.505V30.0068Z" fill="#8DD4E9"/>
<path fill-rule="evenodd" clip-rule="evenodd" d="M336.617 30.0068H332.623V29.0151H336.617V30.0068Z" fill="#8DD4E9"/>
<path fill-rule="evenodd" clip-rule="evenodd" d="M338.568 59.0124V55.0161H339.559V59.0124H338.568Z" fill="#8DD4E9"/>
<path fill-rule="evenodd" clip-rule="evenodd" d="M338.568 50.1273V46.1211H339.559V50.1273H338.568Z" fill="#8DD4E9"/>
<path fill-rule="evenodd" clip-rule="evenodd" d="M345.505 53.0624H341.512V52.0708H345.505V53.0624Z" fill="#8DD4E9"/>
<path fill-rule="evenodd" clip-rule="evenodd" d="M336.617 53.0624H332.623V52.0708H336.617V53.0624Z" fill="#8DD4E9"/>
<path fill-rule="evenodd" clip-rule="evenodd" d="M338.568 82.0778V78.0815H339.559V82.0778H338.568Z" fill="#8DD4E9"/>
<path fill-rule="evenodd" clip-rule="evenodd" d="M338.568 73.1828V69.1865H339.559V73.1828H338.568Z" fill="#8DD4E9"/>
<path fill-rule="evenodd" clip-rule="evenodd" d="M345.505 76.1279H341.512V75.1362H345.505V76.1279Z" fill="#8DD4E9"/>
<path fill-rule="evenodd" clip-rule="evenodd" d="M336.617 76.1279H332.623V75.1362H336.617V76.1279Z" fill="#8DD4E9"/>
<path fill-rule="evenodd" clip-rule="evenodd" d="M338.568 105.133V101.137H339.559V105.133H338.568Z" fill="#8DD4E9"/>
<path fill-rule="evenodd" clip-rule="evenodd" d="M338.568 96.2484V92.2422H339.559V96.2484H338.568Z" fill="#8DD4E9"/>
<path fill-rule="evenodd" clip-rule="evenodd" d="M345.505 99.1835H341.512V98.1919H345.505V99.1835Z" fill="#8DD4E9"/>
<path fill-rule="evenodd" clip-rule="evenodd" d="M336.617 99.1835H332.623V98.1919H336.617V99.1835Z" fill="#8DD4E9"/>
<path fill-rule="evenodd" clip-rule="evenodd" d="M338.568 128.199V124.203H339.559V128.199H338.568Z" fill="#8DD4E9"/>
<path fill-rule="evenodd" clip-rule="evenodd" d="M338.568 119.304V115.308H339.559V119.304H338.568Z" fill="#8DD4E9"/>
<path fill-rule="evenodd" clip-rule="evenodd" d="M345.505 122.249H341.512V121.257H345.505V122.249Z" fill="#8DD4E9"/>
<path fill-rule="evenodd" clip-rule="evenodd" d="M336.617 122.249H332.623V121.257H336.617V122.249Z" fill="#8DD4E9"/>
<path fill-rule="evenodd" clip-rule="evenodd" d="M338.568 151.264V147.258H339.559V151.264H338.568Z" fill="#8DD4E9"/>
<path fill-rule="evenodd" clip-rule="evenodd" d="M338.568 142.369V138.373H339.559V142.369H338.568Z" fill="#8DD4E9"/>
<path fill-rule="evenodd" clip-rule="evenodd" d="M345.505 145.314H341.512V144.323H345.505V145.314Z" fill="#8DD4E9"/>
<path fill-rule="evenodd" clip-rule="evenodd" d="M336.617 145.314H332.623V144.323H336.617V145.314Z" fill="#8DD4E9"/>
<path fill-rule="evenodd" clip-rule="evenodd" d="M338.568 174.32V170.323H339.559V174.32H338.568Z" fill="#8DD4E9"/>
<path fill-rule="evenodd" clip-rule="evenodd" d="M338.568 165.434V161.428H339.559V165.434H338.568Z" fill="#8DD4E9"/>
<path fill-rule="evenodd" clip-rule="evenodd" d="M345.505 168.37H341.512V167.378H345.505V168.37Z" fill="#8DD4E9"/>
<path fill-rule="evenodd" clip-rule="evenodd" d="M336.617 168.37H332.623V167.378H336.617V168.37Z" fill="#8DD4E9"/>
<path fill-rule="evenodd" clip-rule="evenodd" d="M338.568 197.385V193.389H339.559V197.385H338.568Z" fill="#8DD4E9"/>
<path fill-rule="evenodd" clip-rule="evenodd" d="M338.568 188.49V184.494H339.559V188.49H338.568Z" fill="#8DD4E9"/>
<path fill-rule="evenodd" clip-rule="evenodd" d="M345.505 191.435H341.512V190.444H345.505V191.435Z" fill="#8DD4E9"/>
<path fill-rule="evenodd" clip-rule="evenodd" d="M336.617 191.435H332.623V190.444H336.617V191.435Z" fill="#8DD4E9"/>
<path fill-rule="evenodd" clip-rule="evenodd" d="M338.568 220.451V216.444H339.559V220.451H338.568Z" fill="#8DD4E9"/>
<path fill-rule="evenodd" clip-rule="evenodd" d="M338.568 211.556V207.56H339.559V211.556H338.568Z" fill="#8DD4E9"/>
<path fill-rule="evenodd" clip-rule="evenodd" d="M345.505 214.501H341.512V213.509H345.505V214.501Z" fill="#8DD4E9"/>
<path fill-rule="evenodd" clip-rule="evenodd" d="M336.617 214.501H332.623V213.509H336.617V214.501Z" fill="#8DD4E9"/>
<path fill-rule="evenodd" clip-rule="evenodd" d="M360.736 12.8913V8.89502H361.727V12.8913H360.736Z" fill="#8DD4E9"/>
<path fill-rule="evenodd" clip-rule="evenodd" d="M360.736 3.99629V0H361.727V3.99629H360.736Z" fill="#8DD4E9"/>
<path fill-rule="evenodd" clip-rule="evenodd" d="M367.673 6.94134H363.68V5.94971H367.673V6.94134Z" fill="#8DD4E9"/>
<path fill-rule="evenodd" clip-rule="evenodd" d="M358.785 6.94134H354.791V5.94971H358.785V6.94134Z" fill="#8DD4E9"/>
<path fill-rule="evenodd" clip-rule="evenodd" d="M360.736 35.9569V31.9507H361.727V35.9569H360.736Z" fill="#8DD4E9"/>
<path fill-rule="evenodd" clip-rule="evenodd" d="M360.736 27.0617V23.0654H361.727V27.0617H360.736Z" fill="#8DD4E9"/>
<path fill-rule="evenodd" clip-rule="evenodd" d="M367.673 30.0068H363.68V29.0151H367.673V30.0068Z" fill="#8DD4E9"/>
<path fill-rule="evenodd" clip-rule="evenodd" d="M358.785 30.0068H354.791V29.0151H358.785V30.0068Z" fill="#8DD4E9"/>
<path fill-rule="evenodd" clip-rule="evenodd" d="M360.736 59.0124V55.0161H361.727V59.0124H360.736Z" fill="#8DD4E9"/>
<path fill-rule="evenodd" clip-rule="evenodd" d="M360.736 50.1273V46.1211H361.727V50.1273H360.736Z" fill="#8DD4E9"/>
<path fill-rule="evenodd" clip-rule="evenodd" d="M367.673 53.0624H363.68V52.0708H367.673V53.0624Z" fill="#8DD4E9"/>
<path fill-rule="evenodd" clip-rule="evenodd" d="M358.785 53.0624H354.791V52.0708H358.785V53.0624Z" fill="#8DD4E9"/>
<path fill-rule="evenodd" clip-rule="evenodd" d="M360.736 82.0778V78.0815H361.727V82.0778H360.736Z" fill="#8DD4E9"/>
<path fill-rule="evenodd" clip-rule="evenodd" d="M360.736 73.1828V69.1865H361.727V73.1828H360.736Z" fill="#8DD4E9"/>
<path fill-rule="evenodd" clip-rule="evenodd" d="M367.673 76.1279H363.68V75.1362H367.673V76.1279Z" fill="#8DD4E9"/>
<path fill-rule="evenodd" clip-rule="evenodd" d="M358.785 76.1279H354.791V75.1362H358.785V76.1279Z" fill="#8DD4E9"/>
<path fill-rule="evenodd" clip-rule="evenodd" d="M360.736 105.133V101.137H361.727V105.133H360.736Z" fill="#8DD4E9"/>
<path fill-rule="evenodd" clip-rule="evenodd" d="M360.736 96.2484V92.2422H361.727V96.2484H360.736Z" fill="#8DD4E9"/>
<path fill-rule="evenodd" clip-rule="evenodd" d="M367.673 99.1835H363.68V98.1919H367.673V99.1835Z" fill="#8DD4E9"/>
<path fill-rule="evenodd" clip-rule="evenodd" d="M358.785 99.1835H354.791V98.1919H358.785V99.1835Z" fill="#8DD4E9"/>
<path fill-rule="evenodd" clip-rule="evenodd" d="M360.736 128.199V124.203H361.727V128.199H360.736Z" fill="#8DD4E9"/>
<path fill-rule="evenodd" clip-rule="evenodd" d="M360.736 119.304V115.308H361.727V119.304H360.736Z" fill="#8DD4E9"/>
<path fill-rule="evenodd" clip-rule="evenodd" d="M367.673 122.249H363.68V121.257H367.673V122.249Z" fill="#8DD4E9"/>
<path fill-rule="evenodd" clip-rule="evenodd" d="M358.785 122.249H354.791V121.257H358.785V122.249Z" fill="#8DD4E9"/>
<path fill-rule="evenodd" clip-rule="evenodd" d="M360.736 151.264V147.258H361.727V151.264H360.736Z" fill="#8DD4E9"/>
<path fill-rule="evenodd" clip-rule="evenodd" d="M360.736 142.369V138.373H361.727V142.369H360.736Z" fill="#8DD4E9"/>
<path fill-rule="evenodd" clip-rule="evenodd" d="M367.673 145.314H363.68V144.323H367.673V145.314Z" fill="#8DD4E9"/>
<path fill-rule="evenodd" clip-rule="evenodd" d="M358.785 145.314H354.791V144.323H358.785V145.314Z" fill="#8DD4E9"/>
<path fill-rule="evenodd" clip-rule="evenodd" d="M360.736 174.32V170.323H361.727V174.32H360.736Z" fill="#8DD4E9"/>
<path fill-rule="evenodd" clip-rule="evenodd" d="M360.736 165.434V161.428H361.727V165.434H360.736Z" fill="#8DD4E9"/>
<path fill-rule="evenodd" clip-rule="evenodd" d="M367.673 168.37H363.68V167.378H367.673V168.37Z" fill="#8DD4E9"/>
<path fill-rule="evenodd" clip-rule="evenodd" d="M358.785 168.37H354.791V167.378H358.785V168.37Z" fill="#8DD4E9"/>
<path fill-rule="evenodd" clip-rule="evenodd" d="M360.736 197.385V193.389H361.727V197.385H360.736Z" fill="#8DD4E9"/>
<path fill-rule="evenodd" clip-rule="evenodd" d="M360.736 188.49V184.494H361.727V188.49H360.736Z" fill="#8DD4E9"/>
<path fill-rule="evenodd" clip-rule="evenodd" d="M367.673 191.435H363.68V190.444H367.673V191.435Z" fill="#8DD4E9"/>
<path fill-rule="evenodd" clip-rule="evenodd" d="M358.785 191.435H354.791V190.444H358.785V191.435Z" fill="#8DD4E9"/>
<path fill-rule="evenodd" clip-rule="evenodd" d="M360.736 220.451V216.444H361.727V220.451H360.736Z" fill="#8DD4E9"/>
<path fill-rule="evenodd" clip-rule="evenodd" d="M360.736 211.556V207.56H361.727V211.556H360.736Z" fill="#8DD4E9"/>
<path fill-rule="evenodd" clip-rule="evenodd" d="M367.673 214.501H363.68V213.509H367.673V214.501Z" fill="#8DD4E9"/>
<path fill-rule="evenodd" clip-rule="evenodd" d="M358.785 214.501H354.791V213.509H358.785V214.501Z" fill="#8DD4E9"/>
<path fill-rule="evenodd" clip-rule="evenodd" d="M382.904 12.8913V8.89502H383.895V12.8913H382.904Z" fill="#8DD4E9"/>
<path fill-rule="evenodd" clip-rule="evenodd" d="M382.904 3.99629V0H383.895V3.99629H382.904Z" fill="#8DD4E9"/>
<path fill-rule="evenodd" clip-rule="evenodd" d="M389.841 6.94134H385.838V5.94971H389.841V6.94134Z" fill="#8DD4E9"/>
<path fill-rule="evenodd" clip-rule="evenodd" d="M380.953 6.94134H376.959V5.94971H380.953V6.94134Z" fill="#8DD4E9"/>
<path fill-rule="evenodd" clip-rule="evenodd" d="M382.904 35.9569V31.9507H383.895V35.9569H382.904Z" fill="#8DD4E9"/>
<path fill-rule="evenodd" clip-rule="evenodd" d="M382.904 27.0617V23.0654H383.895V27.0617H382.904Z" fill="#8DD4E9"/>
<path fill-rule="evenodd" clip-rule="evenodd" d="M389.841 30.0068H385.838V29.0151H389.841V30.0068Z" fill="#8DD4E9"/>
<path fill-rule="evenodd" clip-rule="evenodd" d="M380.953 30.0068H376.959V29.0151H380.953V30.0068Z" fill="#8DD4E9"/>
<path fill-rule="evenodd" clip-rule="evenodd" d="M382.904 59.0124V55.0161H383.895V59.0124H382.904Z" fill="#8DD4E9"/>
<path fill-rule="evenodd" clip-rule="evenodd" d="M382.904 50.1273V46.1211H383.895V50.1273H382.904Z" fill="#8DD4E9"/>
<path fill-rule="evenodd" clip-rule="evenodd" d="M389.841 53.0624H385.838V52.0708H389.841V53.0624Z" fill="#8DD4E9"/>
<path fill-rule="evenodd" clip-rule="evenodd" d="M380.953 53.0624H376.959V52.0708H380.953V53.0624Z" fill="#8DD4E9"/>
<path fill-rule="evenodd" clip-rule="evenodd" d="M382.904 82.0778V78.0815H383.895V82.0778H382.904Z" fill="#8DD4E9"/>
<path fill-rule="evenodd" clip-rule="evenodd" d="M382.904 73.1828V69.1865H383.895V73.1828H382.904Z" fill="#8DD4E9"/>
<path fill-rule="evenodd" clip-rule="evenodd" d="M389.841 76.1279H385.838V75.1362H389.841V76.1279Z" fill="#8DD4E9"/>
<path fill-rule="evenodd" clip-rule="evenodd" d="M380.953 76.1279H376.959V75.1362H380.953V76.1279Z" fill="#8DD4E9"/>
<path fill-rule="evenodd" clip-rule="evenodd" d="M382.904 105.133V101.137H383.895V105.133H382.904Z" fill="#8DD4E9"/>
<path fill-rule="evenodd" clip-rule="evenodd" d="M382.904 96.2484V92.2422H383.895V96.2484H382.904Z" fill="#8DD4E9"/>
<path fill-rule="evenodd" clip-rule="evenodd" d="M389.841 99.1835H385.838V98.1919H389.841V99.1835Z" fill="#8DD4E9"/>
<path fill-rule="evenodd" clip-rule="evenodd" d="M380.953 99.1835H376.959V98.1919H380.953V99.1835Z" fill="#8DD4E9"/>
<path fill-rule="evenodd" clip-rule="evenodd" d="M382.904 128.199V124.203H383.895V128.199H382.904Z" fill="#8DD4E9"/>
<path fill-rule="evenodd" clip-rule="evenodd" d="M382.904 119.304V115.308H383.895V119.304H382.904Z" fill="#8DD4E9"/>
<path fill-rule="evenodd" clip-rule="evenodd" d="M389.841 122.249H385.838V121.257H389.841V122.249Z" fill="#8DD4E9"/>
<path fill-rule="evenodd" clip-rule="evenodd" d="M380.953 122.249H376.959V121.257H380.953V122.249Z" fill="#8DD4E9"/>
<path fill-rule="evenodd" clip-rule="evenodd" d="M382.904 151.264V147.258H383.895V151.264H382.904Z" fill="#8DD4E9"/>
<path fill-rule="evenodd" clip-rule="evenodd" d="M382.904 142.369V138.373H383.895V142.369H382.904Z" fill="#8DD4E9"/>
<path fill-rule="evenodd" clip-rule="evenodd" d="M389.841 145.314H385.838V144.323H389.841V145.314Z" fill="#8DD4E9"/>
<path fill-rule="evenodd" clip-rule="evenodd" d="M380.953 145.314H376.959V144.323H380.953V145.314Z" fill="#8DD4E9"/>
<path fill-rule="evenodd" clip-rule="evenodd" d="M382.904 174.32V170.323H383.895V174.32H382.904Z" fill="#8DD4E9"/>
<path fill-rule="evenodd" clip-rule="evenodd" d="M382.904 165.434V161.428H383.895V165.434H382.904Z" fill="#8DD4E9"/>
<path fill-rule="evenodd" clip-rule="evenodd" d="M389.841 168.37H385.838V167.378H389.841V168.37Z" fill="#8DD4E9"/>
<path fill-rule="evenodd" clip-rule="evenodd" d="M380.953 168.37H376.959V167.378H380.953V168.37Z" fill="#8DD4E9"/>
<path fill-rule="evenodd" clip-rule="evenodd" d="M382.904 197.385V193.389H383.895V197.385H382.904Z" fill="#8DD4E9"/>
<path fill-rule="evenodd" clip-rule="evenodd" d="M382.904 188.49V184.494H383.895V188.49H382.904Z" fill="#8DD4E9"/>
<path fill-rule="evenodd" clip-rule="evenodd" d="M389.841 191.435H385.838V190.444H389.841V191.435Z" fill="#8DD4E9"/>
<path fill-rule="evenodd" clip-rule="evenodd" d="M380.953 191.435H376.959V190.444H380.953V191.435Z" fill="#8DD4E9"/>
<path fill-rule="evenodd" clip-rule="evenodd" d="M382.904 220.451V216.444H383.895V220.451H382.904Z" fill="#8DD4E9"/>
<path fill-rule="evenodd" clip-rule="evenodd" d="M382.904 211.556V207.56H383.895V211.556H382.904Z" fill="#8DD4E9"/>
<path fill-rule="evenodd" clip-rule="evenodd" d="M389.841 214.501H385.838V213.509H389.841V214.501Z" fill="#8DD4E9"/>
<path fill-rule="evenodd" clip-rule="evenodd" d="M380.953 214.501H376.959V213.509H380.953V214.501Z" fill="#8DD4E9"/>
<path fill-rule="evenodd" clip-rule="evenodd" d="M405.062 12.8913V8.89502H406.053V12.8913H405.062Z" fill="#8DD4E9"/>
<path fill-rule="evenodd" clip-rule="evenodd" d="M405.062 3.99629V0H406.053V3.99629H405.062Z" fill="#8DD4E9"/>
<path fill-rule="evenodd" clip-rule="evenodd" d="M411.999 6.94134H408.006V5.94971H411.999V6.94134Z" fill="#8DD4E9"/>
<path fill-rule="evenodd" clip-rule="evenodd" d="M403.121 6.94134H399.117V5.94971H403.121V6.94134Z" fill="#8DD4E9"/>
<path fill-rule="evenodd" clip-rule="evenodd" d="M405.062 35.9569V31.9507H406.053V35.9569H405.062Z" fill="#8DD4E9"/>
<path fill-rule="evenodd" clip-rule="evenodd" d="M405.062 27.0617V23.0654H406.053V27.0617H405.062Z" fill="#8DD4E9"/>
<path fill-rule="evenodd" clip-rule="evenodd" d="M411.999 30.0068H408.006V29.0151H411.999V30.0068Z" fill="#8DD4E9"/>
<path fill-rule="evenodd" clip-rule="evenodd" d="M403.121 30.0068H399.117V29.0151H403.121V30.0068Z" fill="#8DD4E9"/>
<path fill-rule="evenodd" clip-rule="evenodd" d="M405.062 59.0124V55.0161H406.053V59.0124H405.062Z" fill="#8DD4E9"/>
<path fill-rule="evenodd" clip-rule="evenodd" d="M405.062 50.1273V46.1211H406.053V50.1273H405.062Z" fill="#8DD4E9"/>
<path fill-rule="evenodd" clip-rule="evenodd" d="M411.999 53.0624H408.006V52.0708H411.999V53.0624Z" fill="#8DD4E9"/>
<path fill-rule="evenodd" clip-rule="evenodd" d="M403.121 53.0624H399.117V52.0708H403.121V53.0624Z" fill="#8DD4E9"/>
<path fill-rule="evenodd" clip-rule="evenodd" d="M405.062 82.0778V78.0815H406.053V82.0778H405.062Z" fill="#8DD4E9"/>
<path fill-rule="evenodd" clip-rule="evenodd" d="M405.062 73.1828V69.1865H406.053V73.1828H405.062Z" fill="#8DD4E9"/>
<path fill-rule="evenodd" clip-rule="evenodd" d="M411.999 76.1279H408.006V75.1362H411.999V76.1279Z" fill="#8DD4E9"/>
<path fill-rule="evenodd" clip-rule="evenodd" d="M403.121 76.1279H399.117V75.1362H403.121V76.1279Z" fill="#8DD4E9"/>
<path fill-rule="evenodd" clip-rule="evenodd" d="M405.062 105.133V101.137H406.053V105.133H405.062Z" fill="#8DD4E9"/>
<path fill-rule="evenodd" clip-rule="evenodd" d="M405.062 96.2484V92.2422H406.053V96.2484H405.062Z" fill="#8DD4E9"/>
<path fill-rule="evenodd" clip-rule="evenodd" d="M411.999 99.1835H408.006V98.1919H411.999V99.1835Z" fill="#8DD4E9"/>
<path fill-rule="evenodd" clip-rule="evenodd" d="M403.121 99.1835H399.117V98.1919H403.121V99.1835Z" fill="#8DD4E9"/>
<path fill-rule="evenodd" clip-rule="evenodd" d="M405.062 128.199V124.203H406.053V128.199H405.062Z" fill="#8DD4E9"/>
<path fill-rule="evenodd" clip-rule="evenodd" d="M405.062 119.304V115.308H406.053V119.304H405.062Z" fill="#8DD4E9"/>
<path fill-rule="evenodd" clip-rule="evenodd" d="M411.999 122.249H408.006V121.257H411.999V122.249Z" fill="#8DD4E9"/>
<path fill-rule="evenodd" clip-rule="evenodd" d="M403.121 122.249H399.117V121.257H403.121V122.249Z" fill="#8DD4E9"/>
<path fill-rule="evenodd" clip-rule="evenodd" d="M405.062 151.264V147.258H406.053V151.264H405.062Z" fill="#8DD4E9"/>
<path fill-rule="evenodd" clip-rule="evenodd" d="M405.062 142.369V138.373H406.053V142.369H405.062Z" fill="#8DD4E9"/>
<path fill-rule="evenodd" clip-rule="evenodd" d="M411.999 145.314H408.006V144.323H411.999V145.314Z" fill="#8DD4E9"/>
<path fill-rule="evenodd" clip-rule="evenodd" d="M403.121 145.314H399.117V144.323H403.121V145.314Z" fill="#8DD4E9"/>
<path fill-rule="evenodd" clip-rule="evenodd" d="M405.062 174.32V170.323H406.053V174.32H405.062Z" fill="#8DD4E9"/>
<path fill-rule="evenodd" clip-rule="evenodd" d="M405.062 165.434V161.428H406.053V165.434H405.062Z" fill="#8DD4E9"/>
<path fill-rule="evenodd" clip-rule="evenodd" d="M411.999 168.37H408.006V167.378H411.999V168.37Z" fill="#8DD4E9"/>
<path fill-rule="evenodd" clip-rule="evenodd" d="M403.121 168.37H399.117V167.378H403.121V168.37Z" fill="#8DD4E9"/>
<path fill-rule="evenodd" clip-rule="evenodd" d="M405.062 197.385V193.389H406.053V197.385H405.062Z" fill="#8DD4E9"/>
<path fill-rule="evenodd" clip-rule="evenodd" d="M405.062 188.49V184.494H406.053V188.49H405.062Z" fill="#8DD4E9"/>
<path fill-rule="evenodd" clip-rule="evenodd" d="M411.999 191.435H408.006V190.444H411.999V191.435Z" fill="#8DD4E9"/>
<path fill-rule="evenodd" clip-rule="evenodd" d="M403.121 191.435H399.117V190.444H403.121V191.435Z" fill="#8DD4E9"/>
<path fill-rule="evenodd" clip-rule="evenodd" d="M405.062 220.451V216.444H406.053V220.451H405.062Z" fill="#8DD4E9"/>
<path fill-rule="evenodd" clip-rule="evenodd" d="M405.062 211.556V207.56H406.053V211.556H405.062Z" fill="#8DD4E9"/>
<path fill-rule="evenodd" clip-rule="evenodd" d="M411.999 214.501H408.006V213.509H411.999V214.501Z" fill="#8DD4E9"/>
<path fill-rule="evenodd" clip-rule="evenodd" d="M403.121 214.501H399.117V213.509H403.121V214.501Z" fill="#8DD4E9"/>
</svg>
