<svg width="1241" height="1168" viewBox="0 0 1241 1168" fill="none" xmlns="http://www.w3.org/2000/svg">
<g clip-path="url(#clip0)">
<path d="M1236.51 232.662C1213.69 96.5138 1084.8 4.65262 948.658 27.4806C812.512 50.3085 720.653 179.194 743.481 315.342C766.308 451.491 895.191 543.362 1031.34 520.514C1167.48 497.666 1259.36 368.801 1236.51 232.662ZM1013.24 412.639C985.823 417.239 957.654 413.603 932.298 402.192C906.943 390.781 885.541 372.106 870.8 348.531C856.058 324.955 848.639 297.538 849.481 269.746C850.323 241.953 859.388 215.035 875.529 192.395C891.67 169.754 914.163 152.41 940.162 142.554C966.161 132.698 994.5 130.775 1021.59 137.026C1048.69 143.277 1073.32 157.423 1092.37 177.673C1111.42 197.924 1124.04 223.372 1128.63 250.795C1134.78 287.556 1126.08 325.255 1104.44 355.602C1082.81 385.95 1050 406.461 1013.24 412.628V412.639Z" fill="url(#paint0_linear)"/>
<path d="M433.532 541.123C404.295 366.86 239.348 249.27 65.0784 278.498C-109.192 307.726 -226.771 472.685 -197.553 646.958C-168.335 821.231 -3.35916 938.811 170.951 909.583C345.261 880.355 462.76 715.396 433.532 541.123ZM152.862 801.984C38.0145 821.241 -70.6998 743.757 -89.9557 628.908C-109.212 514.059 -31.7294 405.343 83.1177 386.087C197.965 366.83 306.679 444.314 325.935 559.163C345.191 674.012 267.679 782.728 152.862 801.984Z" fill="url(#paint1_linear)"/>
<path d="M80 163H-64C-63.9867 124.813 -48.8111 88.1932 -21.8087 61.1907C5.19363 34.1881 41.8129 19.0133 80 19V163Z" fill="url(#paint2_linear)"/>
<path d="M1007 1167C1095.37 1167 1167 1095.37 1167 1007C1167 918.634 1095.37 847 1007 847C918.634 847 847 918.634 847 1007C847 1095.37 918.634 1167 1007 1167Z" fill="url(#paint3_linear)"/>
</g>
<defs>
<linearGradient id="paint0_linear" x1="1146.13" y1="111.889" x2="823.835" y2="446.499" gradientUnits="userSpaceOnUse">
<stop stop-color="#E4C1FF" stop-opacity="0.5"/>
<stop offset="0.08" stop-color="#E4C1FF" stop-opacity="0.43"/>
<stop offset="0.27" stop-color="#E4C1FF" stop-opacity="0.28"/>
<stop offset="0.47" stop-color="#E4C1FF" stop-opacity="0.16"/>
<stop offset="0.66" stop-color="#E4C1FF" stop-opacity="0.07"/>
<stop offset="0.84" stop-color="#E4C1FF" stop-opacity="0.02"/>
<stop offset="1" stop-color="#E4C1FF" stop-opacity="0"/>
</linearGradient>
<linearGradient id="paint1_linear" x1="-133.952" y1="746.738" x2="382.74" y2="433.601" gradientUnits="userSpaceOnUse">
<stop stop-color="#81D4FA" stop-opacity="0.5"/>
<stop offset="0.25" stop-color="#81D4FA" stop-opacity="0.35"/>
<stop offset="0.59" stop-color="#81D4FA" stop-opacity="0.16"/>
<stop offset="0.85" stop-color="#81D4FA" stop-opacity="0.04"/>
<stop offset="1" stop-color="#81D4FA" stop-opacity="0"/>
</linearGradient>
<linearGradient id="paint2_linear" x1="79.3098" y1="162.31" x2="-15.6832" y2="67.3068" gradientUnits="userSpaceOnUse">
<stop stop-color="#B7E9E9" stop-opacity="0"/>
<stop offset="0.13" stop-color="#B7E9E9" stop-opacity="0.03"/>
<stop offset="0.32" stop-color="#B7E9E9" stop-opacity="0.11"/>
<stop offset="0.54" stop-color="#B7E9E9" stop-opacity="0.23"/>
<stop offset="0.78" stop-color="#B7E9E9" stop-opacity="0.41"/>
<stop offset="1" stop-color="#B7E9E9" stop-opacity="0.6"/>
</linearGradient>
<linearGradient id="paint3_linear" x1="936.595" y1="887.858" x2="1093.39" y2="1153.21" gradientUnits="userSpaceOnUse">
<stop stop-color="white" stop-opacity="0.4"/>
<stop offset="0.29" stop-color="#FDF4F7" stop-opacity="0.43"/>
<stop offset="0.68" stop-color="#F6D6E0" stop-opacity="0.51"/>
<stop offset="1" stop-color="#EFB3C7" stop-opacity="0.6"/>
</linearGradient>
<clipPath id="clip0">
<rect width="1414" height="1168" fill="white" transform="translate(-173)"/>
</clipPath>
</defs>
</svg>
