<svg width="1280" height="1168" viewBox="0 0 1280 1168" fill="none" xmlns="http://www.w3.org/2000/svg">
<g clip-path="url(#clip0)">
<path d="M1334.51 232.662C1311.69 96.5138 1182.8 4.65262 1046.66 27.4806C910.512 50.3085 818.653 179.194 841.481 315.342C864.308 451.491 993.191 543.362 1129.34 520.514C1265.48 497.666 1357.36 368.801 1334.51 232.662ZM1111.24 412.639C1083.82 417.239 1055.65 413.603 1030.3 402.192C1004.94 390.781 983.541 372.106 968.8 348.531C954.058 324.955 946.639 297.538 947.481 269.746C948.323 241.953 957.388 215.035 973.529 192.395C989.67 169.754 1012.16 152.41 1038.16 142.554C1064.16 132.698 1092.5 130.775 1119.59 137.026C1146.69 143.277 1171.32 157.423 1190.37 177.673C1209.42 197.924 1222.04 223.372 1226.63 250.795C1232.78 287.556 1224.08 325.255 1202.44 355.602C1180.81 385.95 1148 406.461 1111.24 412.628V412.639Z" fill="url(#paint0_linear)"/>
<path d="M531.532 541.123C502.295 366.86 337.348 249.27 163.078 278.498C-11.1916 307.726 -128.771 472.685 -99.5531 646.958C-70.3353 821.231 94.6408 938.811 268.951 909.583C443.261 880.355 560.76 715.396 531.532 541.123ZM250.862 801.984C136.014 821.241 27.3002 743.757 8.04433 628.908C-11.2115 514.059 66.2706 405.343 181.118 386.087C295.965 366.83 404.679 444.314 423.935 559.163C443.191 674.012 365.679 782.728 250.862 801.984Z" fill="url(#paint1_linear)"/>
<path d="M178 163H34C34.0133 124.813 49.1889 88.1932 76.1913 61.1907C103.194 34.1881 139.813 19.0133 178 19V163Z" fill="url(#paint2_linear)"/>
<path d="M1105 1167C1193.37 1167 1265 1095.37 1265 1007C1265 918.634 1193.37 847 1105 847C1016.63 847 945 918.634 945 1007C945 1095.37 1016.63 1167 1105 1167Z" fill="url(#paint3_linear)"/>
</g>
<defs>
<linearGradient id="paint0_linear" x1="1244.13" y1="111.889" x2="921.835" y2="446.499" gradientUnits="userSpaceOnUse">
<stop stop-color="#E4C1FF" stop-opacity="0.5"/>
<stop offset="0.08" stop-color="#E4C1FF" stop-opacity="0.43"/>
<stop offset="0.27" stop-color="#E4C1FF" stop-opacity="0.28"/>
<stop offset="0.47" stop-color="#E4C1FF" stop-opacity="0.16"/>
<stop offset="0.66" stop-color="#E4C1FF" stop-opacity="0.07"/>
<stop offset="0.84" stop-color="#E4C1FF" stop-opacity="0.02"/>
<stop offset="1" stop-color="#E4C1FF" stop-opacity="0"/>
</linearGradient>
<linearGradient id="paint1_linear" x1="-35.952" y1="746.738" x2="480.74" y2="433.601" gradientUnits="userSpaceOnUse">
<stop stop-color="#81D4FA" stop-opacity="0.5"/>
<stop offset="0.25" stop-color="#81D4FA" stop-opacity="0.35"/>
<stop offset="0.59" stop-color="#81D4FA" stop-opacity="0.16"/>
<stop offset="0.85" stop-color="#81D4FA" stop-opacity="0.04"/>
<stop offset="1" stop-color="#81D4FA" stop-opacity="0"/>
</linearGradient>
<linearGradient id="paint2_linear" x1="177.31" y1="162.31" x2="82.3168" y2="67.3068" gradientUnits="userSpaceOnUse">
<stop stop-color="#B7E9E9" stop-opacity="0"/>
<stop offset="0.13" stop-color="#B7E9E9" stop-opacity="0.03"/>
<stop offset="0.32" stop-color="#B7E9E9" stop-opacity="0.11"/>
<stop offset="0.54" stop-color="#B7E9E9" stop-opacity="0.23"/>
<stop offset="0.78" stop-color="#B7E9E9" stop-opacity="0.41"/>
<stop offset="1" stop-color="#B7E9E9" stop-opacity="0.6"/>
</linearGradient>
<linearGradient id="paint3_linear" x1="1034.59" y1="887.858" x2="1191.39" y2="1153.21" gradientUnits="userSpaceOnUse">
<stop stop-color="white" stop-opacity="0.4"/>
<stop offset="0.29" stop-color="#FDF4F7" stop-opacity="0.43"/>
<stop offset="0.68" stop-color="#F6D6E0" stop-opacity="0.51"/>
<stop offset="1" stop-color="#EFB3C7" stop-opacity="0.6"/>
</linearGradient>
<clipPath id="clip0">
<rect width="1414" height="1168" fill="white" transform="translate(-75)"/>
</clipPath>
</defs>
</svg>
