<svg width="1280" height="636" viewBox="0 0 1280 636" fill="none" xmlns="http://www.w3.org/2000/svg">
<g clip-path="url(#clip0)">
<path d="M1280 0H0V636H1280V0Z" fill="url(#paint0_linear)"/>
<path d="M1281.6 257.859C1165.8 257.859 1072 351.745 1072 467.426C1072 583.108 1165.9 676.993 1281.6 676.993C1397.3 676.993 1491.2 583.108 1491.2 467.426C1491.2 351.745 1397.4 257.859 1281.6 257.859ZM1285.1 589.207C1217.8 589.207 1163.3 534.716 1163.3 467.426C1163.3 400.137 1217.8 345.646 1285.1 345.646C1352.4 345.646 1406.9 400.137 1406.9 467.426C1406.9 534.716 1352.4 589.207 1285.1 589.207Z" fill="url(#paint1_linear)"/>
<path d="M719.999 409.835L713.799 405.336L713.199 412.935L719.999 409.835Z" stroke="#8B3ACA" stroke-miterlimit="10"/>
<path d="M716.5 411.436L718.7 416.136" stroke="#8B3ACA" stroke-miterlimit="10"/>
<path d="M769.3 387.539L763 382.94L762.5 390.638L769.3 387.539Z" stroke="#8B3ACA" stroke-miterlimit="10"/>
<path d="M765.801 389.14L767.901 393.84" stroke="#8B3ACA" stroke-miterlimit="10"/>
<path d="M818.599 365.243L812.299 360.643L811.699 368.242L818.599 365.243Z" stroke="#8B3ACA" stroke-miterlimit="10"/>
<path d="M815.1 366.743L817.2 371.543" stroke="#8B3ACA" stroke-miterlimit="10"/>
<path d="M867.8 342.846L861.6 338.347L861 345.945L867.8 342.846Z" stroke="#8B3ACA" stroke-miterlimit="10"/>
<path d="M864.301 344.447L866.501 349.147" stroke="#8B3ACA" stroke-miterlimit="10"/>
<path d="M917.099 320.55L910.799 315.95L910.299 323.649L917.099 320.55Z" stroke="#8B3ACA" stroke-miterlimit="10"/>
<path d="M913.6 322.15L915.8 326.85" stroke="#8B3ACA" stroke-miterlimit="10"/>
<path d="M966.4 298.153L960.1 293.654L959.5 301.253L966.4 298.153Z" stroke="#8B3ACA" stroke-miterlimit="10"/>
<path d="M962.9 299.754L965 304.454" stroke="#8B3ACA" stroke-miterlimit="10"/>
<path d="M1015.6 275.857L1009.4 271.257L1008.8 278.956L1015.6 275.857Z" stroke="#8B3ACA" stroke-miterlimit="10"/>
<path d="M1012.2 277.457L1014.3 282.157" stroke="#8B3ACA" stroke-miterlimit="10"/>
<path d="M1064.9 253.56L1058.6 248.961L1058.1 256.56L1064.9 253.56Z" stroke="#8B3ACA" stroke-miterlimit="10"/>
<path d="M1061.4 255.061L1063.6 259.861" stroke="#8B3ACA" stroke-miterlimit="10"/>
<path d="M1114.2 231.164L1107.9 226.664L1107.4 234.263L1114.2 231.164Z" stroke="#8B3ACA" stroke-miterlimit="10"/>
<path d="M1110.7 232.764L1112.8 237.464" stroke="#8B3ACA" stroke-miterlimit="10"/>
<path d="M1163.5 208.867L1157.2 204.268L1156.6 211.967L1163.5 208.867Z" stroke="#8B3ACA" stroke-miterlimit="10"/>
<path d="M1160 210.468L1162.1 215.168" stroke="#8B3ACA" stroke-miterlimit="10"/>
<path d="M760.199 430.432L753.899 425.933L753.299 433.532L760.199 430.432Z" stroke="#8B3ACA" stroke-miterlimit="10"/>
<path d="M756.699 432.033L758.799 436.733" stroke="#8B3ACA" stroke-miterlimit="10"/>
<path d="M809.4 408.136L803.2 403.536L802.6 411.235L809.4 408.136Z" stroke="#8B3ACA" stroke-miterlimit="10"/>
<path d="M805.9 409.736L808.1 414.436" stroke="#8B3ACA" stroke-miterlimit="10"/>
<path d="M858.698 385.739L852.398 381.24L851.898 388.839L858.698 385.739Z" stroke="#8B3ACA" stroke-miterlimit="10"/>
<path d="M855.199 387.34L857.299 392.14" stroke="#8B3ACA" stroke-miterlimit="10"/>
<path d="M908 363.443L901.7 358.943L901.1 366.542L908 363.443Z" stroke="#8B3ACA" stroke-miterlimit="10"/>
<path d="M904.5 365.042L906.6 369.742" stroke="#8B3ACA" stroke-miterlimit="10"/>
<path d="M957.198 341.146L950.998 336.547L950.398 344.246L957.198 341.146Z" stroke="#8B3ACA" stroke-miterlimit="10"/>
<path d="M953.699 342.647L955.899 347.447" stroke="#8B3ACA" stroke-miterlimit="10"/>
<path d="M1006.5 318.75L1000.2 314.25L999.699 321.849L1006.5 318.75Z" stroke="#8B3ACA" stroke-miterlimit="10"/>
<path d="M1003 320.35L1005.2 325.05" stroke="#8B3ACA" stroke-miterlimit="10"/>
<path d="M1055.8 296.453L1049.5 291.854L1048.9 299.553L1055.8 296.453Z" stroke="#8B3ACA" stroke-miterlimit="10"/>
<path d="M1052.3 298.054L1054.4 302.754" stroke="#8B3ACA" stroke-miterlimit="10"/>
<path d="M1105 274.057L1098.8 269.557L1098.2 277.156L1105 274.057Z" stroke="#8B3ACA" stroke-miterlimit="10"/>
<path d="M1101.6 275.657L1103.7 280.457" stroke="#8B3ACA" stroke-miterlimit="10"/>
<path d="M1154.3 251.76L1148 247.261L1147.5 254.86L1154.3 251.76Z" stroke="#8B3ACA" stroke-miterlimit="10"/>
<path d="M1150.8 253.361L1153 258.061" stroke="#8B3ACA" stroke-miterlimit="10"/>
<path d="M1203.6 229.464L1197.3 224.865L1196.8 232.563L1203.6 229.464Z" stroke="#8B3ACA" stroke-miterlimit="10"/>
<path d="M1200.1 230.964L1202.2 235.764" stroke="#8B3ACA" stroke-miterlimit="10"/>
<path d="M749.198 474.225L742.898 469.626L742.398 477.325L749.198 474.225Z" stroke="#8B3ACA" stroke-miterlimit="10"/>
<path d="M745.699 475.826L747.899 480.526" stroke="#8B3ACA" stroke-miterlimit="10"/>
<path d="M798.498 451.829L792.198 447.33L791.598 454.928L798.498 451.829Z" stroke="#8B3ACA" stroke-miterlimit="10"/>
<path d="M794.998 453.43L797.098 458.23" stroke="#8B3ACA" stroke-miterlimit="10"/>
<path d="M847.698 429.532L841.498 425.033L840.898 432.632L847.698 429.532Z" stroke="#8B3ACA" stroke-miterlimit="10"/>
<path d="M844.199 431.133L846.399 435.833" stroke="#8B3ACA" stroke-miterlimit="10"/>
<path d="M896.999 407.236L890.699 402.637L890.199 410.336L896.999 407.236Z" stroke="#8B3ACA" stroke-miterlimit="10"/>
<path d="M893.5 408.737L895.7 413.537" stroke="#8B3ACA" stroke-miterlimit="10"/>
<path d="M946.298 384.839L939.998 380.34L939.498 387.939L946.298 384.839Z" stroke="#8B3ACA" stroke-miterlimit="10"/>
<path d="M942.799 386.44L944.899 391.14" stroke="#8B3ACA" stroke-miterlimit="10"/>
<path d="M995.499 362.543L989.299 357.944L988.699 365.642L995.499 362.543Z" stroke="#8B3ACA" stroke-miterlimit="10"/>
<path d="M992.1 364.144L994.2 368.844" stroke="#8B3ACA" stroke-miterlimit="10"/>
<path d="M1044.8 340.147L1038.5 335.647L1038 343.246L1044.8 340.147Z" stroke="#8B3ACA" stroke-miterlimit="10"/>
<path d="M1041.3 341.747L1043.5 346.547" stroke="#8B3ACA" stroke-miterlimit="10"/>
<path d="M1094.1 317.85L1087.8 313.351L1087.3 320.95L1094.1 317.85Z" stroke="#8B3ACA" stroke-miterlimit="10"/>
<path d="M1090.6 319.451L1092.7 324.151" stroke="#8B3ACA" stroke-miterlimit="10"/>
<path d="M1143.4 295.554L1137.1 290.954L1136.5 298.653L1143.4 295.554Z" stroke="#8B3ACA" stroke-miterlimit="10"/>
<path d="M1139.9 297.054L1142 301.854" stroke="#8B3ACA" stroke-miterlimit="10"/>
<path d="M1192.6 273.157L1186.4 268.658L1185.8 276.257L1192.6 273.157Z" stroke="#8B3ACA" stroke-miterlimit="10"/>
<path d="M1189.1 274.758L1191.3 279.458" stroke="#8B3ACA" stroke-miterlimit="10"/>
<path d="M1241.9 250.86L1235.6 246.261L1235.1 253.96L1241.9 250.86Z" stroke="#8B3ACA" stroke-miterlimit="10"/>
<path d="M1238.4 252.361L1240.6 257.161" stroke="#8B3ACA" stroke-miterlimit="10"/>
<path d="M789.3 494.822L783.1 490.223L782.5 497.922L789.3 494.822Z" stroke="#8B3ACA" stroke-miterlimit="10"/>
<path d="M785.801 496.423L788.001 501.123" stroke="#8B3ACA" stroke-miterlimit="10"/>
<path d="M838.601 472.426L832.301 467.926L831.801 475.525L838.601 472.426Z" stroke="#8B3ACA" stroke-miterlimit="10"/>
<path d="M835.102 474.026L837.302 478.726" stroke="#8B3ACA" stroke-miterlimit="10"/>
<path d="M887.9 450.129L881.6 445.53L881 453.229L887.9 450.129Z" stroke="#8B3ACA" stroke-miterlimit="10"/>
<path d="M884.4 451.73L886.5 456.43" stroke="#8B3ACA" stroke-miterlimit="10"/>
<path d="M937.101 427.833L930.901 423.233L930.301 430.932L937.101 427.833Z" stroke="#8B3ACA" stroke-miterlimit="10"/>
<path d="M933.701 429.333L935.801 434.133" stroke="#8B3ACA" stroke-miterlimit="10"/>
<path d="M986.4 405.436L980.1 400.937L979.6 408.536L986.4 405.436Z" stroke="#8B3ACA" stroke-miterlimit="10"/>
<path d="M982.9 407.037L985.1 411.737" stroke="#8B3ACA" stroke-miterlimit="10"/>
<path d="M1035.7 383.14L1029.4 378.54L1028.9 386.239L1035.7 383.14Z" stroke="#8B3ACA" stroke-miterlimit="10"/>
<path d="M1032.2 384.739L1034.3 389.439" stroke="#8B3ACA" stroke-miterlimit="10"/>
<path d="M1085 360.743L1078.7 356.244L1078.1 363.843L1085 360.743Z" stroke="#8B3ACA" stroke-miterlimit="10"/>
<path d="M1081.5 362.344L1083.6 367.044" stroke="#8B3ACA" stroke-miterlimit="10"/>
<path d="M1134.2 338.447L1128 333.847L1127.4 341.546L1134.2 338.447Z" stroke="#8B3ACA" stroke-miterlimit="10"/>
<path d="M1130.7 340.047L1132.9 344.747" stroke="#8B3ACA" stroke-miterlimit="10"/>
<path d="M1183.5 316.15L1177.2 311.551L1176.7 319.25L1183.5 316.15Z" stroke="#8B3ACA" stroke-miterlimit="10"/>
<path d="M1180 317.651L1182.1 322.451" stroke="#8B3ACA" stroke-miterlimit="10"/>
<path d="M1232.8 293.754L1226.5 289.254L1225.9 296.853L1232.8 293.754Z" stroke="#8B3ACA" stroke-miterlimit="10"/>
<path d="M1229.3 295.354L1231.4 300.054" stroke="#8B3ACA" stroke-miterlimit="10"/>
<path d="M778.4 538.515L772.1 534.016L771.5 541.615L778.4 538.515Z" stroke="#8B3ACA" stroke-miterlimit="10"/>
<path d="M774.9 540.116L777 544.816" stroke="#8B3ACA" stroke-miterlimit="10"/>
<path d="M827.601 516.219L821.401 511.62L820.801 519.318L827.601 516.219Z" stroke="#8B3ACA" stroke-miterlimit="10"/>
<path d="M824.201 517.82L826.301 522.52" stroke="#8B3ACA" stroke-miterlimit="10"/>
<path d="M876.9 493.922L870.6 489.323L870.1 496.922L876.9 493.922Z" stroke="#8B3ACA" stroke-miterlimit="10"/>
<path d="M873.4 495.423L875.6 500.223" stroke="#8B3ACA" stroke-miterlimit="10"/>
<path d="M926.2 471.526L919.9 467.027L919.4 474.625L926.2 471.526Z" stroke="#8B3ACA" stroke-miterlimit="10"/>
<path d="M922.701 473.127L924.801 477.827" stroke="#8B3ACA" stroke-miterlimit="10"/>
<path d="M975.5 449.229L969.2 444.63L968.6 452.329L975.5 449.229Z" stroke="#8B3ACA" stroke-miterlimit="10"/>
<path d="M972 450.83L974.1 455.53" stroke="#8B3ACA" stroke-miterlimit="10"/>
<path d="M1024.7 426.833L1018.5 422.333L1017.9 429.932L1024.7 426.833Z" stroke="#8B3ACA" stroke-miterlimit="10"/>
<path d="M1021.2 428.433L1023.4 433.133" stroke="#8B3ACA" stroke-miterlimit="10"/>
<path d="M1074 404.536L1067.7 399.937L1067.2 407.636L1074 404.536Z" stroke="#8B3ACA" stroke-miterlimit="10"/>
<path d="M1070.5 406.137L1072.6 410.837" stroke="#8B3ACA" stroke-miterlimit="10"/>
<path d="M1123.3 382.24L1117 377.641L1116.4 385.339L1123.3 382.24Z" stroke="#8B3ACA" stroke-miterlimit="10"/>
<path d="M1119.8 383.741L1121.9 388.541" stroke="#8B3ACA" stroke-miterlimit="10"/>
<path d="M1172.5 359.843L1166.3 355.344L1165.7 362.943L1172.5 359.843Z" stroke="#8B3ACA" stroke-miterlimit="10"/>
<path d="M1169 361.444L1171.2 366.144" stroke="#8B3ACA" stroke-miterlimit="10"/>
<path d="M1221.8 337.547L1215.5 332.948L1215 340.646L1221.8 337.547Z" stroke="#8B3ACA" stroke-miterlimit="10"/>
<path d="M1218.3 339.148L1220.5 343.848" stroke="#8B3ACA" stroke-miterlimit="10"/>
<path d="M1271.5 314.651L1265.2 310.151L1264.7 317.75L1271.5 314.651Z" stroke="#8B3ACA" stroke-miterlimit="10"/>
<path d="M1268 316.251L1270.1 320.951" stroke="#8B3ACA" stroke-miterlimit="10"/>
<path d="M818.499 559.112L812.199 554.613L811.699 562.211L818.499 559.112Z" stroke="#8B3ACA" stroke-miterlimit="10"/>
<path d="M815 560.713L817.2 565.413" stroke="#8B3ACA" stroke-miterlimit="10"/>
<path d="M867.8 536.816L861.5 532.216L861 539.915L867.8 536.816Z" stroke="#8B3ACA" stroke-miterlimit="10"/>
<path d="M864.301 538.416L866.401 543.116" stroke="#8B3ACA" stroke-miterlimit="10"/>
<path d="M916.999 514.419L910.799 509.92L910.199 517.519L916.999 514.419Z" stroke="#8B3ACA" stroke-miterlimit="10"/>
<path d="M913.6 516.02L915.7 520.82" stroke="#8B3ACA" stroke-miterlimit="10"/>
<path d="M966.3 492.123L960.1 487.623L959.5 495.222L966.3 492.123Z" stroke="#8B3ACA" stroke-miterlimit="10"/>
<path d="M962.801 493.723L965.001 498.423" stroke="#8B3ACA" stroke-miterlimit="10"/>
<path d="M1015.6 469.826L1009.3 465.227L1008.8 472.926L1015.6 469.826Z" stroke="#8B3ACA" stroke-miterlimit="10"/>
<path d="M1012.1 471.327L1014.2 476.127" stroke="#8B3ACA" stroke-miterlimit="10"/>
<path d="M1064.9 447.43L1058.6 442.93L1058 450.529L1064.9 447.43Z" stroke="#8B3ACA" stroke-miterlimit="10"/>
<path d="M1061.4 449.03L1063.5 453.73" stroke="#8B3ACA" stroke-miterlimit="10"/>
<path d="M1114.1 425.133L1107.9 420.534L1107.3 428.233L1114.1 425.133Z" stroke="#8B3ACA" stroke-miterlimit="10"/>
<path d="M1110.6 426.734L1112.8 431.434" stroke="#8B3ACA" stroke-miterlimit="10"/>
<path d="M1163.4 402.737L1157.1 398.237L1156.6 405.836L1163.4 402.737Z" stroke="#8B3ACA" stroke-miterlimit="10"/>
<path d="M1159.9 404.337L1162.1 409.137" stroke="#8B3ACA" stroke-miterlimit="10"/>
<path d="M1212.7 380.44L1206.4 375.941L1205.8 383.54L1212.7 380.44Z" stroke="#8B3ACA" stroke-miterlimit="10"/>
<path d="M1209.2 382.041L1211.3 386.741" stroke="#8B3ACA" stroke-miterlimit="10"/>
<path d="M1261.9 358.144L1255.7 353.544L1255.1 361.243L1261.9 358.144Z" stroke="#8B3ACA" stroke-miterlimit="10"/>
<path d="M1258.5 359.744L1260.6 364.444" stroke="#8B3ACA" stroke-miterlimit="10"/>
<path d="M807.599 602.905L801.299 598.306L800.699 606.005L807.599 602.905Z" stroke="#8B3ACA" stroke-miterlimit="10"/>
<path d="M804.1 604.506L806.2 609.206" stroke="#8B3ACA" stroke-miterlimit="10"/>
<path d="M856.8 580.509L850.6 576.009L850 583.608L856.8 580.509Z" stroke="#8B3ACA" stroke-miterlimit="10"/>
<path d="M853.301 582.109L855.501 586.909" stroke="#8B3ACA" stroke-miterlimit="10"/>
<path d="M906.099 558.212L899.799 553.713L899.299 561.312L906.099 558.212Z" stroke="#8B3ACA" stroke-miterlimit="10"/>
<path d="M902.6 559.813L904.7 564.513" stroke="#8B3ACA" stroke-miterlimit="10"/>
<path d="M955.4 535.916L949.1 531.317L948.5 539.015L955.4 535.916Z" stroke="#8B3ACA" stroke-miterlimit="10"/>
<path d="M951.9 537.417L954 542.216" stroke="#8B3ACA" stroke-miterlimit="10"/>
<path d="M1004.6 513.519L998.399 509.02L997.799 516.619L1004.6 513.519Z" stroke="#8B3ACA" stroke-miterlimit="10"/>
<path d="M1001.1 515.12L1003.3 519.82" stroke="#8B3ACA" stroke-miterlimit="10"/>
<path d="M1053.9 491.223L1047.6 486.624L1047.1 494.322L1053.9 491.223Z" stroke="#8B3ACA" stroke-miterlimit="10"/>
<path d="M1050.4 492.823L1052.6 497.523" stroke="#8B3ACA" stroke-miterlimit="10"/>
<path d="M1103.2 468.826L1096.9 464.327L1096.3 471.926L1103.2 468.826Z" stroke="#8B3ACA" stroke-miterlimit="10"/>
<path d="M1099.7 470.427L1101.8 475.227" stroke="#8B3ACA" stroke-miterlimit="10"/>
<path d="M1152.4 446.53L1146.2 442.031L1145.6 449.629L1152.4 446.53Z" stroke="#8B3ACA" stroke-miterlimit="10"/>
<path d="M1149 448.13L1151.1 452.83" stroke="#8B3ACA" stroke-miterlimit="10"/>
<path d="M1201.7 424.233L1195.4 419.634L1194.9 427.333L1201.7 424.233Z" stroke="#8B3ACA" stroke-miterlimit="10"/>
<path d="M1198.2 425.734L1200.4 430.534" stroke="#8B3ACA" stroke-miterlimit="10"/>
<path d="M1251 401.837L1244.7 397.338L1244.2 404.936L1251 401.837Z" stroke="#8B3ACA" stroke-miterlimit="10"/>
<path d="M1247.5 403.438L1249.6 408.138" stroke="#8B3ACA" stroke-miterlimit="10"/>
<path d="M847.698 623.502L841.398 618.903L840.898 626.601L847.698 623.502Z" stroke="#8B3ACA" stroke-miterlimit="10"/>
<path d="M844.199 625.103L846.299 629.803" stroke="#8B3ACA" stroke-miterlimit="10"/>
<path d="M896.998 601.106L890.698 596.606L890.098 604.205L896.998 601.106Z" stroke="#8B3ACA" stroke-miterlimit="10"/>
<path d="M893.498 602.706L895.598 607.406" stroke="#8B3ACA" stroke-miterlimit="10"/>
<path d="M946.198 578.809L939.998 574.21L939.398 581.909L946.198 578.809Z" stroke="#8B3ACA" stroke-miterlimit="10"/>
<path d="M942.699 580.41L944.899 585.11" stroke="#8B3ACA" stroke-miterlimit="10"/>
<path d="M995.499 556.512L989.199 551.913L988.699 559.612L995.499 556.512Z" stroke="#8B3ACA" stroke-miterlimit="10"/>
<path d="M992 558.013L994.2 562.813" stroke="#8B3ACA" stroke-miterlimit="10"/>
<path d="M1044.8 534.116L1038.5 529.617L1037.9 537.215L1044.8 534.116Z" stroke="#8B3ACA" stroke-miterlimit="10"/>
<path d="M1041.3 535.717L1043.4 540.417" stroke="#8B3ACA" stroke-miterlimit="10"/>
<path d="M1094 511.82L1087.8 507.22L1087.2 514.919L1094 511.82Z" stroke="#8B3ACA" stroke-miterlimit="10"/>
<path d="M1090.5 513.419L1092.7 518.119" stroke="#8B3ACA" stroke-miterlimit="10"/>
<path d="M1143.3 489.423L1137 484.924L1136.5 492.523L1143.3 489.423Z" stroke="#8B3ACA" stroke-miterlimit="10"/>
<path d="M1139.8 491.024L1142 495.724" stroke="#8B3ACA" stroke-miterlimit="10"/>
<path d="M1192.6 467.126L1186.3 462.627L1185.8 470.226L1192.6 467.126Z" stroke="#8B3ACA" stroke-miterlimit="10"/>
<path d="M1189.1 468.727L1191.2 473.427" stroke="#8B3ACA" stroke-miterlimit="10"/>
<path d="M1241.8 444.83L1235.6 440.231L1235 447.93L1241.8 444.83Z" stroke="#8B3ACA" stroke-miterlimit="10"/>
<path d="M1238.4 446.331L1240.5 451.131" stroke="#8B3ACA" stroke-miterlimit="10"/>
<path d="M935.298 622.602L928.998 618.003L928.398 625.702L935.298 622.602Z" stroke="#8B3ACA" stroke-miterlimit="10"/>
<path d="M931.799 624.103L933.899 628.903" stroke="#8B3ACA" stroke-miterlimit="10"/>
<path d="M984.499 600.206L978.299 595.706L977.699 603.305L984.499 600.206Z" stroke="#8B3ACA" stroke-miterlimit="10"/>
<path d="M981 601.806L983.2 606.506" stroke="#8B3ACA" stroke-miterlimit="10"/>
<path d="M1033.8 577.909L1027.5 573.31L1027 581.009L1033.8 577.909Z" stroke="#8B3ACA" stroke-miterlimit="10"/>
<path d="M1030.3 579.51L1032.5 584.21" stroke="#8B3ACA" stroke-miterlimit="10"/>
<path d="M1083.1 555.513L1076.8 551.013L1076.3 558.612L1083.1 555.513Z" stroke="#8B3ACA" stroke-miterlimit="10"/>
<path d="M1079.6 557.113L1081.7 561.813" stroke="#8B3ACA" stroke-miterlimit="10"/>
<path d="M1132.3 533.216L1126.1 528.617L1125.5 536.316L1132.3 533.216Z" stroke="#8B3ACA" stroke-miterlimit="10"/>
<path d="M1128.9 534.817L1131 539.517" stroke="#8B3ACA" stroke-miterlimit="10"/>
<path d="M1181.6 510.92L1175.4 506.32L1174.8 514.019L1181.6 510.92Z" stroke="#8B3ACA" stroke-miterlimit="10"/>
<path d="M1178.1 512.419L1180.3 517.219" stroke="#8B3ACA" stroke-miterlimit="10"/>
<path d="M1230.9 488.523L1224.6 484.024L1224.1 491.623L1230.9 488.523Z" stroke="#8B3ACA" stroke-miterlimit="10"/>
<path d="M1227.4 490.124L1229.5 494.824" stroke="#8B3ACA" stroke-miterlimit="10"/>
<path d="M1280.2 466.227L1273.9 461.627L1273.3 469.326L1280.2 466.227Z" stroke="#8B3ACA" stroke-miterlimit="10"/>
<path d="M1276.7 467.827L1278.8 472.527" stroke="#8B3ACA" stroke-miterlimit="10"/>
<path d="M1024.7 620.802L1018.4 616.303L1017.8 623.902L1024.7 620.802Z" stroke="#8B3ACA" stroke-miterlimit="10"/>
<path d="M1021.2 622.403L1023.3 627.103" stroke="#8B3ACA" stroke-miterlimit="10"/>
<path d="M1073.9 598.506L1067.7 593.906L1067.1 601.605L1073.9 598.506Z" stroke="#8B3ACA" stroke-miterlimit="10"/>
<path d="M1070.5 600.106L1072.6 604.806" stroke="#8B3ACA" stroke-miterlimit="10"/>
<path d="M1123.2 576.109L1116.9 571.61L1116.4 579.209L1123.2 576.109Z" stroke="#8B3ACA" stroke-miterlimit="10"/>
<path d="M1119.7 577.71L1121.9 582.41" stroke="#8B3ACA" stroke-miterlimit="10"/>
<path d="M1172.5 553.813L1166.2 549.214L1165.7 556.912L1172.5 553.813Z" stroke="#8B3ACA" stroke-miterlimit="10"/>
<path d="M1169 555.414L1171.1 560.114" stroke="#8B3ACA" stroke-miterlimit="10"/>
<path d="M1221.8 531.416L1215.5 526.917L1214.9 534.516L1221.8 531.416Z" stroke="#8B3ACA" stroke-miterlimit="10"/>
<path d="M1218.3 533.017L1220.4 537.817" stroke="#8B3ACA" stroke-miterlimit="10"/>
<path d="M1271 509.12L1264.8 504.621L1264.2 512.219L1271 509.12Z" stroke="#8B3ACA" stroke-miterlimit="10"/>
<path d="M1267.5 510.721L1269.7 515.421" stroke="#8B3ACA" stroke-miterlimit="10"/>
<path d="M1117.1 620.502L1110.8 616.003L1110.2 623.602L1117.1 620.502Z" stroke="#8B3ACA" stroke-miterlimit="10"/>
<path d="M1113.6 622.103L1115.7 626.803" stroke="#8B3ACA" stroke-miterlimit="10"/>
<path d="M1166.3 598.206L1160.1 593.607L1159.5 601.305L1166.3 598.206Z" stroke="#8B3ACA" stroke-miterlimit="10"/>
<path d="M1162.8 599.807L1165 604.507" stroke="#8B3ACA" stroke-miterlimit="10"/>
<path d="M1215.6 575.809L1209.3 571.31L1208.8 578.909L1215.6 575.809Z" stroke="#8B3ACA" stroke-miterlimit="10"/>
<path d="M1212.1 577.41L1214.3 582.21" stroke="#8B3ACA" stroke-miterlimit="10"/>
<path d="M1264.9 553.513L1258.6 549.014L1258 556.612L1264.9 553.513Z" stroke="#8B3ACA" stroke-miterlimit="10"/>
<path d="M1261.4 555.114L1263.5 559.814" stroke="#8B3ACA" stroke-miterlimit="10"/>
<path d="M1157.2 641.099L1150.9 636.6L1150.4 644.199L1157.2 641.099Z" stroke="#8B3ACA" stroke-miterlimit="10"/>
<path d="M1206.5 618.803L1200.2 614.203L1199.6 621.902L1206.5 618.803Z" stroke="#8B3ACA" stroke-miterlimit="10"/>
<path d="M1203 620.403L1205.1 625.103" stroke="#8B3ACA" stroke-miterlimit="10"/>
<path d="M1255.7 596.406L1249.5 591.907L1248.9 599.506L1255.7 596.406Z" stroke="#8B3ACA" stroke-miterlimit="10"/>
<path d="M1252.2 598.007L1254.4 602.707" stroke="#8B3ACA" stroke-miterlimit="10"/>
<path d="M1133.9 395.638C1271.14 395.638 1382.4 284.398 1382.4 147.177C1382.4 9.9557 1271.14 -101.284 1133.9 -101.284C996.658 -101.284 885.4 9.9557 885.4 147.177C885.4 284.398 996.658 395.638 1133.9 395.638Z" fill="url(#paint2_linear)"/>
<path d="M763.5 720.587C830.382 720.587 884.6 666.377 884.6 599.506C884.6 532.635 830.382 478.425 763.5 478.425C696.619 478.425 642.4 532.635 642.4 599.506C642.4 666.377 696.619 720.587 763.5 720.587Z" fill="url(#paint3_linear)"/>
<path d="M109.9 75.8881C161.428 75.8881 203.2 34.1228 203.2 -17.3973C203.2 -68.9174 161.428 -110.683 109.9 -110.683C58.3714 -110.683 16.5996 -68.9174 16.5996 -17.3973C16.5996 34.1228 58.3714 75.8881 109.9 75.8881Z" fill="url(#paint4_linear)"/>
<path d="M919.1 115.382C834 115.382 764.9 184.371 764.9 269.558C764.9 354.744 833.9 423.733 919.1 423.733C1004.2 423.733 1073.3 354.744 1073.3 269.558C1073.3 184.371 1004.2 115.382 919.1 115.382ZM919.1 390.639C852.2 390.639 798 336.447 798 269.558C798 202.668 852.2 148.477 919.1 148.477C986 148.477 1040.2 202.668 1040.2 269.558C1040.2 336.447 986 390.639 919.1 390.639Z" fill="url(#paint5_linear)"/>
<path d="M919.1 161.575C859.2 161.575 810.6 210.167 810.6 270.058C810.6 329.948 859.2 378.54 919.1 378.54C979 378.54 1027.6 329.948 1027.6 270.058C1027.6 210.167 979 161.575 919.1 161.575ZM919.1 343.746C878.4 343.746 845.4 310.751 845.4 270.058C845.4 229.364 878.4 196.369 919.1 196.369C959.8 196.369 992.8 229.364 992.8 270.058C992.8 310.751 959.8 343.746 919.1 343.746Z" fill="url(#paint6_linear)"/>
<path d="M919.101 237.263C901.001 237.263 886.301 251.96 886.301 270.058C886.301 288.155 901.001 302.852 919.101 302.852C937.201 302.852 951.901 288.155 951.901 270.058C951.901 251.96 937.201 237.263 919.101 237.263Z" fill="url(#paint7_linear)"/>
<path d="M918.199 309.751C940.291 309.751 958.199 291.846 958.199 269.758C958.199 247.67 940.291 229.764 918.199 229.764C896.108 229.764 878.199 247.67 878.199 269.758C878.199 291.846 896.108 309.751 918.199 309.751Z" fill="#D09EF4"/>
<path d="M1097.9 187.67H1255.5C1255.5 100.584 1184.9 30.0952 1097.9 30.0952V187.67Z" fill="url(#paint8_linear)"/>
<path d="M754.4 162.174H661.4C661.4 110.783 703 69.1891 754.4 69.1891V162.174Z" fill="url(#paint9_linear)"/>
<path d="M1058.1 369.242L917.399 266.658L905.299 440.331L971.399 409.536L1011.9 496.422L1032.6 486.823L992.099 399.937L1058.1 369.242Z" fill="url(#paint10_linear)"/>
</g>
<defs>
<linearGradient id="paint0_linear" x1="160.984" y1="-160.959" x2="1118.87" y2="797.073" gradientUnits="userSpaceOnUse">
<stop stop-color="#8B3ACA"/>
<stop offset="1" stop-color="#E4C1FF"/>
</linearGradient>
<linearGradient id="paint1_linear" x1="1177.4" y1="336.08" x2="1396.34" y2="612.057" gradientUnits="userSpaceOnUse">
<stop stop-color="#DFB6FD" stop-opacity="0.5"/>
<stop offset="0.4057" stop-color="#C38AED" stop-opacity="0.6217"/>
<stop offset="0.7931" stop-color="#AD67E0" stop-opacity="0.7379"/>
<stop offset="1" stop-color="#A459DB" stop-opacity="0.8"/>
</linearGradient>
<linearGradient id="paint2_linear" x1="978.228" y1="-14.0135" x2="1314.16" y2="333.967" gradientUnits="userSpaceOnUse">
<stop stop-color="#903AD0" stop-opacity="0.9"/>
<stop offset="0.8567" stop-color="#D3A4F6" stop-opacity="0.129"/>
<stop offset="1" stop-color="#DFB6FD" stop-opacity="0"/>
</linearGradient>
<linearGradient id="paint3_linear" x1="798.864" y1="493.404" x2="729.887" y2="700.367" gradientUnits="userSpaceOnUse">
<stop stop-color="#AE69E1"/>
<stop offset="0.2151" stop-color="#B16DE3" stop-opacity="0.7849"/>
<stop offset="0.452" stop-color="#B97BE7" stop-opacity="0.548"/>
<stop offset="0.6993" stop-color="#C791EF" stop-opacity="0.3007"/>
<stop offset="0.9522" stop-color="#DBAFFB" stop-opacity="0.0477941"/>
<stop offset="1" stop-color="#DFB6FD" stop-opacity="0"/>
</linearGradient>
<linearGradient id="paint4_linear" x1="128.889" y1="59.7598" x2="90.8999" y2="-94.2188" gradientUnits="userSpaceOnUse">
<stop stop-color="#8E36CE"/>
<stop offset="0.1813" stop-color="#8F38CF"/>
<stop offset="1" stop-color="#913BD0"/>
</linearGradient>
<linearGradient id="paint5_linear" x1="821.596" y1="156.097" x2="1026.88" y2="395.043" gradientUnits="userSpaceOnUse">
<stop offset="0.1237" stop-color="#8B3ACA"/>
<stop offset="0.2652" stop-color="#8F3FCC" stop-opacity="0.8386"/>
<stop offset="0.4383" stop-color="#994ED2" stop-opacity="0.6411"/>
<stop offset="0.6279" stop-color="#AA67DD" stop-opacity="0.4247"/>
<stop offset="0.8278" stop-color="#C189EB" stop-opacity="0.1965"/>
<stop offset="1" stop-color="#D9ADFA" stop-opacity="0"/>
</linearGradient>
<linearGradient id="paint6_linear" x1="803.872" y1="135.981" x2="1045.85" y2="417.643" gradientUnits="userSpaceOnUse">
<stop offset="0.1237" stop-color="#8B3ACA"/>
<stop offset="0.2652" stop-color="#8F3FCC" stop-opacity="0.8386"/>
<stop offset="0.4383" stop-color="#994ED2" stop-opacity="0.6411"/>
<stop offset="0.6279" stop-color="#AA67DD" stop-opacity="0.4247"/>
<stop offset="0.8278" stop-color="#C189EB" stop-opacity="0.1965"/>
<stop offset="1" stop-color="#D9ADFA" stop-opacity="0"/>
</linearGradient>
<linearGradient id="paint7_linear" x1="821.346" y1="156.312" x2="1026.63" y2="395.258" gradientUnits="userSpaceOnUse">
<stop offset="0.1237" stop-color="#8B3ACA"/>
<stop offset="0.2652" stop-color="#8F3FCC" stop-opacity="0.8386"/>
<stop offset="0.4383" stop-color="#994ED2" stop-opacity="0.6411"/>
<stop offset="0.6279" stop-color="#AA67DD" stop-opacity="0.4247"/>
<stop offset="0.8278" stop-color="#C189EB" stop-opacity="0.1965"/>
<stop offset="1" stop-color="#D9ADFA" stop-opacity="0"/>
</linearGradient>
<linearGradient id="paint8_linear" x1="1098.68" y1="186.887" x2="1202.66" y2="82.8874" gradientUnits="userSpaceOnUse">
<stop stop-color="#AE66E3" stop-opacity="0"/>
<stop offset="0.2851" stop-color="#A960DF" stop-opacity="0.1711"/>
<stop offset="0.683" stop-color="#9A4DD5" stop-opacity="0.4098"/>
<stop offset="1" stop-color="#8B3ACA" stop-opacity="0.6"/>
</linearGradient>
<linearGradient id="paint9_linear" x1="753.941" y1="161.703" x2="692.603" y2="100.355" gradientUnits="userSpaceOnUse">
<stop stop-color="#AE66E3" stop-opacity="0"/>
<stop offset="1" stop-color="#8B3ACA" stop-opacity="0.6"/>
</linearGradient>
<linearGradient id="paint10_linear" x1="935.03" y1="307.225" x2="1037.98" y2="522.515" gradientUnits="userSpaceOnUse">
<stop offset="0.1595" stop-color="#903AD0"/>
<stop offset="0.3069" stop-color="#933ED2" stop-opacity="0.8246"/>
<stop offset="0.4628" stop-color="#9B4BD6" stop-opacity="0.6391"/>
<stop offset="0.6227" stop-color="#A860DE" stop-opacity="0.4489"/>
<stop offset="0.7853" stop-color="#BB7EE8" stop-opacity="0.2555"/>
<stop offset="0.9484" stop-color="#D2A3F6" stop-opacity="0.061352"/>
<stop offset="1" stop-color="#DBB1FB" stop-opacity="0"/>
</linearGradient>
<clipPath id="clip0">
<rect width="1280" height="636" fill="white"/>
</clipPath>
</defs>
</svg>
