<svg width="1280" height="972" viewBox="0 0 1280 972" fill="none" xmlns="http://www.w3.org/2000/svg">
<path d="M1328.24 225.356C1303.62 78.3169 1164.38 -20.894 1017.33 3.75855C870.283 28.4111 771.065 167.584 795.769 314.643C820.472 461.702 959.624 560.893 1106.67 536.241C1253.72 511.588 1352.89 372.366 1328.24 225.356ZM1087.09 419.732C1057.47 424.699 1027.05 420.772 999.663 408.448C972.278 396.125 949.163 375.958 933.24 350.498C917.317 325.038 909.303 295.428 910.21 265.413C911.117 235.398 920.905 206.327 938.336 181.874C955.767 157.422 980.058 138.687 1008.14 128.04C1036.22 117.392 1066.82 115.31 1096.09 122.056C1125.35 128.802 1151.95 144.074 1172.54 165.94C1193.12 187.806 1206.75 215.284 1211.72 244.9C1218.38 284.609 1208.99 325.337 1185.61 358.124C1162.24 390.911 1126.8 413.072 1087.09 419.732Z" fill="url(#paint0_linear)"/>
<path d="M1044.24 657.356C1019.62 510.317 880.384 411.106 733.335 435.759C586.286 460.411 487.069 599.584 511.772 746.643C536.476 893.702 675.628 992.893 822.677 968.241C969.726 943.588 1068.89 804.366 1044.24 657.356ZM803.094 851.732C773.477 856.699 743.052 852.772 715.667 840.448C688.282 828.125 665.166 807.958 649.244 782.498C633.321 757.038 625.307 727.428 626.214 697.413C627.121 667.398 636.909 638.327 654.34 613.874C671.771 589.422 696.062 570.687 724.141 560.04C752.22 549.392 782.826 547.31 812.089 554.056C841.352 560.802 867.957 576.074 888.54 597.94C909.122 619.806 922.758 647.284 927.723 676.9C934.38 716.609 924.99 757.337 901.617 790.124C878.245 822.911 842.805 845.072 803.094 851.732Z" fill="url(#paint1_linear)" fill-opacity="0.2"/>
<path d="M504.232 389.356C479.572 242.314 340.422 143.101 193.353 167.76C46.285 192.42 -52.8981 331.573 -28.2388 478.644C-3.57954 625.714 135.571 724.898 282.639 700.239C429.708 675.579 528.92 536.397 504.232 389.356ZM269.242 620.214C166.403 637.463 69.0527 568.067 51.8038 465.177C34.555 362.287 103.95 264.985 206.838 247.736C309.727 230.487 407.028 299.883 424.277 402.772C441.525 505.662 372.062 602.975 269.223 620.214H269.242Z" fill="url(#paint2_linear)"/>
<defs>
<linearGradient id="paint0_linear" x1="1230.61" y1="94.9259" x2="882.534" y2="456.339" gradientUnits="userSpaceOnUse">
<stop stop-color="#E4C1FF" stop-opacity="0.5"/>
<stop offset="1" stop-color="#E4C1FF" stop-opacity="0"/>
</linearGradient>
<linearGradient id="paint1_linear" x1="977" y1="506" x2="589.538" y2="903.545" gradientUnits="userSpaceOnUse">
<stop stop-color="#2DC5C5" stop-opacity="0"/>
<stop offset="0.3" stop-color="#2DC5C5" stop-opacity="0.2"/>
<stop offset="0.47" stop-color="#2DC5C5" stop-opacity="0.4"/>
<stop offset="0.740331" stop-color="#2DC5C5" stop-opacity="0.6"/>
<stop offset="1" stop-color="#2DC5C5"/>
</linearGradient>
<linearGradient id="paint2_linear" x1="67.1805" y1="615.651" x2="407.901" y2="253.338" gradientUnits="userSpaceOnUse">
<stop stop-color="#81D4FA" stop-opacity="0.6"/>
<stop offset="0.24" stop-color="#A4E0FB" stop-opacity="0.43"/>
<stop offset="0.59" stop-color="#D5F1FD" stop-opacity="0.2"/>
<stop offset="0.86" stop-color="#F3FBFF" stop-opacity="0.05"/>
<stop offset="1" stop-color="white" stop-opacity="0"/>
</linearGradient>
</defs>
</svg>
