<svg width="168" height="16" viewBox="0 0 168 16" fill="none" xmlns="http://www.w3.org/2000/svg">
<path d="M4.58182 0.278897V8.93922C4.58182 10.2378 3.55549 11.2917 2.29091 11.2917H0V15.9967H2.29091C6.08771 15.9967 9.16669 12.835 9.16669 8.93609V0.275757H4.58182V0.278897Z" fill="white"/>
<path d="M26.4486 9.59479C26.4486 13.5313 24.3104 15.9999 19.9791 15.9999C15.55 15.9999 13.5859 13.3494 13.5859 9.65125V0.278897H18.1678V9.59166C18.1678 11.0941 18.9192 11.7465 20.0158 11.7465C21.2681 11.7465 21.8454 10.9561 21.8454 9.68889V0.275757H26.4486V9.59479Z" fill="white"/>
<path d="M35.7992 0.278809C41.1141 0.278809 44.5596 2.88851 44.5596 7.93227C44.5596 12.9164 40.9583 15.7614 35.7595 15.7614H30.8691V0.278809H35.7992ZM35.8755 11.6304C38.2428 11.6304 39.9381 10.5639 39.9381 8.05146C39.9381 5.50136 38.3008 4.37215 35.8755 4.37215H35.4143V11.6304H35.8755Z" fill="white"/>
<path d="M48.3691 8.01083C48.3691 3.52227 51.9704 0.00292969 56.3995 0.00292969C60.847 0.00292969 64.3536 3.46267 64.3536 7.95124C64.3536 12.4806 60.8103 15.9999 56.3629 15.9999C51.9124 15.9999 48.3691 12.5214 48.3691 8.01083ZM53.012 7.99202C53.012 9.99007 54.4568 11.7686 56.3812 11.7686C58.3056 11.7686 59.732 9.99007 59.732 7.99202C59.732 5.99396 58.2872 4.23429 56.3812 4.23429C54.4538 4.23429 53.012 5.99396 53.012 7.99202Z" fill="white"/>
<path d="M72.7073 11.7276H78.5812V15.7614H68.1621V0.278809H72.7073V11.7276Z" fill="white"/>
<path d="M82.082 15.7614L87.8001 0.278809H92.7302L98.4483 15.7614H93.616L92.8279 13.5469H87.6108L86.8593 15.7614H82.082ZM88.744 9.93032H91.7466L90.2438 5.46058L88.744 9.93032Z" fill="white"/>
<path d="M113.902 9.59479C113.902 13.5313 111.764 15.9999 107.432 15.9999C103.003 15.9999 101.039 13.3494 101.039 9.65125V0.278897H105.621V9.59166C105.621 11.0941 106.372 11.7465 107.469 11.7465C108.721 11.7465 109.299 10.9561 109.299 9.68889V0.275757H113.902V9.59479Z" fill="white"/>
<path d="M118.32 15.7614V0.278809H123.287L128.101 7.87267H128.119V0.278809H132.625V15.7614H128.043L122.844 7.61546H122.826V15.7614H118.32Z" fill="white"/>
<path d="M151.282 4.45092L147.296 6.38938C146.834 5.30096 146.065 4.25331 144.369 4.25331C142.482 4.25331 141.095 5.91575 141.095 7.98908C141.095 10.0248 142.424 11.7249 144.369 11.7249C145.949 11.7249 146.874 10.7148 147.335 9.55114L151.34 11.5084C150.494 13.7825 148.181 15.997 144.33 15.997C139.861 15.997 136.434 12.6753 136.434 8.0079C136.434 3.61971 139.784 0 144.424 0C148.297 0.00313666 150.475 2.25839 151.282 4.45092Z" fill="white"/>
<path d="M154.539 15.7614V0.278809H159.084V5.87462H163.455V0.278809H168V15.7614H163.455V9.96796H159.084V15.7614H154.539Z" fill="white"/>
</svg>
