<svg width="24" height="24" viewBox="0 0 24 24" fill="none" xmlns="http://www.w3.org/2000/svg">
<path d="M19.12 5.48975C19.12 9.89764 17.369 14.1258 14.2521 17.2427C11.1353 20.3595 6.9079 22.1099 2.5 22.1099" stroke="#FF9900" stroke-miterlimit="10" stroke-linecap="round"/>
<path d="M3.53906 11.8501C3.53906 13.1001 4.87906 14.1099 6.53906 14.1099C8.19906 14.1099 9.53906 13.1101 9.53906 11.8501C9.53906 10.5901 8.69906 9.67986 6.53906 9.35986C4.53906 9.09986 3.53906 8.42963 3.53906 6.86963C3.53906 5.61963 4.87906 4.60986 6.53906 4.60986C8.19906 4.60986 9.53906 5.60963 9.53906 6.86963" stroke="#FF9900" stroke-miterlimit="10" stroke-linecap="round"/>
<path d="M6.50977 4.57V2.5" stroke="#FF9900" stroke-miterlimit="10" stroke-linecap="round"/>
<path d="M6.50977 16.2498V14.0698" stroke="#FF9900" stroke-miterlimit="10" stroke-linecap="round"/>
<path d="M19.1195 2.98196L21.3483 6.2201H16.8906L19.1195 2.98196Z" fill="#FF9900" stroke="#FF9900"/>
</svg>
