<svg width="24" height="24" viewBox="0 0 24 24" fill="none" xmlns="http://www.w3.org/2000/svg">
<path d="M18.5 5.09009H22.5V20.9501H2.5V5.09009H6.5" stroke="#8B3ACA" stroke-linecap="round" stroke-linejoin="round"/>
<path d="M12.5 6.45996V20.95" stroke="#8B3ACA" stroke-linecap="round" stroke-linejoin="round"/>
<path d="M6.50977 18.19C7.65312 18.1875 8.78308 18.4364 9.81984 18.9185C10.8566 19.4006 11.7749 20.1041 12.5098 20.98V5.31008C11.7749 4.43419 10.8566 3.73064 9.81984 3.24855C8.78308 2.76646 7.65312 2.51754 6.50977 2.52004V18.19Z" stroke="#8B3ACA" stroke-linecap="round" stroke-linejoin="round"/>
<path d="M18.4805 18.1899C17.3371 18.1874 16.2071 18.4364 15.1704 18.9185C14.1336 19.4005 13.2154 20.1041 12.4805 20.98V5.31006C13.2167 4.43575 14.1353 3.73244 15.1717 3.25049C16.2082 2.76854 17.3374 2.51957 18.4805 2.52002C18.4805 2.52002 18.4805 18.1899 18.4805 18.1899Z" stroke="#8B3ACA" stroke-linecap="round" stroke-linejoin="round"/>
</svg>
