<svg width="20" height="20" viewBox="0 0 20 20" fill="none" xmlns="http://www.w3.org/2000/svg">
<path d="M2.72139 7.6408C2.33891 7.24239 1.70588 7.22947 1.30747 7.61195C0.909057 7.99442 0.896138 8.62745 1.27861 9.02587L2.72139 7.6408ZM8.4 15L7.67861 15.6925L8.4 16.444L9.12139 15.6925L8.4 15ZM18.7214 5.69253C19.1039 5.29412 19.0909 4.66109 18.6925 4.27861C18.2941 3.89614 17.6611 3.90906 17.2786 4.30747L18.7214 5.69253ZM1.27861 9.02587L7.67861 15.6925L9.12139 14.3075L2.72139 7.6408L1.27861 9.02587ZM9.12139 15.6925L18.7214 5.69253L17.2786 4.30747L7.67861 14.3075L9.12139 15.6925Z" fill="#8B3ACA"/>
</svg>
