<svg width="24" height="24" viewBox="0 0 24 24" fill="none" xmlns="http://www.w3.org/2000/svg">
<path d="M21.2955 5.71875L15.9455 13.8787L9.25547 10.4688L4.35547 18.6788" stroke="#FF9900" stroke-miterlimit="10"/>
<path d="M4.24372 20.3146C5.06209 20.1042 5.55486 19.2699 5.34443 18.4515C5.13401 17.6331 4.30017 17.141 3.4818 17.3514C2.66342 17.5618 2.17041 18.3952 2.38084 19.2135C2.59127 20.0319 3.42534 20.525 4.24372 20.3146Z" fill="#FF9900"/>
<path d="M15.7791 15.6871C16.5975 15.4767 17.0903 14.6424 16.8798 13.824C16.6694 13.0057 15.8353 12.5126 15.017 12.723C14.1986 12.9334 13.7058 13.7677 13.9162 14.5861C14.1267 15.4044 14.9607 15.8975 15.7791 15.6871Z" fill="#FF9900"/>
<path d="M21.1815 7.34532C21.9998 7.1349 22.4926 6.30062 22.2822 5.48225C22.0717 4.66387 21.2377 4.17077 20.4193 4.38119C19.6009 4.59162 19.1082 5.4259 19.3186 6.24427C19.529 7.06265 20.3631 7.55575 21.1815 7.34532Z" fill="#FF9900"/>
<path d="M9.20099 11.8951C10.0194 11.6847 10.5121 10.8504 10.3017 10.0321C10.0913 9.21368 9.2572 8.72057 8.43883 8.931C7.62045 9.14143 7.12768 9.9757 7.33811 10.7941C7.54854 11.6125 8.38262 12.1056 9.20099 11.8951Z" fill="#FF9900"/>
</svg>
