<svg width="24" height="24" viewBox="0 0 24 24" fill="none" xmlns="http://www.w3.org/2000/svg">
<path d="M22.0001 5.29004H7.08008" stroke="#FF9900" stroke-miterlimit="10" stroke-linecap="round"/>
<path d="M4.08 5.29C4.08 5.72631 3.72631 6.08 3.29 6.08C2.85369 6.08 2.5 5.72631 2.5 5.29C2.5 4.85369 2.85369 4.5 3.29 4.5C3.72631 4.5 4.08 4.85369 4.08 5.29Z" fill="#FF9900" stroke="#FF9900"/>
<path d="M22.0001 9.91992H7.08008" stroke="#FF9900" stroke-miterlimit="10" stroke-linecap="round"/>
<path d="M4.08 9.91988C4.08 10.3562 3.72631 10.7099 3.29 10.7099C2.85369 10.7099 2.5 10.3562 2.5 9.91988C2.5 9.48358 2.85369 9.12988 3.29 9.12988C3.72631 9.12988 4.08 9.48358 4.08 9.91988Z" fill="#FF9900" stroke="#FF9900"/>
<path d="M22.0001 14.54H7.08008" stroke="#FF9900" stroke-miterlimit="10" stroke-linecap="round"/>
<path d="M4.08 14.54C4.08 14.9763 3.72631 15.33 3.29 15.33C2.85369 15.33 2.5 14.9763 2.5 14.54C2.5 14.1037 2.85369 13.75 3.29 13.75C3.72631 13.75 4.08 14.1037 4.08 14.54Z" fill="#FF9900" stroke="#FF9900"/>
<path d="M22.0001 19.1602H7.08008" stroke="#FF9900" stroke-miterlimit="10" stroke-linecap="round"/>
<path d="M4.08 19.1601C4.08 19.5964 3.7263 19.9501 3.29 19.9501C2.8537 19.9501 2.5 19.5964 2.5 19.1601C2.5 18.7238 2.85369 18.3701 3.29 18.3701C3.72631 18.3701 4.08 18.7238 4.08 19.1601Z" fill="#FF9900" stroke="#FF9900"/>
</svg>
