<svg width="60" height="60" viewBox="0 0 60 60" fill="none" xmlns="http://www.w3.org/2000/svg">
<path d="M54.8203 22.33H39.3503V7H24.0203V22.33H8.82031V37.67H24.0203V53H39.3503V37.67H54.8203V22.33Z" fill="url(#paint0_linear)"/>
<path d="M16.5705 38.05C19.8898 38.05 22.5805 35.3593 22.5805 32.04C22.5805 28.7208 19.8898 26.03 16.5705 26.03C13.2513 26.03 10.5605 28.7208 10.5605 32.04C10.5605 35.3593 13.2513 38.05 16.5705 38.05Z" stroke="#68C3DE" stroke-width="1.5" stroke-miterlimit="10" stroke-linecap="round"/>
<path d="M5.48938 53.0303C5.44485 51.5492 5.69811 50.0738 6.23414 48.6924C6.77018 47.311 7.57807 46.0517 8.60995 44.9883C9.64183 43.9249 10.8767 43.0793 12.2413 42.502C13.606 41.9246 15.0726 41.627 16.5544 41.627C18.0361 41.627 19.5028 41.9246 20.8674 42.502C22.2321 43.0793 23.4669 43.9249 24.4988 44.9883C25.5307 46.0517 26.3386 47.311 26.8746 48.6924C27.4106 50.0738 27.6639 51.5492 27.6194 53.0303" stroke="#68C3DE" stroke-width="1.5" stroke-miterlimit="10" stroke-linecap="round"/>
<defs>
<linearGradient id="paint0_linear" x1="11.2303" y1="50.52" x2="51.2203" y2="10.53" gradientUnits="userSpaceOnUse">
<stop stop-color="#81D4FA" stop-opacity="0"/>
<stop offset="0.09" stop-color="#81D4FA" stop-opacity="0.03"/>
<stop offset="0.22" stop-color="#81D4FA" stop-opacity="0.13"/>
<stop offset="0.4" stop-color="#81D4FA" stop-opacity="0.28"/>
<stop offset="0.59" stop-color="#81D4FA" stop-opacity="0.49"/>
<stop offset="0.81" stop-color="#81D4FA" stop-opacity="0.75"/>
<stop offset="1" stop-color="#81D4FA"/>
</linearGradient>
</defs>
</svg>
