<svg width="24" height="24" viewBox="0 0 24 24" fill="none" xmlns="http://www.w3.org/2000/svg">
<path d="M6.94214 20.0757C5.18954 18.9789 3.84145 17.342 3.10151 15.4115C2.36158 13.4809 2.26998 11.3617 2.84054 9.37446C3.41111 7.38724 4.61284 5.63983 6.26424 4.39586C7.91564 3.15188 9.927 2.479 11.9945 2.479C14.062 2.479 16.0734 3.15188 17.7248 4.39586C19.3762 5.63983 20.5779 7.38724 21.1485 9.37446C21.7191 11.3617 21.6274 13.4809 20.8875 15.4115C20.1476 17.342 18.7995 18.9789 17.0469 20.0757" stroke="#2DC5C5" stroke-linecap="round" stroke-linejoin="round"/>
<path d="M8.86599 16.7804C7.84485 16.1006 7.06957 15.1103 6.65483 13.9558C6.2401 12.8013 6.20791 11.5447 6.56302 10.3705C6.91813 9.19624 7.6417 8.1673 8.62672 7.43612C9.61174 6.70493 10.8059 6.30981 12.0327 6.30981C13.2594 6.30981 14.4536 6.70493 15.4386 7.43612C16.4236 8.1673 17.1472 9.19624 17.5023 10.3705C17.8574 11.5447 17.8252 12.8013 17.4105 13.9558C16.9957 15.1103 16.2205 16.1006 15.1993 16.7804" stroke="#2DC5C5" stroke-linecap="round" stroke-linejoin="round"/>
<path d="M12.0005 13.9047C13.0524 13.9047 13.9052 13.0519 13.9052 12C13.9052 10.948 13.0524 10.0952 12.0005 10.0952C10.9485 10.0952 10.0957 10.948 10.0957 12C10.0957 13.0519 10.9485 13.9047 12.0005 13.9047Z" fill="#2DC5C5"/>
<path d="M15.3234 21.5238H8.67578L11.9996 15.019L15.3234 21.5238Z" stroke="#2DC5C5" stroke-linejoin="round"/>
</svg>
