<svg width="24" height="24" viewBox="0 0 24 24" fill="none" xmlns="http://www.w3.org/2000/svg">
<path d="M17.4293 11.5903H17.2393C16.921 11.5939 16.6097 11.4976 16.3492 11.3149C16.0886 11.1321 15.892 10.8722 15.7871 10.5717C15.6822 10.2713 15.6742 9.9453 15.7643 9.64007C15.8544 9.33484 16.038 9.06585 16.2892 8.87054C15.9374 8.4058 15.5197 7.99411 15.0492 7.64984L14.9293 7.79046C14.7065 8.01577 14.4189 8.16535 14.1066 8.21917C13.7944 8.27299 13.4731 8.22799 13.1877 8.09027C12.9024 7.95254 12.6672 7.72954 12.5151 7.45159C12.3629 7.17365 12.3015 6.85505 12.3393 6.54046C11.7624 6.45591 11.1762 6.45591 10.5993 6.54046C10.6427 6.8704 10.5765 7.20485 10.4111 7.49359C10.2456 7.78232 9.99003 8.00868 9.68347 8.13812C9.3769 8.26756 9.03635 8.29318 8.71404 8.21038C8.39174 8.12758 8.1055 7.94128 7.89929 7.68011C7.43454 8.03198 7.02353 8.44994 6.67925 8.92034L6.81927 9.04046C7.04458 9.26324 7.19465 9.55048 7.24847 9.86273C7.30229 10.175 7.25716 10.4963 7.11944 10.7817C6.98172 11.067 6.75828 11.3024 6.48034 11.4545C6.2024 11.6067 5.88386 11.6681 5.56927 11.6303C5.48472 12.2072 5.48472 12.7936 5.56927 13.3705H5.75927C6.0775 13.3669 6.38881 13.4632 6.64935 13.6459C6.90988 13.8287 7.10648 14.0886 7.21142 14.3891C7.31636 14.6895 7.32434 15.0155 7.23425 15.3207C7.14415 15.626 6.96055 15.895 6.70928 16.0903C7.06116 16.555 7.47887 16.9657 7.94927 17.31L8.06927 17.1703C8.29205 16.945 8.57965 16.7945 8.8919 16.7407C9.20415 16.6868 9.52543 16.7318 9.81079 16.8696C10.0961 17.0073 10.3313 17.2313 10.4835 17.5092C10.6356 17.7872 10.6971 18.1058 10.6593 18.4203C11.2362 18.5049 11.8224 18.5049 12.3993 18.4203C12.3559 18.0904 12.422 17.755 12.5875 17.4662C12.7529 17.1775 13.0085 16.9511 13.3151 16.8217C13.6216 16.6923 13.9622 16.6666 14.2845 16.7494C14.6068 16.8322 14.8931 17.0185 15.0993 17.2797C15.564 16.9278 15.975 16.5109 16.3193 16.0405L16.1793 15.9203C15.9539 15.6976 15.8039 15.4093 15.7501 15.0971C15.6962 14.7849 15.7414 14.4635 15.8791 14.1782C16.0168 13.8928 16.2402 13.6584 16.5182 13.5063C16.7961 13.3542 17.1147 13.2927 17.4293 13.3305C17.5138 12.7536 17.5138 12.1672 17.4293 11.5903ZM11.5193 14.35C11.1395 14.35 10.7683 14.2378 10.4526 14.0268C10.1368 13.8158 9.89074 13.5153 9.74542 13.1645C9.6001 12.8137 9.56208 12.4276 9.63616 12.0551C9.71025 11.6827 9.8931 11.3412 10.1616 11.0727C10.4301 10.8042 10.7723 10.6214 11.1447 10.5473C11.5172 10.4732 11.9032 10.5114 12.254 10.6567C12.6049 10.802 12.9047 11.048 13.1157 11.3637C13.3267 11.6794 13.4393 12.0504 13.4393 12.4301C13.4406 12.6831 13.3919 12.9343 13.296 13.1684C13.2001 13.4025 13.0589 13.615 12.8805 13.7944C12.7021 13.9737 12.4899 14.1162 12.2563 14.2133C12.0227 14.3104 11.7723 14.3598 11.5193 14.3598V14.35Z" stroke="#FF9900" stroke-linejoin="round"/>
<path d="M20.7695 8.72021C21.6063 10.7775 21.7344 13.0547 21.1337 15.1929C20.533 17.331 19.2376 19.2084 17.4518 20.5288C15.6661 21.8492 13.4915 22.5371 11.2712 22.4849C9.05087 22.4326 6.91114 21.6427 5.18945 20.2397" stroke="#FF9900" stroke-miterlimit="10" stroke-linecap="round"/>
<path d="M2.50068 16.8708C1.4662 14.7454 1.21806 12.3219 1.8003 10.031C2.38254 7.73999 3.75754 5.72974 5.68128 4.35615C7.60503 2.98256 9.95313 2.33397 12.309 2.52705C14.6649 2.72013 16.8762 3.74236 18.5507 5.41084" stroke="#FF9900" stroke-miterlimit="10" stroke-linecap="round"/>
<path d="M19.0105 3.54004L16.5605 5.98004L19.5605 6.54004L19.0105 3.54004Z" fill="#FF9900"/>
<path d="M7 19.6101L4.58 22.0801L4 19.0801L7 19.6101Z" fill="#FF9900"/>
</svg>
