<svg width="24" height="24" viewBox="0 0 24 24" fill="none" xmlns="http://www.w3.org/2000/svg">
<path d="M21.4102 10.5712C20.9079 10.5715 20.1132 10.4155 19.7037 10.1248C19.2941 9.83409 18.9852 9.42345 18.8198 8.94921C18.6544 8.47498 18.6407 7.96116 18.7807 7.47879C18.9206 6.99642 19.2071 6.56974 19.6006 6.25762C19.0382 5.53149 18.3743 4.89 17.6292 4.35286C17.3055 4.77028 16.8539 5.06999 16.3436 5.20665C15.8333 5.34332 15.2923 5.30873 14.8032 5.109C14.3141 4.90927 13.9039 4.55563 13.6352 4.10081C13.3664 3.646 13.254 3.11515 13.3149 2.5904C12.3992 2.4562 11.4688 2.4562 10.553 2.5904C10.62 3.11462 10.5136 3.64654 10.2499 4.10453C9.98615 4.56252 9.57973 4.92149 9.0927 5.12667C8.60567 5.33185 8.06487 5.37229 7.55293 5.24107C7.04099 5.10985 6.5861 4.81445 6.25782 4.40029C5.5316 4.96264 4.8901 5.62689 4.35306 6.37202L4.58162 6.57198C4.93622 6.92664 5.17179 7.38242 5.2558 7.87686C5.3398 8.37129 5.26805 8.8796 5.05049 9.33147C4.83292 9.78334 4.48033 10.1565 4.04143 10.3992C3.60253 10.6418 3.09903 10.7417 2.60065 10.6856C2.46645 11.6014 2.46645 12.5322 2.60065 13.4479H2.90542C3.40767 13.4476 3.89758 13.6036 4.30714 13.8943C4.71669 14.1851 5.02558 14.5957 5.19098 15.0699C5.35639 15.5442 5.37008 16.058 5.23016 16.5404C5.09025 17.0227 4.80369 17.4503 4.4102 17.7625C4.97264 18.4886 5.63659 19.1301 6.38163 19.6672C6.70542 19.2498 7.15691 18.9492 7.66721 18.8125C8.17751 18.6758 8.71855 18.7104 9.20762 18.9102C9.69669 19.1099 10.1069 19.4645 10.3757 19.9193C10.6444 20.3741 10.7569 20.904 10.6959 21.4288C11.6116 21.563 12.5421 21.563 13.4578 21.4288C13.3908 20.9045 13.4972 20.3726 13.761 19.9146C14.0247 19.4566 14.4311 19.0977 14.9181 18.8925C15.4052 18.6873 15.946 18.6478 16.458 18.779C16.9699 18.9102 17.4247 19.2047 17.753 19.6189C18.4791 19.0564 19.1206 18.3931 19.6578 17.6481L19.4292 17.4481C19.0746 17.0934 18.839 16.6367 18.755 16.1423C18.671 15.6479 18.7428 15.1395 18.9603 14.6877C19.1779 14.2358 19.5305 13.8626 19.9694 13.62C20.4083 13.3773 20.9118 13.2775 21.4102 13.3335C21.5444 12.4178 21.5444 11.487 21.4102 10.5712ZM12.0673 15.0002C11.4646 15.0002 10.8753 14.8217 10.3741 14.4868C9.87297 14.1519 9.48235 13.6756 9.25168 13.1187C9.02101 12.5618 8.96069 11.9492 9.07828 11.3581C9.19588 10.7669 9.4861 10.2236 9.91231 9.79743C10.3385 9.37121 10.8816 9.08076 11.4728 8.96316C12.064 8.84557 12.6767 8.90642 13.2336 9.13709C13.7905 9.36775 14.2664 9.75849 14.6013 10.2597C14.9362 10.7608 15.115 11.3496 15.115 11.9524C15.115 12.7607 14.7939 13.5358 14.2223 14.1073C13.6508 14.6789 12.8756 15.0002 12.0673 15.0002Z" stroke="#FF9900" stroke-linejoin="round"/>
</svg>
