<svg width="12" height="11" viewBox="0 0 12 11" fill="none" xmlns="http://www.w3.org/2000/svg">
<path d="M7.17721 10.3351L11.6213 6.18213C11.7695 6.0437 11.8435 5.87065 11.8435 5.69761C11.8435 5.52457 11.7695 5.33423 11.6213 5.2131L7.17721 1.06013C6.88094 0.783266 6.41801 0.783266 6.12173 1.06013C5.82546 1.33699 5.82546 1.7696 6.12173 2.04646L9.3252 4.98815L0.91842 4.98815C0.511043 4.98815 0.177735 5.29962 0.177735 5.68031C0.177735 6.061 0.511043 6.37247 0.91842 6.37247L9.3252 6.37247L6.14025 9.34877C5.84398 9.62563 5.84398 10.0582 6.14025 10.3351C6.41801 10.5947 6.89945 10.5947 7.17721 10.3351Z" fill="#FF9900"/>
</svg>
