<svg width="20" height="20" viewBox="0 0 20 20" fill="none" xmlns="http://www.w3.org/2000/svg">
<path d="M18.523 0H1.47774C0.661541 0 0 0.641359 0 1.43296V18.5664C0 19.3581 0.661773 20 1.47774 20H18.523C19.339 20 19.9998 19.3577 19.9998 18.5664V1.43296C19.9998 0.641591 19.339 0 18.523 0ZM6.06337 16.7414H3.04154V7.7116H6.06337V16.7414ZM4.55276 6.47799H4.53244C3.51909 6.47799 2.8622 5.78497 2.8622 4.91735C2.8622 4.03224 3.53839 3.35801 4.57183 3.35801C5.60536 3.35801 6.24109 4.03206 6.26118 4.91735C6.26118 5.78516 5.60559 6.47799 4.55276 6.47799ZM16.9562 16.7414H13.9353V11.9101C13.9353 10.6962 13.4976 9.86785 12.4052 9.86785C11.5695 9.86785 11.0734 10.4267 10.8555 10.9662C10.7748 11.1589 10.7548 11.4284 10.7548 11.6975V16.7412H7.7345C7.7345 16.7412 7.77402 8.55835 7.7345 7.71146H10.7553V8.99162C11.1563 8.37649 11.8729 7.49901 13.477 7.49901C15.4653 7.49901 16.9562 8.78884 16.9562 11.5637V16.7414ZM10.7357 9.02032C10.7409 9.01185 10.7481 9.00167 10.7553 8.99177V9.02032H10.7357Z" fill="white"/>
</svg>
