<svg width="168" height="16" viewBox="0 0 168 16" fill="none" xmlns="http://www.w3.org/2000/svg">
<path d="M4.58182 0.279018V8.93743C4.58182 10.2357 3.55549 11.2894 2.29091 11.2894H0V15.9934H2.29091C6.08771 15.9934 9.16669 12.8323 9.16669 8.9343V0.275879H4.58182V0.279018Z" fill="#111111"/>
<path d="M26.4486 9.59285C26.4486 13.5285 24.3104 15.9965 19.9791 15.9965C15.55 15.9965 13.5859 13.3466 13.5859 9.64931V0.279018H18.1678V9.58972C18.1678 11.0919 18.9192 11.7441 20.0158 11.7441C21.2681 11.7441 21.8454 10.9539 21.8454 9.68694V0.275879H26.4486V9.59285Z" fill="#111111"/>
<path d="M35.7992 0.279297C41.1141 0.279297 44.5596 2.88842 44.5596 7.93107C44.5596 12.9141 40.9583 15.7585 35.7595 15.7585H30.8691V0.279297H35.7992ZM35.8755 11.6284C38.2428 11.6284 39.9381 10.5622 39.9381 8.05024C39.9381 5.50069 38.3008 4.37174 35.8755 4.37174H35.4143V11.6284H35.8755Z" fill="#111111"/>
<path d="M48.3691 8.01053C48.3691 3.52296 51.9704 0.00439453 56.3995 0.00439453C60.847 0.00439453 64.3536 3.46337 64.3536 7.95095C64.3536 12.4793 60.8103 15.9979 56.3629 15.9979C51.9124 15.9979 48.3691 12.5201 48.3691 8.01053ZM53.012 7.99172C53.012 9.98933 54.4568 11.7674 56.3812 11.7674C58.3056 11.7674 59.7321 9.98933 59.7321 7.99172C59.7321 5.9941 58.2873 4.23482 56.3812 4.23482C54.4538 4.23482 53.012 5.9941 53.012 7.99172Z" fill="#111111"/>
<path d="M72.7073 11.7256H78.5812V15.7585H68.1621V0.279297H72.7073V11.7256Z" fill="#111111"/>
<path d="M82.082 15.7585L87.8001 0.279297H92.7302L98.4483 15.7585H93.616L92.8279 13.5445H87.6108L86.8593 15.7585H82.082ZM88.744 9.92868H91.7466L90.2438 5.45992L88.744 9.92868Z" fill="#111111"/>
<path d="M113.902 9.59285C113.902 13.5285 111.764 15.9965 107.432 15.9965C103.003 15.9965 101.039 13.3466 101.039 9.64931V0.279018H105.621V9.58972C105.621 11.0919 106.372 11.7441 107.469 11.7441C108.721 11.7441 109.299 10.9539 109.299 9.68694V0.275879H113.902V9.59285Z" fill="#111111"/>
<path d="M118.32 15.7585V0.279297H123.287L128.101 7.87148H128.119V0.279297H132.625V15.7585H128.043L122.844 7.61433H122.826V15.7585H118.32Z" fill="#111111"/>
<path d="M151.282 4.44994L147.296 6.38797C146.834 5.29979 146.065 4.25237 144.369 4.25237C142.482 4.25237 141.095 5.91444 141.095 7.98732C141.095 10.0226 142.424 11.7223 144.369 11.7223C145.949 11.7223 146.874 10.7125 147.335 9.54904L151.34 11.5059C150.494 13.7795 148.181 15.9935 144.33 15.9935C139.861 15.9935 136.434 12.6725 136.434 8.00613C136.434 3.61891 139.784 0 144.424 0C148.297 0.00313597 150.475 2.2579 151.282 4.44994Z" fill="#111111"/>
<path d="M154.539 15.7585V0.279297H159.084V5.87387H163.455V0.279297H168V15.7585H163.455V9.96631H159.084V15.7585H154.539Z" fill="#111111"/>
</svg>
