<svg width="60" height="60" viewBox="0 0 60 60" fill="none" xmlns="http://www.w3.org/2000/svg">
<path d="M56.0568 27.3428C55.7997 27.3428 55.6282 27.4285 55.3711 27.4285C52.3711 27.4285 49.8854 25.0285 49.8854 21.9428C49.8854 20.2285 50.6568 18.6857 51.9425 17.6571C50.6568 16.0285 49.1997 14.4857 47.4854 13.2857C47.314 13.4571 47.2282 13.6285 47.0568 13.8C44.914 15.9428 41.4854 15.9428 39.3425 13.8C38.1425 12.6 37.6282 10.8857 37.7997 9.34282C36.8568 9.17139 35.8282 9.17139 34.7997 9.17139C33.6854 9.17139 32.6568 9.2571 31.5425 9.42853C31.5425 9.68567 31.6282 9.8571 31.6282 10.1142C31.6282 13.1142 29.2282 15.6 26.1425 15.6C24.4282 15.6 22.8854 14.8285 21.8568 13.5428C20.2282 14.8285 18.6854 16.2857 17.4854 18C17.6568 18.1714 17.8282 18.2571 17.9997 18.4285C20.1425 20.5714 20.1425 24 17.9997 26.1428C16.7997 27.3428 15.0854 27.8571 13.5425 27.6857C13.3711 28.6285 13.3711 29.6571 13.3711 30.6857C13.3711 31.8 13.4568 32.8285 13.6282 33.9428C13.8854 33.9428 14.0568 33.8571 14.314 33.8571C17.314 33.8571 19.7997 36.2571 19.7997 39.3428C19.7997 41.0571 19.0282 42.6 17.7425 43.6285C19.0282 45.2571 20.4854 46.8 22.1997 48C22.3711 47.8285 22.4568 47.6571 22.6282 47.4857C24.7711 45.3428 28.1997 45.3428 30.3425 47.4857C31.5425 48.6857 32.0568 50.4 31.8854 51.9428C32.8282 52.1142 33.8568 52.1142 34.8854 52.1142C35.9997 52.1142 37.0282 52.0285 38.1425 51.8571C38.1425 51.6 38.0568 51.4285 38.0568 51.1714C38.0568 48.1714 40.4568 45.6857 43.5425 45.6857C45.2568 45.6857 46.7997 46.4571 47.8282 47.7428C49.4568 46.4571 50.9997 45 52.1997 43.2857C52.0282 43.1142 51.8568 43.0285 51.6854 42.8571C49.5425 40.7142 49.5425 37.2857 51.6854 35.1428C52.8854 33.9428 54.5997 33.4285 56.1425 33.6C56.314 32.6571 56.3139 31.6285 56.3139 30.6C56.3139 29.4857 56.2282 28.3714 56.0568 27.3428ZM34.9711 37.2C31.1997 37.2 28.1139 34.1142 28.1139 30.3428C28.1139 26.5714 31.1997 23.4857 34.9711 23.4857C38.7425 23.4857 41.8282 26.5714 41.8282 30.3428C41.8282 34.1142 38.7425 37.2 34.9711 37.2Z" fill="url(#paint0_linear)"/>
<path d="M21.8571 41.9142H15V31.2856H16.7143V40.1999H21.8571V41.9142Z" fill="#2DC5C5"/>
<path d="M16.0293 51.6001C9.4293 51.6001 4.0293 46.2001 4.0293 39.6001C4.0293 33.0001 9.4293 27.6001 16.0293 27.6001C22.6293 27.6001 28.0293 33.0001 28.0293 39.6001C28.0293 46.2001 22.6293 51.6001 16.0293 51.6001ZM16.0293 29.3144C10.3722 29.3144 5.74358 33.943 5.74358 39.6001C5.74358 45.2572 10.3722 49.8858 16.0293 49.8858C21.6864 49.8858 26.315 45.2572 26.315 39.6001C26.315 33.943 21.6864 29.3144 16.0293 29.3144Z" fill="#2DC5C5"/>
<defs>
<linearGradient id="paint0_linear" x1="19.7299" y1="45.6927" x2="50.0311" y2="15.3915" gradientUnits="userSpaceOnUse">
<stop stop-color="#B7E9E9" stop-opacity="0"/>
<stop offset="0.8461" stop-color="#B7E9E9"/>
</linearGradient>
</defs>
</svg>
