<svg width="20" height="20" viewBox="0 0 20 20" fill="none" xmlns="http://www.w3.org/2000/svg">
<g clip-path="url(#clip0)">
<path d="M8.75391 11.8735L12.0068 10L8.75391 8.12653V11.8735Z" fill="white"/>
<path d="M18.5576 0H1.44241C0.645752 0 0 0.645752 0 1.44241V18.5576C0 19.3542 0.645752 20 1.44241 20H18.5576C19.3542 20 20 19.3542 20 18.5576V1.44241C20 0.645752 19.3542 0 18.5576 0V0ZM16.2485 10.0102C16.2485 10.0102 16.2485 12.0383 15.9912 13.0162C15.847 13.5515 15.425 13.9735 14.8897 14.1176C13.9117 14.375 10 14.375 10 14.375C10 14.375 6.09848 14.375 5.11032 14.1074C4.57504 13.9633 4.15298 13.5411 4.00879 13.0058C3.75137 12.0383 3.75137 10 3.75137 10C3.75137 10 3.75137 7.97211 4.00879 6.99417C4.15283 6.45889 4.58527 6.02646 5.11032 5.88242C6.08826 5.625 10 5.625 10 5.625C10 5.625 13.9117 5.625 14.8897 5.89264C15.425 6.03668 15.847 6.45889 15.9912 6.99417C16.2589 7.97211 16.2485 10.0102 16.2485 10.0102Z" fill="white"/>
</g>
<defs>
<clipPath id="clip0">
<rect width="20" height="20" fill="white"/>
</clipPath>
</defs>
</svg>
